<svg width="46" height="46" viewBox="0 0 46 46" fill="none" xmlns="http://www.w3.org/2000/svg">
<path fill-rule="evenodd" clip-rule="evenodd" d="M23.1156 3.92437C24.7021 3.32304 26.4382 4.53315 26.4382 6.23014V12.6454H10.0423C7.60175 12.6454 5.37495 13.5902 3.70898 15.1329V14.3343C3.70898 12.476 4.84645 10.8283 6.57249 10.1749L6.57293 10.1748L6.57316 10.1747L23.1142 3.92492L23.1156 3.92437ZM3.70898 21.9787V23.8551V35.9995C3.70898 39.4836 6.55825 42.3329 10.0423 42.3329H33.959C37.4431 42.3329 40.2923 39.4836 40.2923 35.9995V35.021H37.8315C34.9224 35.021 32.1037 32.8938 31.8374 29.7586C31.671 27.9816 32.3475 26.3216 33.5201 25.1693C34.2441 24.4307 35.1526 23.9095 36.1567 23.6555C36.6153 23.5392 37.0939 23.4787 37.584 23.4787H40.2923V21.9787C40.2923 18.4947 37.4431 15.6454 33.959 15.6454H10.0423C6.55825 15.6454 3.70898 18.4947 3.70898 21.9787ZM43.2923 35.9995V34.7245C44.587 34.1695 45.4982 32.8968 45.4982 31.3961V27.1043C45.4982 25.6036 44.587 24.3308 43.2923 23.7759V21.9787C43.2923 16.8378 39.0999 12.6454 33.959 12.6454H29.4382V6.23014C29.4382 2.46746 25.6332 -0.237458 22.0532 1.11879L22.0523 1.11912L5.51215 7.36856L5.51148 7.36881C2.61289 8.46557 0.708984 11.2345 0.708984 14.3343V21.9787V23.8551V35.9995C0.708984 41.1404 4.90139 45.3329 10.0423 45.3329H33.959C39.0999 45.3329 43.2923 41.1404 43.2923 35.9995ZM41.8809 32.021H41.8362C41.8216 32.0206 41.807 32.0203 41.7923 32.0203H37.834C36.2458 32.0203 34.9421 30.8599 34.8288 29.5L34.8272 29.4823C34.7474 28.6444 35.0647 27.8557 35.6318 27.302L35.6415 27.2925L35.6587 27.2751C35.9919 26.9329 36.4131 26.6859 36.8912 26.5642C37.1104 26.5086 37.3415 26.4794 37.5815 26.4794H41.8809C42.2508 26.5022 42.4982 26.7925 42.4982 27.1043V31.3961C42.4982 31.7079 42.2508 31.9981 41.8809 32.021ZM11.584 21.4999C10.7556 21.4999 10.084 22.1714 10.084 22.9999C10.084 23.8283 10.7556 24.4999 11.584 24.4999H26.1673C26.9957 24.4999 27.6673 23.8283 27.6673 22.9999C27.6673 22.1714 26.9957 21.4999 26.1673 21.4999H11.584Z" fill="url(#paint0_linear_540_11784)"/>
<defs>
<linearGradient id="paint0_linear_540_11784" x1="0.708984" y1="23.0482" x2="45.4982" y2="23.0482" gradientUnits="userSpaceOnUse">
<stop stop-color="#FAAA3D"/>
<stop offset="0.174964" stop-color="#EF4023"/>
<stop offset="0.343952" stop-color="#C81F41"/>
<stop offset="0.590537" stop-color="#6D2774"/>
<stop offset="1" stop-color="#06A4D9"/>
</linearGradient>
</defs>
</svg>
