<svg width="50" height="50" viewBox="0 0 50 50" fill="none" xmlns="http://www.w3.org/2000/svg">
<path fill-rule="evenodd" clip-rule="evenodd" d="M5.66602 14.0422C5.66602 10.5202 6.14147 8.92244 6.97928 8.08463C7.81709 7.24682 9.41481 6.77136 12.9368 6.77136H34.8743C38.3964 6.77136 39.9941 7.24682 40.8319 8.08463C41.6697 8.92244 42.1452 10.5202 42.1452 14.0422C42.1452 14.8706 42.8168 15.5422 43.6452 15.5422C44.4736 15.5422 45.1452 14.8706 45.1452 14.0422C45.1452 10.5434 44.7456 7.75571 42.9532 5.96331C41.1608 4.17091 38.3731 3.77136 34.8743 3.77136H12.9368C9.43806 3.77136 6.65036 4.17091 4.85796 5.96331C3.06556 7.75571 2.66602 10.5434 2.66602 14.0422V26.5422C2.66602 26.6659 2.66652 26.7888 2.66756 26.9107C2.66653 26.9335 2.66602 26.9564 2.66602 26.9794C2.66602 27.0134 2.66715 27.0471 2.66938 27.0806C2.71118 30.3273 3.15848 32.9216 4.85796 34.6211C6.65036 36.4135 9.43806 36.813 12.9368 36.813H19.333V43.2284H14.041C13.2126 43.2284 12.541 43.9 12.541 44.7284C12.541 45.5568 13.2126 46.2284 14.041 46.2284H20.7626C20.7859 46.2295 20.8094 46.23 20.833 46.23C21.6614 46.23 22.333 45.5584 22.333 44.73V35.3134C22.333 34.8942 22.1611 34.5152 21.8839 34.243C21.6132 33.9771 21.2421 33.813 20.8327 33.813H12.9368C9.41481 33.813 7.81709 33.3376 6.97928 32.4998C6.31359 31.8341 5.87667 30.6886 5.72524 28.4794H20.8327C21.6611 28.4794 22.3327 27.8078 22.3327 26.9794C22.3327 26.1509 21.6611 25.4794 20.8327 25.4794H5.66602V14.0422ZM36.4577 22.3339C33.259 22.3339 30.666 24.9269 30.666 28.1255C30.666 31.3242 33.259 33.9172 36.4577 33.9172C39.6563 33.9172 42.2494 31.3242 42.2494 28.1255C42.2494 24.9269 39.6563 22.3339 36.4577 22.3339ZM27.666 28.1255C27.666 23.27 31.6022 19.3339 36.4577 19.3339C41.3132 19.3339 45.2494 23.27 45.2494 28.1255C45.2494 31.0538 43.8178 33.6476 41.6163 35.2454L45.1893 47.4959C45.3572 48.0714 45.1663 48.6915 44.7039 49.073C44.2415 49.4544 43.5964 49.524 43.0633 49.2498L36.4577 45.8526L29.852 49.2498C29.319 49.524 28.6738 49.4544 28.2115 49.073C27.7491 48.6915 27.5582 48.0714 27.726 47.4959L31.2991 35.2454C29.0976 33.6476 27.666 31.0538 27.666 28.1255ZM34.0351 36.5792L31.583 44.9861L35.7717 42.832C36.2022 42.6105 36.7132 42.6105 37.1437 42.832L41.3323 44.9861L38.8803 36.5792C38.1107 36.7993 37.298 36.9172 36.4577 36.9172C35.6174 36.9172 34.8046 36.7993 34.0351 36.5792Z" fill="url(#paint0_linear_504_16726)"/>
<defs>
<linearGradient id="paint0_linear_504_16726" x1="2.66602" y1="26.5936" x2="45.2494" y2="26.5936" gradientUnits="userSpaceOnUse">
<stop stop-color="#FAAA3D"/>
<stop offset="0.174964" stop-color="#EF4023"/>
<stop offset="0.343952" stop-color="#C81F41"/>
<stop offset="0.590537" stop-color="#6D2774"/>
<stop offset="1" stop-color="#06A4D9"/>
</linearGradient>
</defs>
</svg>
