<svg width="46" height="46" viewBox="0 0 46 46" fill="none" xmlns="http://www.w3.org/2000/svg">
<path fill-rule="evenodd" clip-rule="evenodd" d="M14.0112 6.7719C12.5207 8.6222 11.9993 11.3087 11.9993 14.6669V17.3362C12.1916 17.334 12.3861 17.3329 12.5827 17.3329H33.416C33.6126 17.3329 33.807 17.334 33.9993 17.3362V14.6669C33.9993 11.3087 33.4778 8.6222 31.9874 6.7719C30.5534 4.99168 27.9509 3.66687 22.9993 3.66687C18.0477 3.66687 15.4452 4.99168 14.0112 6.7719ZM36.9993 17.5042V14.6669C36.9993 11.1292 36.479 7.56571 34.3237 4.88996C32.1118 2.14414 28.4643 0.66687 22.9993 0.66687C17.5342 0.66687 13.8867 2.14414 11.6749 4.88996C9.51949 7.56571 8.99927 11.1292 8.99927 14.6669V17.5042C6.55481 17.7821 4.59587 18.4484 3.18869 19.8556C1.14918 21.8951 0.666016 25.0936 0.666016 29.2496V33.4162C0.666016 37.5722 1.14918 40.7707 3.18869 42.8102C5.2282 44.8497 8.42674 45.3329 12.5827 45.3329H33.416C37.572 45.3329 40.7705 44.8497 42.81 42.8102C44.8495 40.7707 45.3327 37.5722 45.3327 33.4162V29.2496C45.3327 25.0936 44.8495 21.8951 42.81 19.8556C41.4028 18.4483 39.4438 17.7821 36.9993 17.5042ZM22.9993 27.6249C20.9513 27.6249 19.291 29.2852 19.291 31.3332C19.291 33.3813 20.9513 35.0415 22.9993 35.0415C25.0474 35.0415 26.7077 33.3813 26.7077 31.3332C26.7077 29.2852 25.0474 27.6249 22.9993 27.6249ZM16.291 31.3332C16.291 27.6283 19.2944 24.6249 22.9993 24.6249C26.7043 24.6249 29.7077 27.6283 29.7077 31.3332C29.7077 35.0381 26.7043 38.0415 22.9993 38.0415C19.2944 38.0415 16.291 35.0381 16.291 31.3332ZM3.66602 29.2496C3.66602 25.0722 4.22452 23.0624 5.31001 21.9769C6.3955 20.8914 8.4053 20.3329 12.5827 20.3329H33.416C37.5934 20.3329 39.6032 20.8914 40.6887 21.9769C41.7742 23.0624 42.3327 25.0722 42.3327 29.2496V33.4162C42.3327 37.5936 41.7742 39.6034 40.6887 40.6889C39.6032 41.7744 37.5934 42.3329 33.416 42.3329H12.5827C8.4053 42.3329 6.3955 41.7744 5.31001 40.6889C4.22452 39.6034 3.66602 37.5936 3.66602 33.4162V29.2496Z" fill="url(#paint0_linear_540_11790)"/>
<defs>
<linearGradient id="paint0_linear_540_11790" x1="0.666015" y1="22.9999" x2="45.3327" y2="22.9999" gradientUnits="userSpaceOnUse">
<stop stop-color="#FAAA3D"/>
<stop offset="0.174964" stop-color="#EF4023"/>
<stop offset="0.343952" stop-color="#C81F41"/>
<stop offset="0.590537" stop-color="#6D2774"/>
<stop offset="1" stop-color="#06A4D9"/>
</linearGradient>
</defs>
</svg>
