<svg width="46" height="46" viewBox="0 0 46 46" fill="none" xmlns="http://www.w3.org/2000/svg">
<path fill-rule="evenodd" clip-rule="evenodd" d="M16.7493 3.66621H25.666V10.4995C25.666 13.7076 26.1813 16.3237 27.9283 18.0706C29.6752 19.8175 32.2913 20.3329 35.4993 20.3329H42.3325V25.0832C42.3325 25.9116 43.0041 26.5832 43.8325 26.5832C44.6609 26.5832 45.3325 25.9116 45.3325 25.0832V18.858C45.3339 18.7723 45.328 18.6869 45.3149 18.6027C45.2921 18.4549 45.2477 18.3142 45.1851 18.1839C45.1131 18.0338 45.0154 17.8943 44.8933 17.7722L28.2274 1.1063L28.2267 1.10555C28.1948 1.07369 28.1618 1.04349 28.1276 1.01497C27.8726 0.801767 27.5577 0.682612 27.2346 0.667752C27.2079 0.666522 27.181 0.666007 27.1542 0.666212H16.7493C11.3931 0.666212 7.25346 1.72828 4.49077 4.49097C1.72808 7.25366 0.666016 11.3933 0.666016 16.7495V29.2495C0.666016 34.6058 1.72808 38.7454 4.49077 41.5081C7.25346 44.2708 11.3931 45.3329 16.7493 45.3329C17.5778 45.3329 18.2493 44.6613 18.2493 43.8329C18.2493 43.0045 17.5778 42.3329 16.7493 42.3329C11.689 42.3329 8.5369 41.3116 6.61209 39.3868C4.68728 37.462 3.66602 34.3099 3.66602 29.2495V16.7495C3.66602 11.6892 4.68728 8.5371 6.61209 6.61229C8.5369 4.68748 11.689 3.66621 16.7493 3.66621ZM28.666 5.78753V10.4995C28.666 13.5414 29.1924 15.0921 30.0496 15.9493C30.9068 16.8065 32.4574 17.3329 35.4993 17.3329H40.2114L28.666 5.78753ZM36.7893 26.5951C38.4738 27.5838 39.7712 29.2461 40.3845 31.5455C45.3841 33.0065 47.1518 39.8861 43.0416 43.4926C41.7368 44.6842 40.0025 45.3333 38.2493 45.3333H26.666C26.6299 45.3333 26.5938 45.332 26.5578 45.3294C20.4352 44.8865 19.8648 36.7802 24.8468 34.9096C24.4759 32.8663 24.8266 31.0176 25.7186 29.4941C26.8255 27.6033 28.6842 26.3525 30.6762 25.8303C32.6682 25.308 34.9005 25.4864 36.7893 26.5951ZM27.2132 37.4747C27.0044 37.5495 26.7899 37.5751 26.5825 37.5576C23.7512 37.941 23.7988 42.0762 26.7254 42.3333H38.2493C39.2815 42.3333 40.2911 41.9454 41.0264 41.2702C41.0357 41.2616 41.0452 41.2532 41.0547 41.2448C43.5179 39.0951 42.1705 34.7031 38.9391 34.301C38.2802 34.219 37.7536 33.7136 37.6447 33.0586C37.3034 31.0064 36.3476 29.8144 35.2706 29.1823C34.1581 28.5292 32.7628 28.3846 31.437 28.7322C30.1114 29.0798 28.9622 29.8915 28.3075 31.0098C27.6735 32.0927 27.4204 33.6025 28.1199 35.557C28.3991 36.3369 27.9932 37.1956 27.2132 37.4747Z" fill="url(#paint0_linear_540_11800)"/>
<defs>
<linearGradient id="paint0_linear_540_11800" x1="0.666015" y1="22.9998" x2="45.3327" y2="22.9998" gradientUnits="userSpaceOnUse">
<stop stop-color="#FAAA3D"/>
<stop offset="0.174964" stop-color="#EF4023"/>
<stop offset="0.343952" stop-color="#C81F41"/>
<stop offset="0.590537" stop-color="#6D2774"/>
<stop offset="1" stop-color="#06A4D9"/>
</linearGradient>
</defs>
</svg>
