<svg width="24" height="24" viewBox="0 0 24 24" fill="none" xmlns="http://www.w3.org/2000/svg">
<path fill-rule="evenodd" clip-rule="evenodd" d="M12.2785 1.30364C12.0997 1.23212 11.9003 1.23212 11.7215 1.30364L1.72146 5.30364C1.43671 5.41754 1.25 5.69332 1.25 6V11C1.25 11.4142 1.58579 11.75 2 11.75H3.25V17.25H3C2.03579 17.25 1.25 18.0358 1.25 19V21.25H1C0.585786 21.25 0.25 21.5858 0.25 22C0.25 22.4142 0.585786 22.75 1 22.75H2H22H23C23.4142 22.75 23.75 22.4142 23.75 22C23.75 21.5858 23.4142 21.25 23 21.25H22.75V19C22.75 18.0358 21.9642 17.25 21 17.25H20.75V11.75H22C22.4142 11.75 22.75 11.4142 22.75 11V6C22.75 5.69332 22.5633 5.41754 22.2785 5.30364L12.2785 1.30364ZM4.75 17.25V11.75H7.25V17.25H4.75ZM8.75 17.25V11.75H11.25V17.25H8.75ZM12.75 17.25V11.75H15.25V17.25H12.75ZM16.75 17.25V11.75H19.25V17.25H16.75ZM21.25 19V21.25H2.75V19C2.75 18.8642 2.86421 18.75 3 18.75H4H8H12H16H20H21C21.1358 18.75 21.25 18.8642 21.25 19ZM2.75 10.25V6.50777L12 2.80778L21.25 6.50778V10.25H20H16H12H8H4H2.75ZM11.25 7C11.25 6.58579 11.5858 6.25 12 6.25C12.4142 6.25 12.75 6.58579 12.75 7C12.75 7.41421 12.4142 7.75 12 7.75C11.5858 7.75 11.25 7.41421 11.25 7ZM12 4.75C10.7574 4.75 9.75 5.75736 9.75 7C9.75 8.24264 10.7574 9.25 12 9.25C13.2426 9.25 14.25 8.24264 14.25 7C14.25 5.75736 13.2426 4.75 12 4.75Z" fill="url(#paint0_linear_538_8270)"/>
<defs>
<linearGradient id="paint0_linear_538_8270" x1="0.25" y1="12" x2="23.75" y2="12" gradientUnits="userSpaceOnUse">
<stop stop-color="#FAAA3D"/>
<stop offset="0.174964" stop-color="#EF4023"/>
<stop offset="0.343952" stop-color="#C81F41"/>
<stop offset="0.590537" stop-color="#6D2774"/>
<stop offset="1" stop-color="#06A4D9"/>
</linearGradient>
</defs>
</svg>
