<svg width="46" height="46" viewBox="0 0 46 46" fill="none" xmlns="http://www.w3.org/2000/svg">
<path fill-rule="evenodd" clip-rule="evenodd" d="M15.3525 2.33301C16.181 2.33301 16.8525 3.00458 16.8525 3.83301V6.21024C17.3538 6.18096 17.8699 6.16699 18.4003 6.16699H21.5005V3.83301C21.5005 3.00458 22.1721 2.33301 23.0005 2.33301C23.8289 2.33301 24.5005 3.00458 24.5005 3.83301V6.16699H27.6003C28.1374 6.16699 28.6598 6.18131 29.167 6.21135V3.83301C29.167 3.00458 29.8386 2.33301 30.667 2.33301C31.4954 2.33301 32.167 3.00458 32.167 3.83301V6.62404C34.0641 7.06549 35.6576 7.85294 36.9026 9.098C38.1476 10.3429 38.935 11.9362 39.3765 13.833H42.1673C42.9957 13.833 43.6673 14.5046 43.6673 15.333C43.6673 16.1614 42.9957 16.833 42.1673 16.833H39.7893C39.8193 17.3404 39.8337 17.8631 39.8337 18.4003V21.5H42.1673C42.9957 21.5 43.6673 22.1716 43.6673 23C43.6673 23.8284 42.9957 24.5 42.1673 24.5H39.8337V27.6003C39.8337 28.1374 39.8193 28.6598 39.7893 29.167H42.1673C42.9957 29.167 43.6673 29.8386 43.6673 30.667C43.6673 31.4954 42.9957 32.167 42.1673 32.167H39.3766C38.9352 34.0641 38.1477 35.6576 36.9026 36.9026C35.6576 38.1477 34.0641 38.9352 32.167 39.3766V42.1663C32.167 42.9948 31.4954 43.6663 30.667 43.6663C29.8386 43.6663 29.167 42.9948 29.167 42.1663V39.7893C28.6598 39.8193 28.1374 39.8337 27.6003 39.8337H24.519V42.1663C24.519 42.9948 23.8475 43.6663 23.019 43.6663C22.1906 43.6663 21.519 42.9948 21.519 42.1663V39.8337H18.4003C17.8699 39.8337 17.3538 39.8197 16.8525 39.7904V42.1663C16.8525 42.9948 16.181 43.6663 15.3525 43.6663C14.5241 43.6663 13.8525 42.9948 13.8525 42.1663V39.381C11.9471 38.9404 10.3472 38.1518 9.098 36.9026C7.85294 35.6576 7.06549 34.0641 6.62404 32.167H3.83398C3.00556 32.167 2.33398 31.4954 2.33398 30.667C2.33398 29.8386 3.00556 29.167 3.83398 29.167H6.21135C6.18131 28.6598 6.16699 28.1374 6.16699 27.6003V24.5H3.83398C3.00556 24.5 2.33398 23.8284 2.33398 23C2.33398 22.1716 3.00556 21.5 3.83398 21.5H6.16699V18.4003C6.16699 17.8631 6.18133 17.3404 6.21139 16.833H3.83398C3.00556 16.833 2.33398 16.1614 2.33398 15.333C2.33398 14.5046 3.00556 13.833 3.83398 13.833H6.6242C7.06567 11.9362 7.85308 10.3429 9.098 9.098C10.3472 7.84881 11.9471 7.06027 13.8525 6.61967V3.83301C13.8525 3.00458 14.5241 2.33301 15.3525 2.33301ZM9.16699 27.6003V23.0315C9.16721 23.0211 9.16732 23.0105 9.16732 23C9.16732 22.9895 9.16721 22.9789 9.16699 22.9685V18.4003C9.16699 14.7149 9.91326 12.5254 11.2193 11.2193C12.5254 9.91326 14.7149 9.16699 18.4003 9.16699H27.6003C31.2857 9.16699 33.4753 9.91326 34.7813 11.2193C36.0874 12.5254 36.8337 14.7149 36.8337 18.4003V27.6003C36.8337 31.2857 36.0874 33.4753 34.7813 34.7813C33.4753 36.0874 31.2857 36.8337 27.6003 36.8337H23.0636L23.0385 36.8331L23.019 36.833C23.0041 36.833 22.9893 36.8332 22.9745 36.8337H18.4003C14.7149 36.8337 12.5254 36.0874 11.2193 34.7813C9.91326 33.4753 9.16699 31.2857 9.16699 27.6003ZM20.1253 11.917C17.5815 11.917 15.4107 12.4166 13.9136 13.9136C12.4166 15.4107 11.917 17.5815 11.917 20.1253V25.8753C11.917 28.4191 12.4166 30.59 13.9136 32.087C15.4107 33.5841 17.5815 34.0837 20.1253 34.0837H25.8753C28.4191 34.0837 30.59 33.5841 32.087 32.087C33.5841 30.59 34.0837 28.4191 34.0837 25.8753V20.1253C34.0837 17.5815 33.5841 15.4107 32.087 13.9136C30.59 12.4166 28.4191 11.917 25.8753 11.917H20.1253ZM14.917 20.1253C14.917 17.8774 15.3758 16.6941 16.0349 16.0349C16.6941 15.3758 17.8774 14.917 20.1253 14.917H25.8753C28.1232 14.917 29.3065 15.3758 29.9657 16.0349C30.6249 16.6941 31.0837 17.8774 31.0837 20.1253V25.8753C31.0837 28.1232 30.6249 29.3065 29.9657 29.9657C29.3065 30.6249 28.1232 31.0837 25.8753 31.0837H20.1253C17.8774 31.0837 16.6941 30.6249 16.0349 29.9657C15.3758 29.3065 14.917 28.1232 14.917 25.8753V20.1253Z" fill="url(#paint0_linear_391_3302)"/>
<defs>
<linearGradient id="paint0_linear_391_3302" x1="2.33398" y1="22.9997" x2="43.6673" y2="22.9997" gradientUnits="userSpaceOnUse">
<stop stop-color="#FAAA3D"/>
<stop offset="0.174964" stop-color="#EF4023"/>
<stop offset="0.343952" stop-color="#C81F41"/>
<stop offset="0.590537" stop-color="#6D2774"/>
<stop offset="1" stop-color="#06A4D9"/>
</linearGradient>
</defs>
</svg>
