<svg width="46" height="46" viewBox="0 0 46 46" fill="none" xmlns="http://www.w3.org/2000/svg">
<path fill-rule="evenodd" clip-rule="evenodd" d="M21.5798 5.83681C22.3354 5.19073 23.6753 5.18023 24.4632 5.8394L27.4809 8.43696L27.4834 8.43906C27.9445 8.83796 28.5276 9.14171 29.074 9.34584C29.6214 9.55037 30.2639 9.70426 30.8783 9.70426H34.1367C35.3399 9.70426 36.3358 10.7002 36.3358 11.9034V15.1618C36.3358 15.7686 36.4907 16.4112 36.6933 16.9564C36.8956 17.5008 37.1988 18.0917 37.6009 18.5566L37.6031 18.5592L40.2033 21.5799L40.2045 21.5813C40.8494 22.3371 40.8595 23.6759 40.2007 24.4633L37.6031 27.481L37.6015 27.4829C37.2024 27.9441 36.8985 28.5275 36.6942 29.0741C36.4897 29.6215 36.3358 30.264 36.3358 30.8784V34.1368C36.3358 35.34 35.3399 36.3359 34.1367 36.3359H30.8783C30.2715 36.3359 29.6289 36.4908 29.0837 36.6934C28.539 36.8958 27.9478 37.1992 27.4828 37.6016L27.4809 37.6032L24.4602 40.2034L24.4586 40.2047C23.7027 40.8495 22.3642 40.8595 21.5768 40.2008L18.5591 37.6032L18.5573 37.6017C18.0961 37.2025 17.5127 36.8986 16.966 36.6943C16.4186 36.4898 15.7761 36.3359 15.1617 36.3359H11.8458C10.6426 36.3359 9.64667 35.34 9.64667 34.1368V30.8593C9.64667 30.2514 9.49128 29.6136 9.29224 29.0759C9.09244 28.5362 8.79759 27.9595 8.41733 27.5031L8.41738 27.5031L8.40844 27.4926L5.82573 24.4507L5.82377 24.4484C5.18374 23.6843 5.18374 22.3559 5.82377 21.5918L5.82573 21.5894L8.40844 18.5476L8.40849 18.5476L8.41733 18.537C8.79759 18.0807 9.09244 17.504 9.29224 16.9642C9.49128 16.4265 9.64667 15.7888 9.64667 15.1809V11.8843C9.64667 10.681 10.6426 9.68509 11.8458 9.68509H15.1617C15.7685 9.68509 16.4111 9.53021 16.9563 9.32762C17.5 9.12561 18.09 8.82298 18.5545 8.42174L21.5794 5.83717L21.5798 5.83681ZM26.4017 3.54982C24.5057 1.95178 21.5184 1.94252 19.6306 3.55635L19.6302 3.55671L16.6023 6.14385L16.6022 6.14382L16.5943 6.15072C16.4845 6.24585 16.2429 6.39231 15.9114 6.51548C15.5797 6.63873 15.3023 6.68509 15.1617 6.68509H11.8458C8.98574 6.68509 6.64667 9.02416 6.64667 11.8843V15.1809C6.64667 15.3206 6.60081 15.5932 6.4788 15.9228C6.35889 16.2468 6.21478 16.4924 6.11594 16.6125L3.53406 19.6534L3.53404 19.6534L3.52927 19.6591C1.94858 21.5396 1.94858 24.5006 3.52927 26.3811L3.52926 26.3811L3.53406 26.3868L6.1159 29.4276C6.21475 29.5478 6.35888 29.7934 6.4788 30.1174C6.60081 30.447 6.64667 30.7196 6.64667 30.8593V34.1368C6.64667 36.9968 8.98574 39.3359 11.8458 39.3359H15.1617C15.3139 39.3359 15.5914 39.3833 15.916 39.5046C16.2408 39.6259 16.4807 39.7719 16.5943 39.8703L16.5981 39.8736L19.6264 42.4803L19.6383 42.4904C21.5344 44.0885 24.5221 44.0977 26.4098 42.4835L26.4136 42.4803L29.4419 39.8736L29.4457 39.8703C29.5555 39.7752 29.7972 39.6287 30.1286 39.5055C30.4603 39.3823 30.7377 39.3359 30.8783 39.3359H34.1367C36.9968 39.3359 39.3358 36.9969 39.3358 34.1368V30.8784C39.3358 30.7262 39.3832 30.4487 39.5045 30.124C39.6258 29.7993 39.7718 29.5594 39.8702 29.4458L39.8735 29.442L42.4802 26.4136L42.4903 26.4018C44.0884 24.5057 44.0976 21.518 42.4834 19.6303L42.4802 19.6265L39.8735 16.5982L39.8702 16.5944C39.7751 16.4846 39.6286 16.2429 39.5054 15.9115C39.3822 15.5798 39.3358 15.3024 39.3358 15.1618V11.9034C39.3358 9.04333 36.9968 6.70426 34.1367 6.70426H30.8783C30.7261 6.70426 30.4486 6.6569 30.124 6.53559C29.7992 6.41425 29.5593 6.26829 29.4457 6.16988L29.4419 6.16657L26.4136 3.55991L26.4017 3.54982ZM31.0009 19.4209C31.5861 18.8345 31.5851 17.8848 30.9987 17.2996C30.4123 16.7144 29.4626 16.7154 28.8774 17.3018L20.6828 25.5134L17.1254 21.9412C16.5408 21.3542 15.591 21.3522 15.004 21.9368C14.417 22.5214 14.4151 23.4711 14.9996 24.0581L19.6188 28.6965C19.9001 28.9789 20.2823 29.1378 20.6809 29.138C21.0795 29.1382 21.4618 28.9797 21.7434 28.6976L31.0009 19.4209Z" fill="url(#paint0_linear_391_3346)"/>
<defs>
<linearGradient id="paint0_linear_391_3346" x1="2.34375" y1="23.0201" x2="43.6915" y2="23.0201" gradientUnits="userSpaceOnUse">
<stop stop-color="#FAAA3D"/>
<stop offset="0.174964" stop-color="#EF4023"/>
<stop offset="0.343952" stop-color="#C81F41"/>
<stop offset="0.590537" stop-color="#6D2774"/>
<stop offset="1" stop-color="#06A4D9"/>
</linearGradient>
</defs>
</svg>
