<svg width="46" height="46" viewBox="0 0 46 46" fill="none" xmlns="http://www.w3.org/2000/svg">
<path fill-rule="evenodd" clip-rule="evenodd" d="M17.2507 2.33301C12.311 2.33301 8.46309 3.31174 5.88791 5.88693C3.31272 8.46212 2.33398 12.3101 2.33398 17.2497V28.7497C2.33398 33.6893 3.31272 37.5372 5.88791 40.1124C8.46309 42.6876 12.311 43.6663 17.2507 43.6663H28.7507C33.6903 43.6663 37.5382 42.6876 40.1134 40.1124C42.6886 37.5372 43.6673 33.6893 43.6673 28.7497V17.2497C43.6673 12.3101 42.6886 8.46212 40.1134 5.88693C37.5382 3.31174 33.6903 2.33301 28.7507 2.33301H17.2507ZM5.33398 17.2497C5.33398 12.606 6.27192 9.74556 8.00923 8.00825C9.74654 6.27094 12.6069 5.33301 17.2507 5.33301H28.7507C33.3944 5.33301 36.2548 6.27094 37.9921 8.00825C39.7294 9.74556 40.6673 12.606 40.6673 17.2497V19.4111H29.0112C28.9776 19.1634 28.9277 18.9141 28.8599 18.6644C28.3183 16.6114 26.666 14.9602 24.6124 14.4202C20.9088 13.4371 17.4758 15.9438 16.9976 19.4111H5.33398V17.2497ZM5.33398 22.4111V28.7497C5.33398 33.3934 6.27192 36.2538 8.00923 37.9911C9.74654 39.7284 12.6069 40.6663 17.2507 40.6663H28.7507C33.3944 40.6663 36.2548 39.7284 37.9921 37.9911C39.7294 36.2538 40.6673 33.3934 40.6673 28.7497V22.4111H28.6591C28.2875 23.3823 27.6717 24.2241 26.8984 24.8731V27.9071C26.8984 30.0581 25.1535 31.803 23.0026 31.803C20.8517 31.803 19.1068 30.0581 19.1068 27.9071V24.8731C18.3335 24.2241 17.7177 23.3823 17.3461 22.4111H5.33398ZM19.9409 20.2405C19.9409 18.298 21.7812 16.7718 23.8439 17.3201L23.8484 17.3213C24.8581 17.5864 25.695 18.4233 25.9601 19.433L25.9619 19.4399L25.9638 19.4468C26.0763 19.8593 26.09 20.2751 26.0259 20.6725L26.0235 20.6873L26.0214 20.7021C25.8956 21.5957 25.3647 22.3676 24.6074 22.8377L23.8984 23.2777V24.1121V27.9071C23.8984 28.4012 23.4967 28.803 23.0026 28.803C22.5085 28.803 22.1068 28.4012 22.1068 27.9071V24.1121V23.2777L21.3978 22.8377C20.6405 22.3676 20.1096 21.5957 19.9838 20.7021L19.9796 20.6725L19.9742 20.643C19.9537 20.5304 19.9409 20.3909 19.9409 20.2405Z" fill="url(#paint0_linear_391_3324)"/>
<defs>
<linearGradient id="paint0_linear_391_3324" x1="2.33398" y1="22.9997" x2="43.6673" y2="22.9997" gradientUnits="userSpaceOnUse">
<stop stop-color="#FAAA3D"/>
<stop offset="0.174964" stop-color="#EF4023"/>
<stop offset="0.343952" stop-color="#C81F41"/>
<stop offset="0.590537" stop-color="#6D2774"/>
<stop offset="1" stop-color="#06A4D9"/>
</linearGradient>
</defs>
</svg>
