<svg width="46" height="46" viewBox="0 0 46 46" fill="none" xmlns="http://www.w3.org/2000/svg">
<path fill-rule="evenodd" clip-rule="evenodd" d="M5.33398 22.9997C5.33398 13.2481 13.2491 5.33301 23.0007 5.33301C32.7522 5.33301 40.6673 13.2481 40.6673 22.9997C40.6673 32.7513 32.7522 40.6663 23.0007 40.6663C13.2491 40.6663 5.33398 32.7513 5.33398 22.9997ZM23.0007 2.33301C11.5922 2.33301 2.33398 11.5912 2.33398 22.9997C2.33398 34.4081 11.5922 43.6663 23.0007 43.6663C34.4091 43.6663 43.6673 34.4081 43.6673 22.9997C43.6673 11.5912 34.4091 2.33301 23.0007 2.33301ZM23.7913 14.3945C23.7913 13.5661 23.1197 12.8945 22.2913 12.8945C21.4628 12.8945 20.7913 13.5661 20.7913 14.3945V22.2529C20.7913 23.1795 21.1048 24.1052 21.5393 24.8671C21.9733 25.6281 22.6088 26.3675 23.4025 26.8386L23.4049 26.84L29.3426 30.3834C30.0539 30.808 30.9748 30.5754 31.3993 29.864C31.8239 29.1527 31.5913 28.2318 30.8799 27.8073L24.9383 24.2615L24.9343 24.2591C24.6941 24.1168 24.3913 23.8123 24.1453 23.3809C23.8994 22.9496 23.7913 22.5337 23.7913 22.2529V14.3945Z" fill="url(#paint0_linear_391_3336)"/>
<defs>
<linearGradient id="paint0_linear_391_3336" x1="2.33398" y1="22.9997" x2="43.6673" y2="22.9997" gradientUnits="userSpaceOnUse">
<stop stop-color="#FAAA3D"/>
<stop offset="0.174964" stop-color="#EF4023"/>
<stop offset="0.343952" stop-color="#C81F41"/>
<stop offset="0.590537" stop-color="#6D2774"/>
<stop offset="1" stop-color="#06A4D9"/>
</linearGradient>
</defs>
</svg>
