<svg width="46" height="46" viewBox="0 0 46 46" fill="none" xmlns="http://www.w3.org/2000/svg">
<path fill-rule="evenodd" clip-rule="evenodd" d="M16.0434 6.63703C16.8149 6.17807 17.8573 6.43223 18.3535 7.25833L18.556 7.60808L18.5576 7.61098C19.5802 9.39308 21.138 10.619 23.003 10.619C24.8668 10.619 26.4291 9.39449 27.4609 7.61429L27.4613 7.61365L27.667 7.25833C28.1631 6.43223 29.2056 6.17807 29.977 6.63703L29.999 6.64982L33.3148 8.54732L33.3156 8.54779C34.3343 9.12988 34.6854 10.4497 34.1031 11.4585C33.0714 13.239 32.7876 15.2028 33.7185 16.8182C34.6495 18.4338 36.4907 19.1721 38.5448 19.1721C39.7149 19.1721 40.6865 20.1348 40.6865 21.3138V24.6871C40.6865 25.8571 39.7238 26.8288 38.5448 26.8288C36.4907 26.8288 34.6495 27.567 33.7185 29.1826C32.7882 30.797 33.071 32.7592 34.101 34.5388C34.6884 35.5709 34.3317 36.8725 33.3156 37.4531L33.3148 37.4535L29.999 39.351L29.977 39.3638C29.2056 39.8228 28.1631 39.5686 27.667 38.7425L27.4645 38.3928L27.4626 38.3895C26.4401 36.6076 24.8823 35.3819 23.0174 35.3819C21.1537 35.3819 19.5914 36.6064 18.5596 38.3866L18.5592 38.3872L18.3535 38.7425C17.8574 39.5686 16.8149 39.8228 16.0434 39.3638L16.0215 39.351L12.7057 37.4535L12.7049 37.4531C11.6861 36.8709 11.335 35.551 11.9175 34.5422C12.9491 32.7617 13.2329 30.798 12.302 29.1826C11.371 27.567 9.52981 26.8288 7.47565 26.8288C6.29671 26.8288 5.33398 25.8571 5.33398 24.6871V21.3138C5.33398 20.1437 6.29671 19.1721 7.47565 19.1721C9.52981 19.1721 11.371 18.4338 12.302 16.8182C13.2329 15.2028 12.9491 13.239 11.9174 11.4585C11.3351 10.4497 11.6862 9.12989 12.7049 8.54779L12.7057 8.54732L16.0215 6.64982L16.0434 6.63703ZM20.9356 5.73098C19.6308 3.53782 16.7745 2.7202 14.5215 4.05173L11.2164 5.94306L11.2161 5.94323L11.2156 5.94352C8.74684 7.35485 7.90988 10.5191 9.32019 12.96L9.32122 12.9618C10.0332 14.1901 9.91195 14.9572 9.70267 15.3203C9.49326 15.6837 8.89066 16.1721 7.47565 16.1721C4.6296 16.1721 2.33398 18.4971 2.33398 21.3138V24.6871C2.33398 27.5037 4.6296 29.8288 7.47565 29.8288C8.89066 29.8288 9.49326 30.3171 9.70267 30.6805C9.91195 31.0437 10.0332 31.8107 9.32122 33.039L9.32019 33.0408C7.90988 35.4818 8.74684 38.646 11.2156 40.0573L11.2164 40.0578L14.5215 41.9491C16.7745 43.2806 19.6308 42.463 20.9356 40.2699L20.9446 40.2545L21.1551 39.891L21.1555 39.8903C21.8677 38.6619 22.5956 38.3819 23.0174 38.3819C23.437 38.3819 24.1593 38.6592 24.8618 39.8848L24.865 39.8903L25.0758 40.2545L25.0849 40.2699C26.3897 42.463 29.246 43.2806 31.499 41.9491L34.804 40.0578L34.8048 40.0573C37.2754 38.645 38.1069 35.5024 36.7039 33.047L36.6992 33.039C35.9873 31.8107 36.1085 31.0437 36.3178 30.6805C36.5272 30.3171 37.1298 29.8288 38.5448 29.8288C41.3909 29.8288 43.6865 27.5037 43.6865 24.6871V21.3138C43.6865 18.4677 41.3614 16.1721 38.5448 16.1721C37.1298 16.1721 36.5272 15.6837 36.3178 15.3203C36.1085 14.9572 35.9873 14.1901 36.6992 12.9618L36.7003 12.96C38.1106 10.5191 37.2736 7.35485 34.8048 5.94352L34.8046 5.94336L34.804 5.94306L31.499 4.05171C29.2459 2.72021 26.3897 3.53782 25.0849 5.73098L25.0758 5.74636L24.8654 6.10988L24.865 6.11053C24.1528 7.33895 23.4249 7.61896 23.003 7.61896C22.5835 7.61896 21.8612 7.34159 21.1587 6.11609L21.1555 6.11053L20.9446 5.74637L20.9356 5.73098ZM18.7505 23C18.7505 20.6528 20.6533 18.75 23.0005 18.75C25.3477 18.75 27.2505 20.6528 27.2505 23C27.2505 25.3472 25.3477 27.25 23.0005 27.25C20.6533 27.25 18.7505 25.3472 18.7505 23ZM23.0005 15.75C18.9964 15.75 15.7505 18.9959 15.7505 23C15.7505 27.0041 18.9964 30.25 23.0005 30.25C27.0046 30.25 30.2505 27.0041 30.2505 23C30.2505 18.9959 27.0046 15.75 23.0005 15.75Z" fill="url(#paint0_linear_391_3372)"/>
<defs>
<linearGradient id="paint0_linear_391_3372" x1="2.33398" y1="23.0004" x2="43.6865" y2="23.0004" gradientUnits="userSpaceOnUse">
<stop stop-color="#FAAA3D"/>
<stop offset="0.174964" stop-color="#EF4023"/>
<stop offset="0.343952" stop-color="#C81F41"/>
<stop offset="0.590537" stop-color="#6D2774"/>
<stop offset="1" stop-color="#06A4D9"/>
</linearGradient>
</defs>
</svg>
