<svg width="40" height="40" viewBox="0 0 40 40" fill="none" xmlns="http://www.w3.org/2000/svg">
<path d="M16.6673 28.2506H10.3507C4.73398 28.2506 3.33398 26.8506 3.33398 21.234V11.234C3.33398 5.61729 4.73398 4.21729 10.3507 4.21729H27.9007C33.5173 4.21729 34.9173 5.61729 34.9173 11.234" stroke="#06A4D9" stroke-width="2.5" stroke-linecap="round" stroke-linejoin="round"/>
<path d="M16.666 35.7838V28.2505" stroke="#06A4D9" stroke-width="2.5" stroke-linecap="round" stroke-linejoin="round"/>
<path d="M3.33398 21.5835H16.6673" stroke="#06A4D9" stroke-width="2.5" stroke-linecap="round" stroke-linejoin="round"/>
<path d="M11.2324 35.7827H16.6658" stroke="#06A4D9" stroke-width="2.5" stroke-linecap="round" stroke-linejoin="round"/>
<path d="M36.6661 21.3332V30.8499C36.6661 34.7999 35.6828 35.7832 31.7328 35.7832H25.8161C21.8661 35.7832 20.8828 34.7999 20.8828 30.8499V21.3332C20.8828 17.3832 21.8661 16.3999 25.8161 16.3999H31.7328C35.6828 16.3999 36.6661 17.3832 36.6661 21.3332Z" stroke="#06A4D9" stroke-width="2.5" stroke-linecap="round" stroke-linejoin="round"/>
<path d="M28.7402 30.4168H28.7552" stroke="#06A4D9" stroke-width="2.5" stroke-linecap="round" stroke-linejoin="round"/>
</svg>
