<svg width="40" height="40" viewBox="0 0 40 40" fill="none" xmlns="http://www.w3.org/2000/svg">
<path d="M32.1996 16.6663H7.81629C5.34962 16.6663 3.34961 14.6496 3.34961 12.1996V7.81629C3.34961 5.34962 5.36629 3.34961 7.81629 3.34961H32.1996C34.6663 3.34961 36.6663 5.36629 36.6663 7.81629V12.1996C36.6663 14.6496 34.6496 16.6663 32.1996 16.6663Z" stroke="#06A4D9" stroke-width="2.5" stroke-linecap="round" stroke-linejoin="round"/>
<path d="M32.1996 36.6663H7.81629C5.34962 36.6663 3.34961 34.6496 3.34961 32.1996V27.8163C3.34961 25.3496 5.36629 23.3496 7.81629 23.3496H32.1996C34.6663 23.3496 36.6663 25.3663 36.6663 27.8163V32.1996C36.6663 34.6496 34.6496 36.6663 32.1996 36.6663Z" stroke="#06A4D9" stroke-width="2.5" stroke-linecap="round" stroke-linejoin="round"/>
<path d="M10 8.3335V11.6668" stroke="#06A4D9" stroke-width="2.5" stroke-linecap="round" stroke-linejoin="round"/>
<path d="M16.666 8.3335V11.6668" stroke="#06A4D9" stroke-width="2.5" stroke-linecap="round" stroke-linejoin="round"/>
<path d="M10 28.3335V31.6668" stroke="#06A4D9" stroke-width="2.5" stroke-linecap="round" stroke-linejoin="round"/>
<path d="M16.666 28.3335V31.6668" stroke="#06A4D9" stroke-width="2.5" stroke-linecap="round" stroke-linejoin="round"/>
<path d="M23.334 10H30.0007" stroke="#06A4D9" stroke-width="2.5" stroke-linecap="round" stroke-linejoin="round"/>
<path d="M23.334 30H30.0007" stroke="#06A4D9" stroke-width="2.5" stroke-linecap="round" stroke-linejoin="round"/>
</svg>
