<svg width="40" height="40" viewBox="0 0 40 40" fill="none" xmlns="http://www.w3.org/2000/svg">
<path d="M12.084 11.6663H27.9173V8.33301C27.9173 4.99967 26.6673 3.33301 22.9173 3.33301H17.084C13.334 3.33301 12.084 4.99967 12.084 8.33301V11.6663Z" stroke="#06A4D9" stroke-width="2.5" stroke-miterlimit="10" stroke-linecap="round" stroke-linejoin="round"/>
<path d="M26.6673 25V31.6667C26.6673 35 25.0007 36.6667 21.6673 36.6667H18.334C15.0007 36.6667 13.334 35 13.334 31.6667V25H26.6673Z" stroke="#06A4D9" stroke-width="2.5" stroke-miterlimit="10" stroke-linecap="round" stroke-linejoin="round"/>
<path d="M35 16.667V25.0003C35 28.3337 33.3333 30.0003 30 30.0003H26.6667V25.0003H13.3333V30.0003H10C6.66667 30.0003 5 28.3337 5 25.0003V16.667C5 13.3337 6.66667 11.667 10 11.667H30C33.3333 11.667 35 13.3337 35 16.667Z" stroke="#06A4D9" stroke-width="2.5" stroke-miterlimit="10" stroke-linecap="round" stroke-linejoin="round"/>
<path d="M28.3327 25H26.316H11.666" stroke="#06A4D9" stroke-width="2.5" stroke-miterlimit="10" stroke-linecap="round" stroke-linejoin="round"/>
<path d="M11.666 18.333H16.666" stroke="#06A4D9" stroke-width="2.5" stroke-miterlimit="10" stroke-linecap="round" stroke-linejoin="round"/>
</svg>
