<svg width="40" height="40" viewBox="0 0 40 40" fill="none" xmlns="http://www.w3.org/2000/svg">
<path d="M10.6172 15.8501C3.81719 16.3335 3.83386 26.1834 10.6172 26.6668H26.7172C28.6672 26.6834 30.5506 25.9502 32.0006 24.6335C36.7672 20.4668 34.2172 12.1334 27.9339 11.3334C25.6839 -2.23325 6.03387 2.91679 10.6839 15.8501" stroke="#06A4D9" stroke-width="2.5" stroke-miterlimit="10" stroke-linecap="round" stroke-linejoin="round"/>
<path d="M20 26.6665V31.6665" stroke="#06A4D9" stroke-width="2.5" stroke-miterlimit="10" stroke-linecap="round" stroke-linejoin="round"/>
<path d="M19.9993 38.3332C21.8403 38.3332 23.3327 36.8408 23.3327 34.9998C23.3327 33.1589 21.8403 31.6665 19.9993 31.6665C18.1584 31.6665 16.666 33.1589 16.666 34.9998C16.666 36.8408 18.1584 38.3332 19.9993 38.3332Z" stroke="#06A4D9" stroke-width="2.5" stroke-miterlimit="10" stroke-linecap="round" stroke-linejoin="round"/>
<path d="M30.0007 35H23.334" stroke="#06A4D9" stroke-width="2.5" stroke-miterlimit="10" stroke-linecap="round" stroke-linejoin="round"/>
<path d="M16.6667 35H10" stroke="#06A4D9" stroke-width="2.5" stroke-miterlimit="10" stroke-linecap="round" stroke-linejoin="round"/>
</svg>
