<svg width="24" height="24" viewBox="0 0 24 24" fill="none" xmlns="http://www.w3.org/2000/svg">
<path fill-rule="evenodd" clip-rule="evenodd" d="M8.79365 4.05038C8.75117 4.37577 8.74996 4.74554 8.74996 5.2V5.25H15.25V5.2C15.25 4.74554 15.2488 4.37577 15.2063 4.05038C15.1647 3.73174 15.0898 3.51724 14.983 3.36267C14.7997 3.09751 14.3295 2.75 12.8 2.75H11.2C9.67045 2.75 9.20021 3.09751 9.01694 3.36267C8.91011 3.51724 8.83525 3.73174 8.79365 4.05038ZM7.24996 5.2V5.25H7.00003C4.777 5.25 3.25898 5.76457 2.37357 6.81723C1.49675 7.85967 1.41335 9.22917 1.55388 10.5061L2.30331 18.5L2.30324 18.5L2.3043 18.5099C2.41445 19.538 2.67248 20.6651 3.59042 21.5037C4.50156 22.3361 5.91318 22.75 8.00003 22.75H16C18.0869 22.75 19.4985 22.3361 20.4096 21.5037C21.3276 20.6651 21.5856 19.538 21.6958 18.5099L21.6958 18.5099L21.6968 18.5L22.3867 11.1403C22.3956 11.0936 22.4001 11.0462 22.4 10.9986L22.4462 10.5061C22.5867 9.22916 22.5033 7.85966 21.6265 6.81723C20.7411 5.76457 19.2231 5.25 17 5.25H16.75V5.2L16.75 5.17402V5.174C16.75 4.75047 16.75 4.28788 16.6936 3.85619C16.6353 3.40889 16.5101 2.93401 16.2169 2.50983C15.6002 1.61749 14.4705 1.25 12.8 1.25H11.2C9.52947 1.25 8.39971 1.61749 7.78298 2.50983C7.48981 2.93401 7.36467 3.40889 7.30627 3.85619C7.24991 4.28789 7.24994 4.75048 7.24996 5.17401L7.24996 5.2ZM20.9533 10.36L20.9317 10.5904C19.0387 11.9054 16.9259 12.7538 14.75 13.1467V13L14.75 12.9671V12.9671V12.9671V12.9671C14.75 12.746 14.7501 12.5219 14.7297 12.3391C14.709 12.1527 14.6537 11.843 14.4053 11.5947C14.1569 11.3463 13.8473 11.2909 13.6609 11.2702C13.478 11.2499 13.2539 11.2499 13.0328 11.25L13 11.25H11L10.9671 11.25C10.746 11.2499 10.5219 11.2499 10.339 11.2702C10.1526 11.2909 9.843 11.3463 9.59463 11.5947C9.34626 11.843 9.29088 12.1527 9.27017 12.3391C9.24986 12.5219 9.24991 12.746 9.24996 12.9671V12.9672L9.24996 13V13.1678C7.08463 12.8029 4.97409 11.9654 3.07612 10.6732L3.04676 10.36L3.04686 10.36L3.04548 10.3475C2.91699 9.18629 3.04977 8.3436 3.52149 7.78277C3.98608 7.23043 4.95307 6.75 7.00003 6.75H7.99996H16H17C19.047 6.75 20.014 7.23043 20.4786 7.78277C20.9503 8.3436 21.0831 9.18629 20.9546 10.3475L20.9545 10.3475L20.9533 10.36ZM3.25277 12.5575L3.79628 18.3549C3.89633 19.2843 4.10345 19.9407 4.60215 20.3963C5.1085 20.8589 6.06688 21.25 8.00003 21.25H16C17.9332 21.25 18.8916 20.8589 19.3979 20.3963C19.8966 19.9407 20.1037 19.2843 20.2038 18.3549L20.7539 12.4867C18.8704 13.6041 16.8244 14.3294 14.7332 14.6716C14.7276 14.7446 14.7203 14.8177 14.7105 14.8898C14.6696 15.1923 14.58 15.5357 14.3605 15.849C13.8926 16.5172 13.0664 16.75 12 16.75C10.9394 16.75 10.1153 16.5202 9.64557 15.8574C9.42471 15.5458 9.3333 15.2037 9.29118 14.901C9.28147 14.8312 9.27404 14.7605 9.26837 14.6898C7.17952 14.3725 5.13579 13.6565 3.25277 12.5575ZM10.75 14.0456C10.7501 14.3192 10.7529 14.5219 10.7769 14.6943C10.8004 14.8632 10.8377 14.9454 10.8694 14.9901C10.9046 15.0398 11.0805 15.25 12 15.25C12.9236 15.25 13.0973 15.0378 13.1319 14.9885C13.1637 14.9431 13.201 14.8596 13.2241 14.6887C13.2478 14.513 13.2499 14.3078 13.25 14.03C13.2499 14.0227 13.2499 14.0154 13.25 14.0081V14.0081V14.0081V14.008V14.008V14.008V14.0079V14.0079V14.0079V14.0078V14.0078V14.0078V14.0077V14.0077V14.0077V14.0076V14.0076V14.0076V14.0075V14.0075V14.0075V14.0075V14.0074V14.0074V14.0074V14.0073V14.0073V14.0073V14.0072V14.0072V14.0072V14.0071V14.0071V14.0071V14.007V14.007V14.007V14.0069V14.0069V14.0069V14.0068V14.0068V14.0068V14.0067V14.0067V14.0066V14.0066V14.0066V14.0065V14.0065V14.0065V14.0064V14.0064V14.0064V14.0063V14.0063V14.0063V14.0062V14.0062V14.0062V14.0061V14.0061V14.006V14.006V14.006V14.0059V14.0059V14.0059V14.0058V14.0058V14.0058V14.0057V14.0057V14.0056V14.0056V14.0056V14.0055V14.0055V14.0055V14.0054V14.0054V14.0053V14.0053V14.0053V14.0052V14.0052V14.0051V14.0051V14.0051V14.005V14.005V14.0049V14.0049V14.0049V14.0048V14.0048V14.0047V14.0047V14.0047V14.0046V14.0046V14.0045V14.0045V14.0045V14.0044V14.0044V14.0043V14.0043V14.0042V14.0042V14.0042V14.0041V14.0041V14.004V14.004V14.0039V14.0039V14.0039V14.0038V14.0038V14.0037V14.0037V14.0036V14.0036V14.0035V14.0035V14.0035V14.0034V14.0034V14.0033V14.0033V14.0032V14.0032V14.0031V14.0031V14.003V14.003V14.0029V14.0029V14.0029V14.0028V14.0028V14.0027V14.0027V14.0026V14.0026V14.0025V14.0025V14.0024V14.0024V14.0023V14.0023V14.0022V14.0022V14.0021V14.0021V14.002V14.002V14.0019V14.0019V14.0018V14.0018V14.0017V14.0017V14.0016V14.0016V14.0015V14.0014V14.0014V14.0013V14.0013V14.0012V14.0012V14.0011V14.0011V14.001V14.001V14.0009V14.0009V14.0008V14.0007V14.0007V14.0006V14.0006V14.0005V14.0005V14.0004V14.0003V14.0003V14.0002V14.0002V14.0001V14.0001V14V13C13.25 12.9036 13.2499 12.8222 13.2492 12.7508C13.1778 12.75 13.0964 12.75 13 12.75H11C10.9035 12.75 10.8221 12.75 10.7508 12.7508C10.75 12.8222 10.75 12.9036 10.75 13V14.0124C10.7502 14.0234 10.7502 14.0345 10.75 14.0456Z" fill="url(#paint0_linear_538_8249)"/>
<defs>
<linearGradient id="paint0_linear_538_8249" x1="1.49927" y1="12" x2="22.5008" y2="12" gradientUnits="userSpaceOnUse">
<stop stop-color="#FAAA3D"/>
<stop offset="0.174964" stop-color="#EF4023"/>
<stop offset="0.343952" stop-color="#C81F41"/>
<stop offset="0.590537" stop-color="#6D2774"/>
<stop offset="1" stop-color="#06A4D9"/>
</linearGradient>
</defs>
</svg>
