<svg width="27" height="23" viewBox="0 0 27 23" fill="none" xmlns="http://www.w3.org/2000/svg">
<path d="M7.54102 21.3566H25.7602M7.54102 11.4995H25.7602M7.54102 1.64233H25.7602" stroke="#292D32" stroke-width="1.5" stroke-linecap="round"/>
<path d="M3.28511 11.5C3.28511 12.4073 2.54971 13.1429 1.64255 13.1429C0.735397 13.1429 0 12.4073 0 11.5C0 10.5927 0.735397 9.85714 1.64255 9.85714C2.54971 9.85714 3.28511 10.5927 3.28511 11.5Z" fill="#292D32"/>
<path d="M3.28511 1.64286C3.28511 2.55018 2.54971 3.28571 1.64255 3.28571C0.735397 3.28571 0 2.55018 0 1.64286C0 0.735532 0.735397 0 1.64255 0C2.54971 0 3.28511 0.735532 3.28511 1.64286Z" fill="#292D32"/>
<path d="M3.28511 21.3571C3.28511 22.2645 2.54971 23 1.64255 23C0.735397 23 0 22.2645 0 21.3571C0 20.4498 0.735397 19.7143 1.64255 19.7143C2.54971 19.7143 3.28511 20.4498 3.28511 21.3571Z" fill="#292D32"/>
</svg>
