<svg width="25" height="25" viewBox="0 0 25 25" fill="none" xmlns="http://www.w3.org/2000/svg">
<path d="M23.4663 19.3716C23.4663 19.7766 23.3763 20.1929 23.185 20.5979C22.9938 21.0029 22.7463 21.3854 22.42 21.7454C21.8688 22.3529 21.2613 22.7916 20.575 23.0729C19.9 23.3541 19.1688 23.5004 18.3813 23.5004C17.2338 23.5004 16.0075 23.2304 14.7138 22.6791C13.42 22.1279 12.1263 21.3854 10.8438 20.4516C9.55002 19.5066 8.32376 18.4604 7.15377 17.3016C5.99502 16.1316 4.94877 14.9054 4.01502 13.6229C3.09252 12.3404 2.35002 11.0579 1.81002 9.78662C1.27002 8.50412 1.00002 7.27787 1.00002 6.10787C1.00002 5.34287 1.13502 4.61162 1.40502 3.93662C1.67502 3.25037 2.10252 2.62037 2.69877 2.05787C3.41877 1.34912 4.20627 1.00037 5.03877 1.00037C5.35377 1.00037 5.66877 1.06787 5.95002 1.20287C6.24252 1.33787 6.50127 1.54037 6.70377 1.83287L9.31377 5.51162C9.51627 5.79287 9.66252 6.05162 9.76377 6.29912C9.86502 6.53537 9.92127 6.77162 9.92127 6.98537C9.92127 7.25537 9.84252 7.52537 9.68502 7.78412C9.53877 8.04287 9.32502 8.31287 9.05502 8.58287L8.20001 9.47162C8.07626 9.59537 8.02002 9.74162 8.02002 9.92162C8.02002 10.0116 8.03127 10.0904 8.05377 10.1804C8.08752 10.2704 8.12127 10.3379 8.14377 10.4054C8.34627 10.7766 8.69501 11.2604 9.19001 11.8454C9.69626 12.4304 10.2363 13.0266 10.8213 13.6229C11.4288 14.2191 12.0138 14.7704 12.61 15.2766C13.195 15.7716 13.6788 16.1091 14.0613 16.3116C14.1175 16.3341 14.185 16.3679 14.2638 16.4016C14.3538 16.4354 14.4438 16.4466 14.545 16.4466C14.7363 16.4466 14.8825 16.3791 15.0063 16.2554L15.8613 15.4116C16.1425 15.1304 16.4125 14.9166 16.6713 14.7816C16.93 14.6241 17.1888 14.5454 17.47 14.5454C17.6838 14.5454 17.9088 14.5904 18.1563 14.6916C18.4038 14.7929 18.6625 14.9391 18.9438 15.1304L22.6675 17.7741C22.96 17.9766 23.1625 18.2129 23.2863 18.4941C23.3988 18.7754 23.4663 19.0566 23.4663 19.3716Z" stroke="white" stroke-width="1.5" stroke-miterlimit="10"/>
<path d="M19.5626 8.87531C19.5626 8.20031 19.0339 7.16531 18.2464 6.32156C17.5264 5.54531 16.5701 4.93781 15.6251 4.93781" stroke="white" stroke-width="1.5" stroke-linecap="round" stroke-linejoin="round"/>
<path d="M23.5001 8.87512C23.5001 4.52137 19.9789 1.00012 15.6251 1.00012" stroke="white" stroke-width="1.5" stroke-linecap="round" stroke-linejoin="round"/>
</svg>
