<svg width="20" height="21" viewBox="0 0 20 21" fill="none" xmlns="http://www.w3.org/2000/svg">
<path d="M19.2228 16.6359C19.2228 16.9659 19.1495 17.305 18.9937 17.635C18.8378 17.965 18.6362 18.2767 18.3703 18.57C17.9212 19.065 17.4262 19.4225 16.867 19.6517C16.317 19.8809 15.7212 20 15.0795 20C14.1445 20 13.1453 19.78 12.0912 19.3309C11.037 18.8817 9.98283 18.2767 8.93783 17.5159C7.88366 16.7459 6.88449 15.8934 5.93116 14.9492C4.98699 13.9959 4.13449 12.9967 3.37366 11.9517C2.62199 10.9067 2.01699 9.86169 1.57699 8.82585C1.13699 7.78085 0.916992 6.78169 0.916992 5.82835C0.916992 5.20502 1.02699 4.60919 1.24699 4.05919C1.46699 3.50002 1.81533 2.98669 2.30116 2.52835C2.88783 1.95085 3.52949 1.66669 4.20783 1.66669C4.46449 1.66669 4.72116 1.72169 4.95033 1.83169C5.18866 1.94169 5.39949 2.10669 5.56449 2.34502L7.69116 5.34252C7.85616 5.57169 7.97533 5.78252 8.05783 5.98419C8.14033 6.17669 8.18616 6.36919 8.18616 6.54335C8.18616 6.76335 8.12199 6.98335 7.99366 7.19419C7.87449 7.40502 7.70033 7.62502 7.48033 7.84502L6.78366 8.56919C6.68282 8.67002 6.63699 8.78919 6.63699 8.93585C6.63699 9.00919 6.64616 9.07335 6.66449 9.14669C6.69199 9.22002 6.71949 9.27502 6.73783 9.33002C6.90283 9.63252 7.18699 10.0267 7.59032 10.5034C8.00282 10.98 8.44282 11.4659 8.91949 11.9517C9.41449 12.4375 9.89116 12.8867 10.377 13.2992C10.8537 13.7025 11.2478 13.9775 11.5595 14.1425C11.6053 14.1609 11.6603 14.1884 11.7245 14.2159C11.7978 14.2434 11.8712 14.2525 11.9537 14.2525C12.1095 14.2525 12.2287 14.1975 12.3295 14.0967L13.0262 13.4092C13.2553 13.18 13.4753 13.0059 13.6862 12.8959C13.897 12.7675 14.1078 12.7034 14.337 12.7034C14.5112 12.7034 14.6945 12.74 14.8962 12.8225C15.0978 12.905 15.3087 13.0242 15.5378 13.18L18.572 15.3342C18.8103 15.4992 18.9753 15.6917 19.0762 15.9209C19.1678 16.15 19.2228 16.3792 19.2228 16.6359Z" stroke="#292D32" stroke-width="1.5" stroke-miterlimit="10"/>
<path d="M16.0423 8.08333C16.0423 7.53333 15.6115 6.69 14.9698 6.0025C14.3832 5.37 13.604 4.875 12.834 4.875" stroke="#292D32" stroke-width="1.5" stroke-linecap="round" stroke-linejoin="round"/>
<path d="M19.2507 8.08335C19.2507 4.53585 16.3815 1.66669 12.834 1.66669" stroke="#292D32" stroke-width="1.5" stroke-linecap="round" stroke-linejoin="round"/>
</svg>
