<svg width="31" height="33" viewBox="0 0 31 33" fill="none" xmlns="http://www.w3.org/2000/svg">
<path fill-rule="evenodd" clip-rule="evenodd" d="M8.87393 1.9166C8.87393 1.22624 9.43357 0.666595 10.1239 0.666595H18.8739C19.5643 0.666595 20.1239 1.22624 20.1239 1.9166C20.1239 2.60695 19.5643 3.1666 18.8739 3.1666H10.1239C9.43357 3.1666 8.87393 2.60695 8.87393 1.9166ZM2.98828 18.3226C2.98828 11.9692 8.1453 6.8122 14.4987 6.8122C20.8521 6.8122 26.0091 11.9692 26.0091 18.3226C26.0091 19.013 26.5688 19.5726 27.2591 19.5726C27.9495 19.5726 28.5091 19.013 28.5091 18.3226C28.5091 10.5885 22.2328 4.3122 14.4987 4.3122C6.76459 4.3122 0.488281 10.5885 0.488281 18.3226C0.488281 26.0567 6.76459 32.333 14.4987 32.333C15.1891 32.333 15.7487 31.7734 15.7487 31.083C15.7487 30.3927 15.1891 29.833 14.4987 29.833C8.1453 29.833 2.98828 24.676 2.98828 18.3226ZM15.7489 10.6666C15.7489 9.97624 15.1893 9.4166 14.4989 9.4166C13.8086 9.4166 13.2489 9.97624 13.2489 10.6666V16.7083H10.1239C9.43357 16.7083 8.87393 17.2679 8.87393 17.9583C8.87393 18.6486 9.43357 19.2083 10.1239 19.2083H14.4989C15.1893 19.2083 15.7489 18.6486 15.7489 17.9583V10.6666ZM29.9554 24.6859C30.4493 24.2036 30.4587 23.4122 29.9763 22.9183C29.494 22.4244 28.7026 22.415 28.2087 22.8973L23.1432 27.8438L21.2396 25.8339C20.7649 25.3327 19.9737 25.3112 19.4725 25.7859C18.9712 26.2607 18.9498 27.0518 19.4245 27.5531L22.2009 30.4845C22.4312 30.7276 22.7493 30.8682 23.0841 30.8747C23.4188 30.8812 23.7422 30.7532 23.9818 30.5192L29.9554 24.6859Z" fill="url(#paint0_linear_391_3153)"/>
<defs>
<linearGradient id="paint0_linear_391_3153" x1="0.488281" y1="16.4998" x2="30.332" y2="16.4998" gradientUnits="userSpaceOnUse">
<stop stop-color="#FAAA3D"/>
<stop offset="0.174964" stop-color="#EF4023"/>
<stop offset="0.343952" stop-color="#C81F41"/>
<stop offset="0.590537" stop-color="#6D2774"/>
<stop offset="1" stop-color="#06A4D9"/>
</linearGradient>
</defs>
</svg>
