<svg width="29" height="33" viewBox="0 0 29 33" fill="none" xmlns="http://www.w3.org/2000/svg">
<path fill-rule="evenodd" clip-rule="evenodd" d="M11.9972 3.63218L11.9979 3.63189C13.5178 3.01201 15.2345 3.01203 16.7543 3.63195L16.7549 3.63218L24.8765 6.95659L24.8779 6.95718C25.1551 7.07023 25.4815 7.33501 25.7434 7.7227C26.005 8.10995 26.1267 8.50777 26.1271 8.80239L26.1271 8.80392L26.1125 15.2032L26.1125 15.206C26.1125 21.7543 21.3314 27.9543 14.7821 29.7651C14.5171 29.837 14.2204 29.837 13.9554 29.7651C7.40609 27.9543 2.625 21.7543 2.625 15.206V8.80392C2.625 8.50466 2.74607 8.10525 3.00484 7.72031C3.2634 7.3357 3.58738 7.07267 3.86894 6.95931L3.86895 6.95933L3.87563 6.95659L11.9972 3.63218ZM17.6993 1.31743C15.5737 0.45018 13.1784 0.45018 11.0528 1.31743L11.0515 1.31797L2.93159 4.64169C2.0919 4.98081 1.40365 5.6211 0.930077 6.32555C0.456027 7.03072 0.125 7.90735 0.125 8.80392V15.206C0.125 22.9194 5.69687 30.077 13.2921 32.1755L13.2961 32.1766C13.9927 32.3665 14.7448 32.3665 15.4414 32.1766L15.4454 32.1755C23.04 30.0772 28.6115 22.9207 28.6125 15.2081V15.206L28.6271 8.80677L28.6271 8.80392C28.6271 7.90286 28.2893 7.02535 27.815 6.32317C27.3406 5.62101 26.6538 4.98183 25.823 4.64271L25.8221 4.64234L17.7006 1.31797L17.6993 1.31743ZM20.0983 13.7354C20.5865 13.2473 20.5865 12.4558 20.0983 11.9677C19.6102 11.4795 18.8187 11.4795 18.3306 11.9677L12.9436 17.3546L11.4796 15.8906C10.9914 15.4024 10.2 15.4024 9.71182 15.8906C9.22366 16.3787 9.22366 17.1702 9.71182 17.6584L12.0597 20.0063C12.5479 20.4944 13.3393 20.4944 13.8275 20.0063L20.0983 13.7354Z" fill="url(#paint0_linear_721_10683)"/>
<defs>
<linearGradient id="paint0_linear_721_10683" x1="0.125" y1="16.493" x2="28.6271" y2="16.493" gradientUnits="userSpaceOnUse">
<stop stop-color="#FAAA3D"/>
<stop offset="0.174964" stop-color="#EF4023"/>
<stop offset="0.343952" stop-color="#C81F41"/>
<stop offset="0.590537" stop-color="#6D2774"/>
<stop offset="1" stop-color="#06A4D9"/>
</linearGradient>
</defs>
</svg>
