<svg width="35" height="34" viewBox="0 0 35 34" fill="none" xmlns="http://www.w3.org/2000/svg">
<path fill-rule="evenodd" clip-rule="evenodd" d="M20.4059 4.76106C20.4059 3.69228 19.3379 2.95997 18.351 3.33404L18.3498 3.3345L6.7712 7.70929L6.77082 7.70943L6.77064 7.7095C5.64061 8.13734 4.89551 9.21598 4.89551 10.434V10.5554C6.05336 9.61598 7.52725 9.05211 9.12883 9.05211H20.4059V4.76106ZM4.89551 17.0985V15.7855C4.89551 13.4571 6.80045 11.5521 9.12883 11.5521H21.6171C21.63 11.5525 21.6429 11.5527 21.6559 11.5527C21.6689 11.5527 21.6819 11.5525 21.6948 11.5521H25.8705C28.1989 11.5521 30.1038 13.4571 30.1038 15.7855V16.6361H28.4068C27.2607 16.6361 26.1979 17.0872 25.4223 17.8777C24.5618 18.7241 24.0646 19.9436 24.1867 21.2493C24.3835 23.562 26.4575 25.1152 28.5818 25.1152H30.1038V25.6C30.1038 27.9284 28.1989 29.8334 25.8705 29.8334H13.6414C14.1141 28.8876 14.3752 27.8213 14.3752 26.7087C14.3752 22.7954 11.2051 19.6254 7.29183 19.6254C6.45237 19.6254 5.64524 19.7739 4.89551 20.0449V17.0985ZM25.8705 32.3334H11.5804C10.3887 33.2597 8.89967 33.792 7.29183 33.792C4.70938 33.792 2.45951 32.4122 1.23512 30.3604C0.578582 29.2923 0.208496 28.0333 0.208496 26.7087C0.208496 24.7042 1.03987 22.8805 2.39551 21.5911V17.0985V15.7855V10.434C2.39551 8.18138 3.77931 6.16838 5.88647 5.37107L5.88703 5.37086L17.465 0.996326L17.4654 0.996152C20.0951 -0.000214458 22.9059 1.95083 22.9059 4.76106V9.05211H25.8705C29.5796 9.05211 32.6038 12.0764 32.6038 15.7855V16.9151C33.516 17.359 34.1484 18.2865 34.1484 19.3735V22.3778C34.1484 23.4649 33.516 24.3923 32.6038 24.8362V25.6C32.6038 29.3091 29.5796 32.3334 25.8705 32.3334ZM10.2661 30.1769C10.2929 30.1514 10.3208 30.1272 10.3497 30.1042C10.6795 29.8225 10.9709 29.475 11.1996 29.083L11.2061 29.072L11.2154 29.0567C11.6347 28.3767 11.8752 27.5681 11.8752 26.7087C11.8752 24.1761 9.82439 22.1254 7.29183 22.1254C6.21844 22.1254 5.22152 22.5014 4.42514 23.1362L4.42297 23.1379C3.37267 23.9713 2.7085 25.2621 2.7085 26.7087C2.7085 27.5681 2.94894 28.3767 3.3683 29.0567L3.37864 29.0738C4.16791 30.4007 5.61954 31.292 7.29183 31.292C8.44044 31.292 9.47538 30.8778 10.2661 30.1769ZM31.394 22.6152H31.4094C31.5624 22.6032 31.6484 22.4862 31.6484 22.3778V19.3735C31.6484 19.2652 31.5624 19.1481 31.4095 19.1361H28.4068C27.925 19.1361 27.5049 19.3223 27.2023 19.6331C27.195 19.6407 27.1875 19.6481 27.1799 19.6555C26.824 20.003 26.6263 20.4964 26.6761 21.0196L26.6774 21.0343C26.7469 21.8676 27.5583 22.6152 28.5818 22.6152H31.3137C31.327 22.6148 31.3404 22.6146 31.3538 22.6146C31.3618 22.6146 31.3697 22.6147 31.3776 22.6148C31.3831 22.6149 31.3885 22.6151 31.394 22.6152ZM10.4173 26.1964C10.9241 25.7276 10.955 24.9368 10.4862 24.4299C10.0175 23.9231 9.22663 23.8922 8.71981 24.361L6.49612 26.4176L5.90244 25.8239C5.41428 25.3358 4.62283 25.3358 4.13467 25.8239C3.64652 26.3121 3.64652 27.1035 4.13467 27.5917L5.57841 29.0354C6.05315 29.5102 6.81813 29.5251 7.31103 29.0692L10.4173 26.1964Z" fill="url(#paint0_linear_721_10700)"/>
<defs>
<linearGradient id="paint0_linear_721_10700" x1="0.208496" y1="17.2622" x2="34.1484" y2="17.2622" gradientUnits="userSpaceOnUse">
<stop stop-color="#FAAA3D"/>
<stop offset="0.174964" stop-color="#EF4023"/>
<stop offset="0.343952" stop-color="#C81F41"/>
<stop offset="0.590537" stop-color="#6D2774"/>
<stop offset="1" stop-color="#06A4D9"/>
</linearGradient>
</defs>
</svg>
