<svg width="35" height="35" viewBox="0 0 35 35" fill="none" xmlns="http://www.w3.org/2000/svg">
<path fill-rule="evenodd" clip-rule="evenodd" d="M23.2211 7.44761C23.6321 5.48613 22.3631 3.4618 20.5127 2.83257C19.6075 2.50004 18.6549 2.57623 17.8664 2.84724C17.0809 3.11729 16.3224 3.62725 15.8488 4.33641L15.8473 4.33858L11.6879 10.5269C11.518 10.1075 11.2698 9.72472 10.9175 9.39957C10.091 8.63662 8.96234 8.44828 7.8457 8.44828H6.38737C5.27073 8.44828 4.1421 8.63662 3.31556 9.39957C2.46446 10.1852 2.2207 11.3074 2.2207 12.4691V26.7608C2.2207 27.9225 2.46446 29.0447 3.31556 29.8303C4.1421 30.5933 5.27073 30.7816 6.38737 30.7816H7.8457C8.96234 30.7816 10.091 30.5933 10.9175 29.8303C11.2184 29.5526 11.4433 29.2328 11.6085 28.8841L14.6109 31.2086C15.119 31.6833 15.7993 31.9586 16.3617 32.1193C16.9793 32.2957 17.6416 32.3861 18.1999 32.3861H23.7415C24.9161 32.3861 26.0813 31.952 27.0135 31.2699C27.9344 30.5961 28.7136 29.6162 29.0254 28.4244L32.5077 17.8323C32.9887 16.4711 32.8213 15.0858 32.0395 14.0248C31.2606 12.9677 29.986 12.3861 28.554 12.3861H22.7207C22.6335 12.3861 22.5767 12.3517 22.546 12.3169C22.5305 12.2993 22.5159 12.2756 22.5061 12.2417C22.4967 12.2092 22.4876 12.1536 22.499 12.069L23.2211 7.44761ZM12.0124 26.0351L16.1943 29.2727L16.2569 29.3212L16.3129 29.3772C16.3823 29.4467 16.6147 29.5915 17.0485 29.7155C17.4517 29.8307 17.8831 29.8861 18.1999 29.8861H23.7415C24.3169 29.8861 24.9747 29.664 25.5373 29.2523C26.0989 28.8414 26.478 28.3072 26.6122 27.7705L26.6232 27.7264L26.6374 27.6832L30.1374 17.0374L30.1424 17.0223L30.1477 17.0074C30.3889 16.332 30.2629 15.8281 30.0269 15.5078C29.785 15.1796 29.3096 14.8861 28.554 14.8861H22.7207C21.1068 14.8861 19.7685 13.5046 20.0249 11.7093L20.0261 11.7012L20.0274 11.6932L20.7565 7.02648L20.7627 6.98715L20.7713 6.94829C20.9141 6.30576 20.4496 5.44672 19.7004 5.19698L19.6785 5.18966L19.6568 5.18153C19.4018 5.08593 19.051 5.08363 18.6791 5.21146C18.2988 5.34219 18.0372 5.56062 17.9274 5.72533L17.9248 5.72926L17.9248 5.72925L12.0124 14.5258V26.0351ZM4.7207 12.4691C4.7207 11.5891 4.91444 11.3259 5.01126 11.2366C5.13264 11.1245 5.46234 10.9483 6.38737 10.9483H7.8457C8.77073 10.9483 9.10043 11.1245 9.22181 11.2366C9.31863 11.3259 9.51237 11.5891 9.51237 12.4691V26.7608C9.51237 27.6408 9.31863 27.904 9.22181 27.9933C9.10043 28.1054 8.77073 28.2816 7.8457 28.2816H6.38737C5.46234 28.2816 5.13264 28.1054 5.01126 27.9933C4.91444 27.904 4.7207 27.6408 4.7207 26.7608V12.4691Z" fill="url(#paint0_linear_721_10689)"/>
<defs>
<linearGradient id="paint0_linear_721_10689" x1="2.2207" y1="17.4992" x2="32.7771" y2="17.4992" gradientUnits="userSpaceOnUse">
<stop stop-color="#FAAA3D"/>
<stop offset="0.174964" stop-color="#EF4023"/>
<stop offset="0.343952" stop-color="#C81F41"/>
<stop offset="0.590537" stop-color="#6D2774"/>
<stop offset="1" stop-color="#06A4D9"/>
</linearGradient>
</defs>
</svg>
