<svg width="38" height="42" viewBox="0 0 38 42" fill="none" xmlns="http://www.w3.org/2000/svg">
<path fill-rule="evenodd" clip-rule="evenodd" d="M18.9998 0.333008C8.87557 0.333008 0.652344 8.5562 0.652344 18.6805C0.652344 23.983 2.90883 28.7663 6.5197 32.1058C7.12789 32.6683 8.07691 32.6313 8.6394 32.0231C9.20189 31.4149 9.16484 30.4659 8.55665 29.9034C5.53584 27.1096 3.65234 23.1146 3.65234 18.6805C3.65234 10.2131 10.5324 3.33301 18.9998 3.33301C27.4684 3.33301 34.3473 10.195 34.3473 18.6805C34.3473 23.096 32.4823 27.0559 29.4941 29.8519C28.8892 30.4179 28.8577 31.3671 29.4237 31.972C29.9897 32.5769 30.9389 32.6085 31.5438 32.0425C35.1106 28.7051 37.3473 23.9633 37.3473 18.6805C37.3473 8.53592 29.123 0.333008 18.9998 0.333008ZM24.5428 20.0789C25.5465 15.8498 21.8285 12.1328 17.5991 13.1386L17.5991 13.1385L17.5868 13.1415C15.5699 13.6392 13.94 15.2692 13.4423 17.2861L13.4423 17.286L13.4393 17.2984C12.4334 21.5286 16.1521 25.2473 20.3823 24.2414L20.3823 24.2414L20.3903 24.2394C22.4231 23.7443 24.0657 22.1147 24.5428 20.0789ZM21.6235 19.3876C22.112 17.3332 20.3531 15.5717 18.2995 16.0557C17.3694 16.2877 16.5885 17.0686 16.3565 17.9988C15.8729 20.0511 17.6316 21.8089 19.6842 21.3237C20.6386 21.0896 21.4087 20.3065 21.6222 19.3932L21.6235 19.3876ZM18.9996 9.6582C14.0205 9.6582 9.97705 13.7016 9.97705 18.6807C9.97705 21.0798 10.9118 23.2473 12.4265 24.8607C12.9935 25.4647 12.9635 26.414 12.3595 26.981C11.7556 27.548 10.8063 27.518 10.2393 26.914C8.22728 24.7708 6.97705 21.8782 6.97705 18.6807C6.97705 12.0448 12.3636 6.6582 18.9996 6.6582C25.6355 6.6582 31.0221 12.0448 31.0221 18.6807C31.0221 21.8823 29.7691 24.7519 27.765 26.9085C27.2011 27.5153 26.252 27.5501 25.6451 26.9862C25.0383 26.4222 25.0035 25.4731 25.5674 24.8663C27.09 23.2278 28.0221 21.0757 28.0221 18.6807C28.0221 13.7016 23.9786 9.6582 18.9996 9.6582ZM26.1652 32.419L23.4124 28.997C21.1594 26.1491 16.8351 26.1612 14.5716 28.994L11.8133 32.4228L11.8091 32.428C8.84559 36.1454 11.4687 41.648 16.2404 41.648H21.7412C26.496 41.648 29.1712 36.134 26.1669 32.4211L26.1652 32.419ZM16.9144 30.8678C17.9849 29.5267 20.0176 29.5376 21.062 30.8612L21.0708 30.8723L23.8308 34.3032L23.8339 34.3071C25.2352 36.0374 24.0005 38.648 21.7412 38.648H16.2404C13.998 38.648 12.7496 36.0646 14.1531 34.3004L16.9108 30.8723L16.9144 30.8678Z" fill="url(#paint0_linear_569_13447)"/>
<defs>
<linearGradient id="paint0_linear_569_13447" x1="0.652344" y1="20.9905" x2="37.3473" y2="20.9905" gradientUnits="userSpaceOnUse">
<stop stop-color="#FAAA3D"/>
<stop offset="0.174964" stop-color="#EF4023"/>
<stop offset="0.343952" stop-color="#C81F41"/>
<stop offset="0.590537" stop-color="#6D2774"/>
<stop offset="1" stop-color="#06A4D9"/>
</linearGradient>
</defs>
</svg>
