<svg width="42" height="42" viewBox="0 0 42 42" fill="none" xmlns="http://www.w3.org/2000/svg">
<path fill-rule="evenodd" clip-rule="evenodd" d="M3.3335 20.9997C3.3335 11.2426 11.2431 3.33301 21.0002 3.33301C30.7572 3.33301 38.6668 11.2426 38.6668 20.9997C38.6668 30.7567 30.7572 38.6663 21.0002 38.6663C11.2431 38.6663 3.3335 30.7567 3.3335 20.9997ZM21.0002 0.333008C9.58628 0.333008 0.333496 9.58579 0.333496 20.9997C0.333496 32.4136 9.58628 41.6663 21.0002 41.6663C32.4141 41.6663 41.6668 32.4136 41.6668 20.9997C41.6668 9.58579 32.4141 0.333008 21.0002 0.333008ZM16.7501 17.167C16.7501 15.665 16.9906 14.667 17.4959 14.0405C17.9448 13.4838 18.8592 12.917 21.0001 12.917C23.141 12.917 24.0555 13.4838 24.5044 14.0405C25.0096 14.667 25.2501 15.665 25.2501 17.167V17.583H16.7501V17.167ZM28.2501 17.167V17.7775C29.189 17.9656 30.0277 18.3226 30.6857 18.9807C31.8815 20.1764 32.0834 21.9687 32.0834 23.8747V25.7913C32.0834 27.6973 31.8815 29.4896 30.6857 30.6853C29.49 31.8811 27.6977 32.083 25.7917 32.083H16.2084C14.3025 32.083 12.5102 31.8811 11.3144 30.6853C10.1187 29.4896 9.91675 27.6973 9.91675 25.7913V23.8747C9.91675 21.9687 10.1187 20.1764 11.3144 18.9807C11.9725 18.3226 12.8112 17.9656 13.7501 17.7775V17.167C13.7501 15.4873 13.9888 13.6103 15.1606 12.1572C16.3888 10.6343 18.3493 9.91699 21.0001 9.91699C23.6509 9.91699 25.6114 10.6343 26.8396 12.1572C28.0115 13.6103 28.2501 15.4873 28.2501 17.167ZM20.9999 27.9836C22.7398 27.9836 24.1499 26.5732 24.1499 24.8336C24.1499 23.094 22.7398 21.6836 20.9999 21.6836C19.2601 21.6836 17.85 23.094 17.85 24.8336C17.85 26.5732 19.2601 27.9836 20.9999 27.9836ZM20.9999 25.9836C21.6351 25.9836 22.1499 25.4687 22.1499 24.8336C22.1499 24.1985 21.6351 23.6836 20.9999 23.6836C20.3648 23.6836 19.85 24.1985 19.85 24.8336C19.85 25.4687 20.3648 25.9836 20.9999 25.9836ZM13.4357 21.102C13.194 21.3437 12.9167 21.9473 12.9167 23.8747V25.7913C12.9167 27.7187 13.194 28.3223 13.4357 28.564C13.6775 28.8057 14.281 29.083 16.2084 29.083H25.7917C27.7191 29.083 28.3227 28.8057 28.5644 28.564C28.8062 28.3223 29.0834 27.7187 29.0834 25.7913V23.8747C29.0834 21.9473 28.8062 21.3437 28.5644 21.102C28.3227 20.8603 27.7191 20.583 25.7917 20.583H16.2084C14.281 20.583 13.6775 20.8603 13.4357 21.102Z" fill="url(#paint0_linear_569_13404)"/>
<defs>
<linearGradient id="paint0_linear_569_13404" x1="0.333496" y1="20.9997" x2="41.6668" y2="20.9997" gradientUnits="userSpaceOnUse">
<stop stop-color="#FAAA3D"/>
<stop offset="0.174964" stop-color="#EF4023"/>
<stop offset="0.343952" stop-color="#C81F41"/>
<stop offset="0.590537" stop-color="#6D2774"/>
<stop offset="1" stop-color="#06A4D9"/>
</linearGradient>
</defs>
</svg>
