<svg width="42" height="42" viewBox="0 0 42 42" fill="none" xmlns="http://www.w3.org/2000/svg">
<path fill-rule="evenodd" clip-rule="evenodd" d="M3.3335 20.9997C3.3335 11.2481 11.2486 3.33301 21.0002 3.33301C30.7517 3.33301 38.6668 11.2481 38.6668 20.9997C38.6668 30.7513 30.7517 38.6663 21.0002 38.6663C11.2486 38.6663 3.3335 30.7513 3.3335 20.9997ZM21.0002 0.333008C9.59174 0.333008 0.333496 9.59125 0.333496 20.9997C0.333496 32.4081 9.59174 41.6663 21.0002 41.6663C32.4086 41.6663 41.6668 32.4081 41.6668 20.9997C41.6668 9.59125 32.4086 0.333008 21.0002 0.333008ZM21.7908 12.3945C21.7908 11.5661 21.1192 10.8945 20.2908 10.8945C19.4623 10.8945 18.7908 11.5661 18.7908 12.3945V20.2529C18.7908 21.1795 19.1043 22.1052 19.5388 22.8671C19.9728 23.6281 20.6083 24.3675 21.402 24.8386L21.4044 24.84L27.3421 28.3834C28.0535 28.808 28.9743 28.5754 29.3988 27.864C29.8234 27.1527 29.5908 26.2318 28.8795 25.8073L22.9378 22.2615L22.9338 22.2591C22.6936 22.1168 22.3908 21.8123 22.1448 21.3809C21.8989 20.9496 21.7908 20.5337 21.7908 20.2529V12.3945Z" fill="url(#paint0_linear_569_13415)"/>
<defs>
<linearGradient id="paint0_linear_569_13415" x1="0.333496" y1="20.9997" x2="41.6668" y2="20.9997" gradientUnits="userSpaceOnUse">
<stop stop-color="#FAAA3D"/>
<stop offset="0.174964" stop-color="#EF4023"/>
<stop offset="0.343952" stop-color="#C81F41"/>
<stop offset="0.590537" stop-color="#6D2774"/>
<stop offset="1" stop-color="#06A4D9"/>
</linearGradient>
</defs>
</svg>
