<svg width="42" height="42" viewBox="0 0 42 42" fill="none" xmlns="http://www.w3.org/2000/svg">
<path fill-rule="evenodd" clip-rule="evenodd" d="M3.88742 3.88693C6.46261 1.31174 10.3106 0.333008 15.2502 0.333008H26.7502C31.6898 0.333008 35.5377 1.31174 38.1129 3.88693C40.6881 6.46212 41.6668 10.3101 41.6668 15.2497V26.7497C41.6668 31.6893 40.6881 35.5372 38.1129 38.1124C35.5377 40.6876 31.6898 41.6663 26.7502 41.6663H15.2502C10.3106 41.6663 6.46261 40.6876 3.88742 38.1124C1.31223 35.5372 0.333496 31.6893 0.333496 26.7497V15.2497C0.333496 10.3101 1.31223 6.46212 3.88742 3.88693ZM6.00874 6.00825C4.27143 7.74556 3.3335 10.606 3.3335 15.2497V26.7497C3.3335 31.3934 4.27143 34.2538 6.00874 35.9911C7.74605 37.7284 10.6064 38.6663 15.2502 38.6663H26.7502C31.3939 38.6663 34.2543 37.7284 35.9916 35.9911C37.7289 34.2538 38.6668 31.3934 38.6668 26.7497V15.2497C38.6668 10.606 37.7289 7.74556 35.9916 6.00825C34.2543 4.27094 31.3939 3.33301 26.7502 3.33301H15.2502C10.6064 3.33301 7.74605 4.27094 6.00874 6.00825ZM27.8425 24.4834C28.671 24.4834 29.3425 25.155 29.3425 25.9834V33.4584C29.3425 34.2868 28.671 34.9584 27.8425 34.9584C27.0141 34.9584 26.3425 34.2868 26.3425 33.4584V25.9834C26.3425 25.155 27.0141 24.4834 27.8425 24.4834ZM29.3425 8.54199C29.3425 7.71356 28.671 7.04199 27.8425 7.04199C27.0141 7.04199 26.3425 7.71356 26.3425 8.54199V10.9537C23.4851 11.6305 21.3591 14.1983 21.3591 17.2626C21.3591 20.8433 24.2618 23.746 27.8425 23.746C31.4231 23.746 34.3258 20.8433 34.3258 17.2626C34.3258 14.1983 32.1999 11.6305 29.3425 10.9537V8.54199ZM24.3591 17.2626C24.3591 15.3456 25.9077 13.7903 27.8221 13.7794L27.8425 13.7795L27.8629 13.7794C29.7773 13.7904 31.3258 15.3457 31.3258 17.2626C31.3258 19.1864 29.7663 20.746 27.8425 20.746C25.9187 20.746 24.3591 19.1864 24.3591 17.2626ZM12.6575 31.0461C9.80015 30.3692 7.67432 27.8015 7.67432 24.7372C7.67432 21.1566 10.577 18.2539 14.1576 18.2539C17.7383 18.2539 20.641 21.1566 20.641 24.7372C20.641 27.8016 18.515 30.3695 15.6575 31.0462V33.4582C15.6575 34.2866 14.9859 34.9582 14.1575 34.9582C13.329 34.9582 12.6575 34.2866 12.6575 33.4582V31.0461ZM14.1575 7.04199C14.9859 7.04199 15.6575 7.71356 15.6575 8.54199V16.017C15.6575 16.8454 14.9859 17.517 14.1575 17.517C13.329 17.517 12.6575 16.8454 12.6575 16.017V8.54199C12.6575 7.71356 13.329 7.04199 14.1575 7.04199ZM10.6743 24.7372C10.6743 22.8134 12.2339 21.2539 14.1576 21.2539C16.0814 21.2539 17.641 22.8134 17.641 24.7372C17.641 26.661 16.0814 28.2206 14.1576 28.2206C12.2339 28.2206 10.6743 26.661 10.6743 24.7372Z" fill="url(#paint0_linear_569_13424)"/>
<defs>
<linearGradient id="paint0_linear_569_13424" x1="0.333496" y1="20.9997" x2="41.6668" y2="20.9997" gradientUnits="userSpaceOnUse">
<stop stop-color="#FAAA3D"/>
<stop offset="0.174964" stop-color="#EF4023"/>
<stop offset="0.343952" stop-color="#C81F41"/>
<stop offset="0.590537" stop-color="#6D2774"/>
<stop offset="1" stop-color="#06A4D9"/>
</linearGradient>
</defs>
</svg>
