<svg width="36" height="36" viewBox="0 0 36 36" fill="none" xmlns="http://www.w3.org/2000/svg">
<path fill-rule="evenodd" clip-rule="evenodd" d="M18.0083 4.36913C17.9041 4.51493 17.774 4.74935 17.6418 5.10339L17.6411 5.10538L15.0011 12.1404L14.9979 12.1489L14.9979 12.1489C14.6686 13.0074 14.019 13.6766 13.1533 13.9424C12.2877 14.2082 11.3733 14.0194 10.6143 13.4939L10.5985 13.4828L4.7485 9.29784L4.74654 9.29643C4.53372 9.14356 4.34605 9.02645 4.18438 8.93947C4.22328 9.12077 4.28429 9.33616 4.37322 9.58651L4.3736 9.58758L10.5828 26.9554L10.5856 26.9631C10.5866 26.9654 10.595 26.9845 10.6202 27.0157C10.6489 27.0512 10.6902 27.0912 10.7422 27.1279C10.7941 27.1646 10.8458 27.1904 10.8893 27.2058C10.9301 27.2202 10.9513 27.2211 10.9513 27.2212L10.9512 27.2212H25.0504C25.0486 27.2212 25.071 27.2208 25.1161 27.205C25.1622 27.1889 25.2174 27.1617 25.2736 27.123C25.3298 27.0843 25.3757 27.0418 25.4083 27.0035C25.4306 26.9772 25.4417 26.9589 25.446 26.951L31.4923 10.0245L31.493 10.0225C31.6381 9.61166 31.7128 9.29291 31.7445 9.05873C31.5299 9.15421 31.2466 9.31401 30.8948 9.5666L30.8915 9.56893L25.4015 13.4839L25.3948 13.4888L25.3948 13.4887C24.6392 14.02 23.7247 14.2086 22.86 13.942C21.9967 13.6758 21.3478 13.0068 21.0187 12.1489L21.0154 12.1404L21.0155 12.1404L18.3755 5.10538L18.3747 5.10339C18.2426 4.74935 18.1125 4.51493 18.0083 4.36913ZM18.1655 4.19401L18.1629 4.19572L18.1646 4.19456C18.1652 4.19415 18.1655 4.19398 18.1655 4.19401ZM17.8537 4.19572L17.851 4.19401C17.851 4.19398 17.8513 4.19412 17.8518 4.19444L17.8537 4.19572ZM32.1305 8.93921L32.1285 8.93944C32.1269 8.9395 32.1246 8.9395 32.1214 8.93935C32.1277 8.93889 32.1306 8.93902 32.1305 8.93921ZM31.7535 8.66375C31.7515 8.65809 31.7508 8.65491 31.751 8.65474C31.7511 8.65456 31.7521 8.65739 31.7535 8.66375ZM20.7166 4.22847C20.4724 3.57452 20.1552 2.99024 19.7436 2.54849C19.3278 2.10212 18.7395 1.7287 18.0083 1.7287C17.2771 1.7287 16.6888 2.10212 16.2729 2.54849C15.8615 2.99013 15.5443 3.57421 15.3001 4.22794L15.2997 4.22901L12.6624 11.257C12.5719 11.4905 12.4574 11.5409 12.4195 11.5525C12.3818 11.5641 12.2559 11.5875 12.0437 11.4429L6.20504 7.26597L6.204 7.26523C5.60801 6.83724 5.00678 6.50794 4.42582 6.34927C3.8588 6.19441 3.09863 6.15287 2.45444 6.63674C1.80987 7.1209 1.63796 7.86319 1.62928 8.45264C1.62039 9.05658 1.77051 9.72858 2.01797 10.4248L2.01875 10.427L8.22596 27.7891L8.22759 27.7938C8.43687 28.3879 8.85582 28.8561 9.2994 29.1695C9.74388 29.4836 10.3245 29.7212 10.9508 29.7212H25.0508C25.6763 29.7212 26.2528 29.4842 26.6917 29.1819C27.13 28.8801 27.55 28.4313 27.7735 27.8652C27.7785 27.8524 27.7833 27.8396 27.7879 27.8267L33.8479 10.8617L33.8493 10.8579C34.1155 10.1049 34.2736 9.38527 34.2633 8.74408C34.2532 8.11751 34.0704 7.35062 33.4097 6.85105C32.7475 6.35027 31.9588 6.38518 31.3525 6.54947C30.7338 6.7171 30.0871 7.06914 29.4386 7.53445L29.4368 7.53579L23.9568 11.4437L23.954 11.4456C23.7512 11.5872 23.6317 11.5638 23.5966 11.5529C23.56 11.5417 23.4449 11.4911 23.3542 11.257L20.7168 4.22901L20.7166 4.22847ZM8.50095 33.0001C8.50095 32.3098 9.06059 31.7501 9.75095 31.7501H26.2509C26.9413 31.7501 27.5009 32.3098 27.5009 33.0001C27.5009 33.6905 26.9413 34.2501 26.2509 34.2501H9.75095C9.06059 34.2501 8.50095 33.6905 8.50095 33.0001ZM14.2509 19.7508C13.5606 19.7508 13.0009 20.3104 13.0009 21.0008C13.0009 21.6912 13.5606 22.2508 14.2509 22.2508H21.7509C22.4413 22.2508 23.0009 21.6912 23.0009 21.0008C23.0009 20.3104 22.4413 19.7508 21.7509 19.7508H14.2509Z" fill="url(#paint0_linear_391_3143)"/>
<defs>
<linearGradient id="paint0_linear_391_3143" x1="1.62891" y1="17.9894" x2="34.2638" y2="17.9894" gradientUnits="userSpaceOnUse">
<stop stop-color="#FAAA3D"/>
<stop offset="0.174964" stop-color="#EF4023"/>
<stop offset="0.343952" stop-color="#C81F41"/>
<stop offset="0.590537" stop-color="#6D2774"/>
<stop offset="1" stop-color="#06A4D9"/>
</linearGradient>
</defs>
</svg>
