<svg width="50" height="50" viewBox="0 0 50 50" fill="none" xmlns="http://www.w3.org/2000/svg">
<path fill-rule="evenodd" clip-rule="evenodd" d="M24.9681 5.74418C24.7838 5.94205 24.531 6.33287 24.2804 7.00412L24.2795 7.00651L20.6129 16.7773L20.6091 16.7875L20.609 16.7875C20.1742 17.9212 19.3224 18.7922 18.1983 19.1374C17.0742 19.4825 15.8784 19.2404 14.8755 18.5461L14.8566 18.5328L6.73159 12.7203L6.72924 12.7186C6.20832 12.3444 5.80067 12.1263 5.50762 12.0112C5.53683 12.3264 5.63373 12.7821 5.85061 13.3926L5.85105 13.3938L14.4751 37.5162L14.4785 37.5256L14.4785 37.5256C14.4998 37.5867 14.5881 37.7317 14.7825 37.8691C14.9772 38.0067 15.1445 38.042 15.2085 38.042H34.7918C34.8567 38.042 35.029 38.006 35.2353 37.8639C35.4299 37.7299 35.528 37.5886 35.5583 37.5236L43.961 14.0003L43.9616 13.9984C44.2535 13.1724 44.351 12.5909 44.3515 12.2296C44.0071 12.3308 43.4792 12.5852 42.7708 13.0938L42.7669 13.0966L35.1419 18.5341L35.1338 18.5399L35.1338 18.5399C34.1365 19.2411 32.9413 19.483 31.8186 19.1369C30.6977 18.7913 29.8467 17.9205 29.4122 16.7875L29.4083 16.7774L29.4083 16.7773L25.7416 7.00651L25.7407 7.00412C25.4901 6.33287 25.2374 5.94205 25.0531 5.74418C25.0377 5.72771 25.0236 5.71326 25.0106 5.70061C24.9976 5.71326 24.9835 5.72771 24.9681 5.74418ZM25.1154 5.61751C25.1154 5.61772 25.113 5.61913 25.108 5.62106C25.1129 5.61826 25.1154 5.61729 25.1154 5.61751ZM24.9132 5.62106C24.9082 5.61913 24.9057 5.61772 24.9057 5.61751C24.9057 5.61744 24.906 5.61748 24.9064 5.61764C24.9074 5.61801 24.9097 5.61908 24.9132 5.62106ZM44.6324 12.1792C44.6322 12.1795 44.6281 12.1794 44.6205 12.1782C44.6288 12.1783 44.6326 12.1789 44.6324 12.1792ZM44.3254 11.957C44.3221 11.9501 44.3209 11.9462 44.3212 11.946C44.3214 11.9457 44.323 11.9491 44.3254 11.957ZM5.51682 11.6013C5.51702 11.6015 5.51607 11.6055 5.51338 11.6125C5.51528 11.6046 5.51662 11.6011 5.51682 11.6013ZM5.12312 11.9058C5.11562 11.9065 5.11154 11.9063 5.11137 11.906C5.1112 11.9058 5.11495 11.9055 5.12312 11.9058ZM28.5506 5.95313C28.218 5.06261 27.7912 4.28218 27.2481 3.69918C26.6995 3.11041 25.9408 2.63574 25.0106 2.63574C24.0803 2.63574 23.3217 3.11041 22.7731 3.69918C22.23 4.28218 21.8032 5.06263 21.4705 5.95316L21.4699 5.95486L17.8063 15.7174C17.6579 16.1013 17.4483 16.2294 17.3177 16.2695C17.1876 16.3095 16.9383 16.3225 16.5912 16.0851L8.47944 10.282L8.47826 10.2812C7.66248 9.69535 6.85332 9.25502 6.08385 9.04486C5.33113 8.83928 4.36199 8.7951 3.54982 9.40514C2.7372 10.0155 2.50957 10.9594 2.49805 11.7419C2.48628 12.5418 2.68554 13.4454 3.02429 14.3985L3.02522 14.4011L11.6469 38.5167L11.6487 38.522C11.9197 39.2918 12.4657 39.9054 13.0512 40.3191C13.6377 40.7335 14.3975 41.042 15.2085 41.042H34.7918C35.602 41.042 36.3568 40.7342 36.9369 40.3346C37.5163 39.9356 38.0643 39.3468 38.3537 38.6136C38.3598 38.5983 38.3656 38.5829 38.3711 38.5674L46.7878 15.0049L46.7894 15.0004C47.1542 13.9686 47.3646 12.9988 47.3509 12.147C47.3374 11.3128 47.0947 10.3342 46.2591 9.70233C45.4215 9.06899 44.4128 9.10443 43.6059 9.32304C42.7842 9.54568 41.912 10.0176 41.0234 10.6553L41.0212 10.6568L33.4082 16.0858L33.4049 16.0882C33.0706 16.322 32.8295 16.3092 32.7026 16.27C32.5739 16.2304 32.3635 16.1019 32.2148 15.7173L28.5513 5.95486L28.5506 5.95313ZM12.042 45.833C12.042 45.0046 12.7136 44.333 13.542 44.333H36.4587C37.2871 44.333 37.9587 45.0046 37.9587 45.833C37.9587 46.6614 37.2871 47.333 36.4587 47.333H13.542C12.7136 47.333 12.042 46.6614 12.042 45.833ZM19.792 27.667C18.9636 27.667 18.292 28.3386 18.292 29.167C18.292 29.9954 18.9636 30.667 19.792 30.667H30.2087C31.0371 30.667 31.7087 29.9954 31.7087 29.167C31.7087 28.3386 31.0371 27.667 30.2087 27.667H19.792Z" fill="url(#paint0_linear_13_3702)"/>
<defs>
<linearGradient id="paint0_linear_13_3702" x1="2.49756" y1="24.9844" x2="47.3515" y2="24.9844" gradientUnits="userSpaceOnUse">
<stop stop-color="#FAAA3D"/>
<stop offset="0.174964" stop-color="#EF4023"/>
<stop offset="0.343952" stop-color="#C81F41"/>
<stop offset="0.590537" stop-color="#6D2774"/>
<stop offset="1" stop-color="#06A4D9"/>
</linearGradient>
</defs>
</svg>
