<svg width="22" height="22" viewBox="0 0 22 22" fill="none" xmlns="http://www.w3.org/2000/svg">
<path d="M15.3073 17.3987H6.69063C6.30563 17.3987 5.87479 17.0962 5.74646 16.7295L1.95146 6.11453C1.41063 4.59286 2.04313 4.12536 3.3448 5.06036L6.9198 7.61786C7.51563 8.03036 8.19396 7.81953 8.45063 7.15036L10.064 2.8512C10.5773 1.4762 11.4298 1.4762 11.9431 2.8512L13.5565 7.15036C13.8131 7.81953 14.4915 8.03036 15.0781 7.61786L18.4331 5.22536C19.8631 4.1987 20.5506 4.7212 19.964 6.38036L16.2606 16.7479C16.1231 17.0962 15.6923 17.3987 15.3073 17.3987Z" stroke="#FAAA3D" stroke-width="1.5" stroke-linecap="round" stroke-linejoin="round"/>
<path d="M5.95898 20.1666H16.0423" stroke="#FAAA3D" stroke-width="1.5" stroke-linecap="round" stroke-linejoin="round"/>
<path d="M8.70898 12.8334H13.2923" stroke="#FAAA3D" stroke-width="1.5" stroke-linecap="round" stroke-linejoin="round"/>
</svg>
