<svg width="46" height="46" viewBox="0 0 46 46" fill="none" xmlns="http://www.w3.org/2000/svg">
<path fill-rule="evenodd" clip-rule="evenodd" d="M21.2862 4.65924L21.2876 4.65801C22.209 3.87156 23.8019 3.86317 24.7537 4.66125L27.9364 7.40098L27.9379 7.40223C28.3856 7.78986 28.9627 8.09278 29.5144 8.29887C30.0667 8.50522 30.7035 8.65562 31.3 8.65562H34.7337C36.1845 8.65562 37.382 9.85313 37.382 11.3037V14.7376C37.382 15.3257 37.5332 15.9626 37.738 16.5136C37.9425 17.0639 38.2448 17.6483 38.6348 18.0991L38.6367 18.1012L41.3782 21.2861L41.379 21.287C42.1659 22.2083 42.1745 23.8018 41.3762 24.7538L38.6367 27.9363L38.635 27.9383C38.2476 28.3859 37.9448 28.9628 37.7388 29.5142C37.5324 30.0666 37.382 30.7034 37.382 31.3V34.7338C37.382 36.1844 36.1845 37.3819 34.7337 37.3819H31.3C30.712 37.3819 30.075 37.5331 29.524 37.7379C28.9735 37.9424 28.3889 38.2449 27.938 38.6352L27.9364 38.6366L24.7514 41.378L24.7502 41.379C23.8288 42.1658 22.2356 42.1742 21.2837 41.3759L18.1012 38.6366L18.0993 38.6349C17.6516 38.2475 17.0747 37.9447 16.5233 37.7387C15.9709 37.5323 15.3341 37.3819 14.7376 37.3819H11.2433C9.79256 37.3819 8.59503 36.1844 8.59503 34.7338V31.2797C8.59503 30.6908 8.44336 30.059 8.24211 29.5153C8.04022 28.9699 7.74592 28.3984 7.37621 27.9547L7.37625 27.9547L7.36879 27.9459L4.64603 24.7392L4.64436 24.7372C3.86599 23.809 3.86594 22.2288 4.64423 21.3004L4.64603 21.2983L7.36879 18.0916L7.36883 18.0916L7.37621 18.0828C7.74592 17.6391 8.04022 17.0677 8.24211 16.5223C8.44336 15.9786 8.59503 15.3467 8.59503 14.7578V11.3037C8.59503 9.85313 9.79256 8.65562 11.2433 8.65562H14.7376C15.3256 8.65562 15.9626 8.50439 16.5136 8.29966C17.0641 8.09514 17.6486 7.79272 18.0995 7.40248L18.1012 7.40098L21.2862 4.65924ZM26.3694 2.75341C24.4934 1.17228 21.5262 1.16467 19.6615 2.75916L19.6583 2.76186L16.4671 5.50903L16.4639 5.51175C16.3091 5.64595 16.0158 5.81764 15.6429 5.95619C15.2698 6.0948 14.9372 6.15562 14.7376 6.15562H11.2433C8.41195 6.15562 6.09503 8.47232 6.09503 11.3037V14.7578C6.09503 14.9566 6.03463 15.2842 5.89757 15.6544C5.76216 16.0202 5.59343 16.3156 5.45867 16.4787L2.73631 19.6849L2.7363 19.6849L2.73231 19.6897C1.16996 21.5483 1.16996 24.4892 2.73231 26.3479L2.7323 26.3479L2.73631 26.3526L5.45864 29.5588C5.5934 29.7219 5.76215 30.0173 5.89757 30.3831C6.03463 30.7534 6.09503 31.0809 6.09503 31.2797V34.7338C6.09503 37.5652 8.41195 39.8819 11.2433 39.8819H14.7376C14.949 39.8819 15.2816 39.9436 15.6484 40.0806C16.0151 40.2176 16.3059 40.3889 16.4639 40.5258L16.4671 40.5285L19.6584 43.2755L19.6583 43.2755L19.6683 43.2839C21.5442 44.865 24.5114 44.8726 26.3761 43.2781L26.3792 43.2755L29.5706 40.5285L29.5738 40.5258C29.7286 40.3916 30.0219 40.2199 30.3948 40.0813C30.7678 39.9427 31.1004 39.8819 31.3 39.8819H34.7337C37.5651 39.8819 39.882 37.5652 39.882 34.7338V31.3C39.882 31.0886 39.9436 30.7559 40.0806 30.3892C40.2177 30.0224 40.389 29.7316 40.5259 29.5736L40.5287 29.5705L43.2756 26.3792L43.2757 26.3793L43.2841 26.3693C44.8652 24.4934 44.8728 21.5262 43.2783 19.6614L43.2756 19.6583L40.5287 16.4671L40.5259 16.4639C40.3917 16.309 40.22 16.0157 40.0814 15.6428C39.9428 15.2698 39.882 14.9372 39.882 14.7376V11.3037C39.882 8.47232 37.5651 6.15562 34.7337 6.15562H31.3C31.0886 6.15562 30.756 6.09397 30.3893 5.95698C30.0225 5.81995 29.7318 5.64868 29.5738 5.51175L29.5706 5.50902L26.3793 2.76185L26.3793 2.7618L26.3694 2.75341ZM25.0486 12.908C26.4267 13.3806 27.3655 14.8821 27.0734 16.3541L26.671 18.9786H30.0371C31.0796 18.9786 32.0338 19.4123 32.6238 20.2184C33.2146 21.0258 33.3356 22.0652 32.9902 23.0554L30.7801 29.8042C30.5474 30.6787 29.9776 31.38 29.3274 31.8542C28.6659 32.3365 27.8314 32.6508 26.9757 32.6508H23.4571C23.0621 32.6508 22.5999 32.5897 22.1656 32.467C21.7911 32.3612 21.2963 32.1709 20.8985 31.8171L19.3206 30.7065C19.2629 30.7735 19.2005 30.8385 19.1329 30.901C18.4787 31.507 17.6135 31.6341 16.8572 31.6341H15.9229C15.1773 31.6341 14.3089 31.5161 13.6512 30.9122C12.9668 30.2839 12.8042 29.408 12.8042 28.6148V19.5102C12.8042 18.7169 12.9668 17.841 13.6512 17.2127C14.3089 16.6089 15.1773 16.4909 15.9229 16.4909H16.8572C17.5979 16.4909 18.4605 16.6109 19.1177 17.2093C19.144 17.2333 19.1697 17.2577 19.1945 17.2824L21.5611 14.021C21.9309 13.4868 22.4963 13.1161 23.0626 12.9198C23.6362 12.721 24.353 12.6524 25.0486 12.908ZM22.4073 29.8219L19.9758 28.1105V20.4624L23.5941 15.476L23.6057 15.4601L23.6168 15.4438C23.6167 15.4439 23.6167 15.4438 23.6169 15.4437C23.6185 15.4415 23.6381 15.4162 23.6875 15.3807C23.7388 15.3439 23.8057 15.3082 23.8814 15.2819C24.0468 15.2246 24.1551 15.2428 24.1876 15.2551L24.211 15.2639L24.2347 15.2718C24.5007 15.3605 24.6581 15.6953 24.6203 15.8717L24.6126 15.9077L24.607 15.9442L24.1498 18.9261L24.1469 18.9455L24.1445 18.9651C23.9747 20.3658 25.0133 21.4786 26.3197 21.4786H30.0371C30.3862 21.4786 30.5453 21.6115 30.6063 21.6949C30.6634 21.7729 30.7332 21.9395 30.628 22.2369L30.623 22.2508L30.6184 22.2648L28.392 29.0636L28.3781 29.1061L28.3672 29.1495C28.3132 29.3657 28.1464 29.6212 27.8545 29.8341C27.5617 30.0476 27.2333 30.1508 26.9757 30.1508H23.4571C23.2955 30.1508 23.0619 30.1223 22.8452 30.0611C22.7401 30.0315 22.659 29.9996 22.6034 29.9719C22.5794 29.9599 22.565 29.9511 22.5583 29.9468L22.4955 29.884L22.4073 29.8219ZM17.4748 19.6524L17.4758 19.6509V19.5102C17.4758 19.2385 17.4427 19.1087 17.4233 19.057C17.411 19.0523 17.3936 19.0464 17.3698 19.04C17.2748 19.0144 17.114 18.9909 16.8572 18.9909H15.9229C15.6596 18.9909 15.4962 19.0147 15.4006 19.0403C15.381 19.0455 15.3659 19.0504 15.3544 19.0546C15.3354 19.1091 15.3042 19.241 15.3042 19.5102V28.6148C15.3042 28.8839 15.3354 29.0158 15.3544 29.0704C15.3659 29.0745 15.381 29.0794 15.4006 29.0846C15.4962 29.1102 15.6596 29.1341 15.9229 29.1341H16.8572C17.2143 29.1341 17.3705 29.088 17.4238 29.0669C17.4429 29.0156 17.4758 28.8862 17.4758 28.6148V19.6531L17.4748 19.6524ZM15.367 19.026C15.3684 19.0237 15.369 19.0224 15.3689 19.0223C15.3688 19.0222 15.3683 19.0228 15.3673 19.0244C15.3667 19.0256 15.3658 19.0271 15.3648 19.0292C15.3657 19.028 15.3664 19.0269 15.367 19.026ZM17.4482 19.0685L17.4463 19.0673C17.4477 19.068 17.4483 19.0684 17.4482 19.0685ZM17.4144 19.0363C17.4109 19.0315 17.4094 19.0287 17.4096 19.0285C17.4098 19.0283 17.4115 19.0306 17.4144 19.0363ZM17.4105 29.0949C17.4103 29.0947 17.4116 29.0923 17.4147 29.0881C17.4121 29.093 17.4106 29.0951 17.4105 29.0949ZM15.3251 29.0576L15.3269 29.0587C15.3256 29.058 15.325 29.0576 15.3251 29.0576ZM15.3648 29.0958C15.3678 29.1 15.3691 29.1025 15.3689 29.1027C15.3688 29.1029 15.3673 29.1008 15.3648 29.0958Z" fill="url(#paint0_linear_391_3443)"/>
<defs>
<linearGradient id="paint0_linear_391_3443" x1="1.56055" y1="23.0186" x2="44.4721" y2="23.0186" gradientUnits="userSpaceOnUse">
<stop stop-color="#FAAA3D"/>
<stop offset="0.174964" stop-color="#EF4023"/>
<stop offset="0.343952" stop-color="#C81F41"/>
<stop offset="0.590537" stop-color="#6D2774"/>
<stop offset="1" stop-color="#06A4D9"/>
</linearGradient>
</defs>
</svg>
