<svg width="20" height="21" viewBox="0 0 20 21" fill="none" xmlns="http://www.w3.org/2000/svg">
<path d="M19.2226 16.6359C19.2226 16.9659 19.1492 17.305 18.9934 17.635C18.8376 17.965 18.6359 18.2767 18.3701 18.57C17.9209 19.065 17.4259 19.4225 16.8667 19.6517C16.3167 19.8809 15.7209 20 15.0792 20C14.1442 20 13.1451 19.78 12.0909 19.3309C11.0367 18.8817 9.98258 18.2767 8.93758 17.5159C7.88341 16.7459 6.88425 15.8934 5.93091 14.9492C4.98675 13.9959 4.13425 12.9967 3.37341 11.9517C2.62175 10.9067 2.01675 9.86169 1.57675 8.82585C1.13675 7.78085 0.916748 6.78169 0.916748 5.82835C0.916748 5.20502 1.02675 4.60919 1.24675 4.05919C1.46675 3.50002 1.81508 2.98669 2.30091 2.52835C2.88758 1.95085 3.52925 1.66669 4.20758 1.66669C4.46425 1.66669 4.72091 1.72169 4.95008 1.83169C5.18841 1.94169 5.39925 2.10669 5.56425 2.34502L7.69091 5.34252C7.85591 5.57169 7.97508 5.78252 8.05758 5.98419C8.14008 6.17669 8.18591 6.36919 8.18591 6.54335C8.18591 6.76335 8.12175 6.98335 7.99341 7.19419C7.87425 7.40502 7.70008 7.62502 7.48008 7.84502L6.78341 8.56919C6.68258 8.67002 6.63675 8.78919 6.63675 8.93585C6.63675 9.00919 6.64591 9.07335 6.66425 9.14669C6.69175 9.22002 6.71925 9.27502 6.73758 9.33002C6.90258 9.63252 7.18675 10.0267 7.59008 10.5034C8.00258 10.98 8.44258 11.4659 8.91925 11.9517C9.41425 12.4375 9.89091 12.8867 10.3767 13.2992C10.8534 13.7025 11.2476 13.9775 11.5592 14.1425C11.6051 14.1609 11.6601 14.1884 11.7242 14.2159C11.7976 14.2434 11.8709 14.2525 11.9534 14.2525C12.1092 14.2525 12.2284 14.1975 12.3292 14.0967L13.0259 13.4092C13.2551 13.18 13.4751 13.0059 13.6859 12.8959C13.8967 12.7675 14.1076 12.7034 14.3367 12.7034C14.5109 12.7034 14.6942 12.74 14.8959 12.8225C15.0976 12.905 15.3084 13.0242 15.5376 13.18L18.5717 15.3342C18.8101 15.4992 18.9751 15.6917 19.0759 15.9209C19.1676 16.15 19.2226 16.3792 19.2226 16.6359Z" stroke="white" stroke-width="1.5" stroke-miterlimit="10"/>
</svg>
