<svg width="27" height="27" viewBox="0 0 27 27" fill="none" xmlns="http://www.w3.org/2000/svg">
<path d="M8.35 1.075L8.3648 1.82485L8.37847 1.82458L8.39212 1.82382L8.35 1.075ZM18.65 1.075L18.6079 1.82382L18.6215 1.82458L18.6352 1.82485L18.65 1.075ZM21.6917 1.65833L21.428 2.36046L21.4291 2.36086L21.6917 1.65833ZM23.9 3.1L23.3625 3.62306L23.3696 3.63038L23.3769 3.6375L23.9 3.1ZM25.3417 5.30833L24.6391 5.57094L24.6395 5.572L25.3417 5.30833ZM25.925 8.35L25.1751 8.3648L25.1754 8.37847L25.1762 8.39212L25.925 8.35ZM25.925 18.65L25.1762 18.6079L25.1754 18.6215L25.1751 18.6352L25.925 18.65ZM25.3417 21.6917L26.0406 21.9639L26.0438 21.9553L25.3417 21.6917ZM21.6917 25.3417L21.9553 26.0438L21.9639 26.0405L21.6917 25.3417ZM18.65 25.925L18.6352 25.1751L18.6215 25.1754L18.6079 25.1762L18.65 25.925ZM8.35 25.925L8.38278 25.1757L8.37379 25.1753L8.3648 25.1751L8.35 25.925ZM5.30833 25.3417L5.572 24.6395L5.57094 24.6391L5.30833 25.3417ZM3.1 23.9L3.6375 23.3769L3.63038 23.3696L3.62306 23.3625L3.1 23.9ZM1.65833 21.6917L2.36086 21.4291L2.36046 21.428L1.65833 21.6917ZM1.075 18.65L1.82485 18.6352L1.82458 18.6215L1.82382 18.6079L1.075 18.65ZM1.075 8.35L1.82382 8.39212L1.82458 8.37847L1.82485 8.3648L1.075 8.35ZM1.65833 5.30833L2.36046 5.572L2.36086 5.57094L1.65833 5.30833ZM3.1 3.1L3.62306 3.6375L3.63038 3.63038L3.6375 3.62306L3.1 3.1ZM5.30833 1.65833L5.57094 2.36086L5.572 2.36046L5.30833 1.65833ZM10.4445 8.92737L10.0278 8.30377V8.30377L10.4445 8.92737ZM17.3892 9.61137L17.9195 9.08104V9.08104L17.3892 9.61137ZM18.0732 16.5561L17.4496 16.1394L18.0732 16.5561ZM9.61102 17.3895L9.08069 17.9199H9.08069L9.61102 17.3895ZM13.5 0.25C10.1128 0.25 9.66605 0.249786 8.30788 0.326184L8.39212 1.82382C9.70061 1.75021 10.1039 1.75 13.5 1.75V0.25ZM18.6921 0.326184C17.3339 0.249786 16.8872 0.25 13.5 0.25V1.75C16.8961 1.75 17.2994 1.75021 18.6079 1.82382L18.6921 0.326184ZM21.9553 0.956207C20.9022 0.560742 19.7895 0.347343 18.6648 0.325146L18.6352 1.82485C19.5898 1.84369 20.5342 2.02481 21.428 2.36046L21.9553 0.956207ZM24.4375 2.57694C23.7396 1.85981 22.8916 1.30617 21.9543 0.955809L21.4291 2.36086C22.1588 2.63365 22.8191 3.06471 23.3625 3.62306L24.4375 2.57694ZM26.0442 5.04573C25.6938 4.10843 25.1402 3.26037 24.4231 2.5625L23.3769 3.6375C23.9353 4.18086 24.3664 4.84115 24.6391 5.57094L26.0442 5.04573ZM26.6749 8.3352C26.6527 7.2105 26.4393 6.09778 26.0438 5.04467L24.6395 5.572C24.9752 6.46581 25.1563 7.41022 25.1751 8.3648L26.6749 8.3352ZM26.75 13.5C26.75 10.1128 26.7502 9.66605 26.6738 8.30788L25.1762 8.39212C25.2498 9.70061 25.25 10.1039 25.25 13.5H26.75ZM26.6738 18.6921C26.7502 17.3339 26.75 16.8872 26.75 13.5H25.25C25.25 16.8961 25.2498 17.2994 25.1762 18.6079L26.6738 18.6921ZM26.0438 21.9553C26.4393 20.9022 26.6527 19.7895 26.6749 18.6648L25.1751 18.6352C25.1563 19.5898 24.9752 20.5342 24.6395 21.428L26.0438 21.9553ZM24.4302 24.4302C25.132 23.7285 25.6803 22.8886 26.0405 21.9639L24.6428 21.4194C24.358 22.1506 23.9244 22.8147 23.3695 23.3695L24.4302 24.4302ZM21.9639 26.0405C22.8886 25.6803 23.7285 25.132 24.4302 24.4302L23.3695 23.3695C22.8147 23.9244 22.1506 24.358 21.4194 24.6428L21.9639 26.0405ZM18.6648 26.6749C19.7895 26.6527 20.9022 26.4393 21.9553 26.0438L21.428 24.6395C20.5342 24.9752 19.5898 25.1563 18.6352 25.1751L18.6648 26.6749ZM13.5 26.75C16.8872 26.75 17.3339 26.7502 18.6921 26.6738L18.6079 25.1762C17.2994 25.2498 16.8961 25.25 13.5 25.25V26.75ZM8.31722 26.6743C9.66622 26.7333 10.1035 26.75 13.5 26.75V25.25C10.1132 25.25 9.70045 25.2334 8.38278 25.1757L8.31722 26.6743ZM5.04467 26.0438C6.09778 26.4393 7.2105 26.6527 8.3352 26.6749L8.3648 25.1751C7.41022 25.1563 6.46581 24.9752 5.572 24.6395L5.04467 26.0438ZM2.5625 24.4231C3.26037 25.1402 4.10843 25.6938 5.04573 26.0442L5.57094 24.6391C4.84115 24.3664 4.18086 23.9353 3.6375 23.3769L2.5625 24.4231ZM0.955809 21.9543C1.30617 22.8916 1.85981 23.7396 2.57694 24.4375L3.62306 23.3625C3.06471 22.8191 2.63365 22.1588 2.36086 21.4291L0.955809 21.9543ZM0.325146 18.6648C0.347343 19.7895 0.560742 20.9022 0.956207 21.9553L2.36046 21.428C2.02481 20.5342 1.84369 19.5898 1.82485 18.6352L0.325146 18.6648ZM0.25 13.5C0.25 16.8872 0.249786 17.3339 0.326184 18.6921L1.82382 18.6079C1.75021 17.2994 1.75 16.8961 1.75 13.5H0.25ZM0.326184 8.30788C0.249786 9.66605 0.25 10.1128 0.25 13.5H1.75C1.75 10.1039 1.75021 9.70061 1.82382 8.39212L0.326184 8.30788ZM0.956207 5.04467C0.560742 6.09778 0.347343 7.2105 0.325146 8.3352L1.82485 8.3648C1.84369 7.41022 2.02481 6.46581 2.36046 5.572L0.956207 5.04467ZM2.57694 2.5625C1.85981 3.26037 1.30617 4.10843 0.955809 5.04573L2.36086 5.57094C2.63365 4.84115 3.06471 4.18086 3.62306 3.6375L2.57694 2.5625ZM5.04573 0.955809C4.10843 1.30617 3.26037 1.85981 2.5625 2.57694L3.6375 3.62306C4.18086 3.06471 4.84115 2.63365 5.57094 2.36086L5.04573 0.955809ZM8.3352 0.325146C7.2105 0.347343 6.09778 0.560742 5.04467 0.956207L5.572 2.36046C6.46581 2.02481 7.41022 1.84369 8.3648 1.82485L8.3352 0.325146ZM13.5001 7.25045C12.264 7.25045 11.0556 7.61701 10.0278 8.30377L10.8612 9.55097C11.6423 9.02904 12.5606 8.75045 13.5001 8.75045V7.25045ZM17.9195 9.08104C16.7474 7.90894 15.1577 7.25045 13.5001 7.25045V8.75045C14.7599 8.75045 15.9681 9.2509 16.8589 10.1417L17.9195 9.08104ZM19.7501 13.5005C19.7501 11.8429 19.0916 10.2531 17.9195 9.08104L16.8589 10.1417C17.7497 11.0325 18.2501 12.2407 18.2501 13.5005H19.7501ZM18.6968 16.9728C19.3836 15.945 19.7501 14.7366 19.7501 13.5005H18.2501C18.2501 14.4399 17.9715 15.3583 17.4496 16.1394L18.6968 16.9728ZM15.8919 19.2747C17.0339 18.8017 18.01 18.0006 18.6968 16.9728L17.4496 16.1394C16.9277 16.9205 16.1858 17.5294 15.3179 17.8889L15.8919 19.2747ZM12.2808 19.6304C13.4932 19.8715 14.7498 19.7477 15.8919 19.2747L15.3179 17.8889C14.4499 18.2484 13.4948 18.3425 12.5734 18.1592L12.2808 19.6304ZM9.08069 17.9199C9.95477 18.7939 11.0684 19.3892 12.2808 19.6304L12.5734 18.1592C11.652 17.9759 10.8057 17.5235 10.1414 16.8592L9.08069 17.9199ZM7.3702 14.7198C7.61136 15.9321 8.20661 17.0458 9.08069 17.9199L10.1414 16.8592C9.47705 16.1949 9.02466 15.3485 8.84138 14.4271L7.3702 14.7198ZM7.72586 11.1087C7.25282 12.2507 7.12905 13.5074 7.3702 14.7198L8.84138 14.4271C8.6581 13.5057 8.75217 12.5507 9.11168 11.6827L7.72586 11.1087ZM10.0278 8.30377C8.99999 8.99053 8.19891 9.96664 7.72586 11.1087L9.11168 11.6827C9.4712 10.8148 10.08 10.0729 10.8612 9.55097L10.0278 8.30377Z" fill="white"/>
</svg>
