<svg width="37" height="37" viewBox="0 0 37 37" fill="none" xmlns="http://www.w3.org/2000/svg">
<path d="M11.29 1.105L11.3097 2.10481L11.328 2.10445L11.3462 2.10342L11.29 1.105ZM25.71 1.105L25.6538 2.10342L25.672 2.10445L25.6903 2.10481L25.71 1.105ZM29.9683 1.92167L29.6168 2.85784L29.6182 2.85837L29.9683 1.92167ZM33.06 3.94L32.3433 4.63742L32.3528 4.64717L32.3626 4.65666L33.06 3.94ZM35.0783 7.03167L34.1416 7.3818L34.1422 7.38322L35.0783 7.03167ZM35.895 11.29L34.8952 11.3097L34.8955 11.328L34.8966 11.3462L35.895 11.29ZM35.895 25.71L34.8966 25.6538L34.8955 25.672L34.8952 25.6903L35.895 25.71ZM35.0783 29.9683L36.0102 30.3313L36.0145 30.3199L35.0783 29.9683ZM33.0598 33.0598L33.7669 33.7669L33.7669 33.7669L33.0598 33.0598ZM29.9683 35.0783L30.3199 36.0146L30.3313 36.0101L29.9683 35.0783ZM25.71 35.895L25.6903 34.8952L25.672 34.8955L25.6538 34.8966L25.71 35.895ZM11.29 35.895L11.3337 34.896L11.3217 34.8954L11.3097 34.8952L11.29 35.895ZM7.03167 35.0783L7.38322 34.1422L7.3818 34.1416L7.03167 35.0783ZM3.94 33.06L4.65666 32.3626L4.64717 32.3528L4.63742 32.3433L3.94 33.06ZM1.92167 29.9683L2.85837 29.6182L2.85784 29.6168L1.92167 29.9683ZM1.105 25.71L2.10481 25.6903L2.10445 25.672L2.10342 25.6538L1.105 25.71ZM1.105 11.29L2.10342 11.3462L2.10445 11.328L2.10481 11.3097L1.105 11.29ZM1.92167 7.03167L2.85784 7.38322L2.85837 7.3818L1.92167 7.03167ZM3.94 3.94L4.63742 4.65666L4.64717 4.64717L4.65666 4.63742L3.94 3.94ZM7.03167 1.92167L7.3818 2.85837L7.38322 2.85784L7.03167 1.92167ZM14.2221 12.0977L14.7777 12.9292L14.2221 12.0977ZM23.9447 13.0553L24.6518 12.3482H24.6518L23.9447 13.0553ZM21.4467 25.6139L21.064 24.69H21.064L21.4467 25.6139ZM16.9978 26.052L17.1929 25.0713L16.9978 26.052ZM10.948 20.0022L9.96717 20.1973L10.948 20.0022ZM11.3861 15.5533L12.31 15.936V15.936L11.3861 15.5533ZM18.5 0C13.7576 0 13.1336 -0.000284791 11.2338 0.106578L11.3462 2.10342C13.1797 2.00028 13.7458 2 18.5 2V0ZM25.7662 0.106578C23.8664 -0.000284791 23.2424 0 18.5 0V2C23.2542 2 23.8203 2.00028 25.6538 2.10342L25.7662 0.106578ZM30.3199 0.985498C28.8508 0.433841 27.2986 0.136159 25.7297 0.105195L25.6903 2.10481C27.0323 2.13129 28.3601 2.38594 29.6168 2.85784L30.3199 0.985498ZM33.7767 3.24258C32.8048 2.2439 31.6238 1.47289 30.3185 0.984968L29.6182 2.85837C30.6468 3.24286 31.5775 3.85043 32.3433 4.63742L33.7767 3.24258ZM36.015 6.68153C35.5271 5.37622 34.7561 4.1952 33.7574 3.22334L32.3626 4.65666C33.1496 5.42252 33.7571 6.35319 34.1416 7.3818L36.015 6.68153ZM36.8948 11.2703C36.8638 9.70136 36.5662 8.14916 36.0145 6.68012L34.1422 7.38322C34.6141 8.63987 34.8687 9.96766 34.8952 11.3097L36.8948 11.2703ZM37 18.5C37 13.7576 37.0003 13.1336 36.8934 11.2338L34.8966 11.3462C34.9997 13.1797 35 13.7458 35 18.5H37ZM36.8934 25.7662C37.0003 23.8664 37 23.2424 37 18.5H35C35 23.2542 34.9997 23.8203 34.8966 25.6538L36.8934 25.7662ZM36.0145 30.3199C36.5662 28.8508 36.8638 27.2986 36.8948 25.7297L34.8952 25.6903C34.8687 27.0323 34.6141 28.3601 34.1422 29.6168L36.0145 30.3199ZM33.7669 33.7669C34.7445 32.7894 35.5083 31.6195 36.0101 30.3313L34.1465 29.6054C33.7453 30.6355 33.1344 31.571 32.3527 32.3527L33.7669 33.7669ZM30.3313 36.0101C31.6195 35.5083 32.7894 34.7445 33.7669 33.7669L32.3527 32.3527C31.571 33.1344 30.6355 33.7453 29.6054 34.1465L30.3313 36.0101ZM25.7297 36.8948C27.2986 36.8638 28.8508 36.5662 30.3199 36.0145L29.6168 34.1422C28.3601 34.6141 27.0323 34.8687 25.6903 34.8952L25.7297 36.8948ZM18.5 37C23.2424 37 23.8664 37.0003 25.7662 36.8934L25.6538 34.8966C23.8203 34.9997 23.2542 35 18.5 35V37ZM11.2463 36.894C13.1338 36.9766 13.7452 37 18.5 37V35C13.7581 35 13.1795 34.9767 11.3337 34.896L11.2463 36.894ZM6.68012 36.0145C8.14916 36.5662 9.70136 36.8638 11.2703 36.8948L11.3097 34.8952C9.96766 34.8687 8.63987 34.6141 7.38322 34.1422L6.68012 36.0145ZM3.22334 33.7574C4.1952 34.7561 5.37622 35.5271 6.68153 36.015L7.3818 34.1416C6.35319 33.7571 5.42252 33.1496 4.65666 32.3626L3.22334 33.7574ZM0.984968 30.3185C1.47289 31.6238 2.2439 32.8048 3.24258 33.7767L4.63742 32.3433C3.85043 31.5775 3.24286 30.6468 2.85837 29.6182L0.984968 30.3185ZM0.105195 25.7297C0.136159 27.2986 0.433841 28.8508 0.985498 30.3199L2.85784 29.6168C2.38594 28.3601 2.13129 27.0323 2.10481 25.6903L0.105195 25.7297ZM0 18.5C0 23.2424 -0.000284791 23.8664 0.106578 25.7662L2.10342 25.6538C2.00028 23.8203 2 23.2542 2 18.5H0ZM0.106578 11.2338C-0.000284791 13.1336 0 13.7576 0 18.5H2C2 13.7458 2.00028 13.1797 2.10342 11.3462L0.106578 11.2338ZM0.985498 6.68012C0.433841 8.14916 0.136159 9.70136 0.105195 11.2703L2.10481 11.3097C2.13129 9.96766 2.38594 8.63987 2.85784 7.38322L0.985498 6.68012ZM3.24258 3.22334C2.2439 4.1952 1.47289 5.37622 0.984968 6.68153L2.85837 7.3818C3.24286 6.35319 3.85043 5.42252 4.63742 4.65666L3.24258 3.22334ZM6.68153 0.984968C5.37622 1.47289 4.1952 2.2439 3.22334 3.24258L4.65666 4.63742C5.42252 3.85043 6.35319 3.24286 7.3818 2.85837L6.68153 0.984968ZM11.2703 0.105195C9.70136 0.136159 8.14916 0.433841 6.68012 0.985498L7.38322 2.85784C8.63987 2.38594 9.96766 2.13129 11.3097 2.10481L11.2703 0.105195ZM18.5 9.8C16.7793 9.8 15.0972 10.3102 13.6665 11.2662L14.7777 12.9292C15.8795 12.1929 17.1749 11.8 18.5 11.8V9.8ZM24.6518 12.3482C23.0203 10.7166 20.8074 9.8 18.5 9.8V11.8C20.277 11.8 21.9811 12.5059 23.2376 13.7624L24.6518 12.3482ZM27.2 18.5C27.2 16.1926 26.2834 13.9797 24.6518 12.3482L23.2376 13.7624C24.4941 15.0189 25.2 16.723 25.2 18.5H27.2ZM25.7338 23.3335C26.6898 21.9028 27.2 20.2207 27.2 18.5H25.2C25.2 19.8251 24.8071 21.1205 24.0708 22.2223L25.7338 23.3335ZM21.8293 26.5377C23.4191 25.8793 24.7778 24.7642 25.7338 23.3335L24.0708 22.2223C23.3346 23.3241 22.2882 24.1829 21.064 24.69L21.8293 26.5377ZM16.8027 27.0328C18.4903 27.3685 20.2396 27.1962 21.8293 26.5377L21.064 24.69C19.8397 25.1971 18.4926 25.3298 17.1929 25.0713L16.8027 27.0328ZM12.3482 24.6518C13.5649 25.8685 15.1151 26.6971 16.8027 27.0328L17.1929 25.0713C15.8932 24.8127 14.6994 24.1746 13.7624 23.2376L12.3482 24.6518ZM9.96717 20.1973C10.3029 21.8849 11.1315 23.4351 12.3482 24.6518L13.7624 23.2376C12.8254 22.3006 12.1873 21.1068 11.9287 19.8071L9.96717 20.1973ZM10.4623 15.1707C9.80377 16.7604 9.63148 18.5096 9.96717 20.1973L11.9287 19.8071C11.6702 18.5074 11.8029 17.1603 12.31 15.936L10.4623 15.1707ZM13.6665 11.2662C12.2358 12.2222 11.1207 13.5809 10.4623 15.1707L12.31 15.936C12.8171 14.7118 13.6759 13.6654 14.7777 12.9292L13.6665 11.2662Z" fill="white"/>
<path d="M30.7503 9.06189C30.748 9.47623 30.6232 9.88063 30.3916 10.2242C30.1599 10.5677 29.8318 10.8351 29.4486 10.9926C29.0653 11.1501 28.6441 11.1907 28.2378 11.1093C27.8315 11.0279 27.4584 10.8281 27.1654 10.5351C26.8724 10.2421 26.6727 9.86902 26.5913 9.46275C26.5099 9.05648 26.5505 8.63521 26.708 8.25197C26.8655 7.86872 27.1328 7.54063 27.4764 7.309C27.8199 7.07736 28.2243 6.95254 28.6387 6.95023C28.9164 6.94868 29.1917 7.00224 29.4486 7.10782C29.7055 7.21339 29.9389 7.36888 30.1353 7.56527C30.3317 7.76167 30.4872 7.99507 30.5927 8.25197C30.6983 8.50887 30.7519 8.78415 30.7503 9.06189Z" fill="white"/>
</svg>
