<svg width="94" height="107" viewBox="0 0 94 107" fill="none" xmlns="http://www.w3.org/2000/svg">
<g filter="url(#filter0_d_267_2386)">
<path fill-rule="evenodd" clip-rule="evenodd" d="M51.5955 74.1953C52.8143 72.9773 65.3852 60.4005 65.3852 60.4005C69.0213 56.763 71.4974 52.1285 72.5005 47.0832C73.5036 42.0379 72.9887 36.8083 71.0207 32.0558C69.0528 27.3033 65.7203 23.2412 61.4447 20.3833C57.169 17.5254 52.1423 16 47 16C41.8577 16 36.831 17.5254 32.5553 20.3833C28.2797 23.2412 24.9472 27.3033 22.9793 32.0558C21.0114 36.8083 20.4964 42.0379 21.4995 47.0832C22.5026 52.1285 24.9787 56.763 28.6148 60.4005C28.6148 60.4005 41.189 72.9773 42.4078 74.1953C43.6266 75.4134 47.0016 81 47.0016 81C47.0016 81 50.3767 75.4134 51.5955 74.1953ZM56.7499 42.0086C56.7499 47.3953 52.3847 51.7622 46.9999 51.7622C41.6151 51.7622 37.2499 47.3953 37.2499 42.0086C37.2499 36.6218 41.6151 32.255 46.9999 32.255C52.3847 32.255 56.7499 36.6218 56.7499 42.0086Z" fill="#C81F41"/>
<path fill-rule="evenodd" clip-rule="evenodd" d="M51.5955 74.1953C52.8143 72.9773 65.3852 60.4005 65.3852 60.4005C69.0213 56.763 71.4974 52.1285 72.5005 47.0832C73.5036 42.0379 72.9887 36.8083 71.0207 32.0558C69.0528 27.3033 65.7203 23.2412 61.4447 20.3833C57.169 17.5254 52.1423 16 47 16C41.8577 16 36.831 17.5254 32.5553 20.3833C28.2797 23.2412 24.9472 27.3033 22.9793 32.0558C21.0114 36.8083 20.4964 42.0379 21.4995 47.0832C22.5026 52.1285 24.9787 56.763 28.6148 60.4005C28.6148 60.4005 41.189 72.9773 42.4078 74.1953C43.6266 75.4134 47.0016 81 47.0016 81C47.0016 81 50.3767 75.4134 51.5955 74.1953ZM56.7499 42.0086C56.7499 47.3953 52.3847 51.7622 46.9999 51.7622C41.6151 51.7622 37.2499 47.3953 37.2499 42.0086C37.2499 36.6218 41.6151 32.255 46.9999 32.255C52.3847 32.255 56.7499 36.6218 56.7499 42.0086Z" stroke="white" stroke-width="2" stroke-linecap="round" stroke-linejoin="round"/>
</g>
<defs>
<filter id="filter0_d_267_2386" x="0" y="0" width="94" height="107" filterUnits="userSpaceOnUse" color-interpolation-filters="sRGB">
<feFlood flood-opacity="0" result="BackgroundImageFix"/>
<feColorMatrix in="SourceAlpha" type="matrix" values="0 0 0 0 0 0 0 0 0 0 0 0 0 0 0 0 0 0 127 0" result="hardAlpha"/>
<feOffset dy="5"/>
<feGaussianBlur stdDeviation="10"/>
<feComposite in2="hardAlpha" operator="out"/>
<feColorMatrix type="matrix" values="0 0 0 0 0.0862745 0 0 0 0 0.0431373 0 0 0 0 0.0823529 0 0 0 0.2 0"/>
<feBlend mode="normal" in2="BackgroundImageFix" result="effect1_dropShadow_267_2386"/>
<feBlend mode="normal" in="SourceGraphic" in2="effect1_dropShadow_267_2386" result="shape"/>
</filter>
</defs>
</svg>
