<svg width="50" height="50" viewBox="0 0 50 50" fill="none" xmlns="http://www.w3.org/2000/svg">
<path fill-rule="evenodd" clip-rule="evenodd" d="M5.6665 14.0423C5.6665 10.5203 6.14196 8.92256 6.97977 8.08475C7.81758 7.24694 9.41529 6.77148 12.9373 6.77148H34.8748C38.3969 6.77148 39.9946 7.24694 40.8324 8.08475C41.6702 8.92256 42.1457 10.5203 42.1457 14.0423C42.1457 14.8707 42.8172 15.5423 43.6457 15.5423C44.4741 15.5423 45.1457 14.8707 45.1457 14.0423C45.1457 10.5435 44.7461 7.75583 42.9537 5.96343C41.1613 4.17103 38.3736 3.77148 34.8748 3.77148H12.9373C9.43855 3.77148 6.65085 4.17103 4.85845 5.96343C3.06605 7.75583 2.6665 10.5435 2.6665 14.0423V26.5423C2.6665 26.6661 2.667 26.7889 2.66805 26.9108C2.66702 26.9336 2.6665 26.9565 2.6665 26.9795C2.6665 27.0135 2.66764 27.0472 2.66986 27.0807C2.71167 30.3275 3.15897 32.9217 4.85845 34.6212C6.65085 36.4136 9.43855 36.8132 12.9373 36.8132H19.3335V43.2285H14.0415C13.2131 43.2285 12.5415 43.9001 12.5415 44.7285C12.5415 45.5569 13.2131 46.2285 14.0415 46.2285H20.763C20.7864 46.2296 20.8099 46.2301 20.8335 46.2301C21.6619 46.2301 22.3335 45.5586 22.3335 44.7301V35.3135C22.3335 34.8943 22.1616 34.5153 21.8844 34.2432C21.6137 33.9772 21.2426 33.8132 20.8332 33.8132H12.9373C9.41529 33.8132 7.81758 33.3377 6.97977 32.4999C6.31408 31.8342 5.87716 30.6888 5.72573 28.4795H20.8332C21.6616 28.4795 22.3332 27.8079 22.3332 26.9795C22.3332 26.1511 21.6616 25.4795 20.8332 25.4795H5.6665V14.0423ZM36.4582 22.334C33.2595 22.334 30.6665 24.927 30.6665 28.1257C30.6665 31.3243 33.2595 33.9173 36.4582 33.9173C39.6568 33.9173 42.2498 31.3243 42.2498 28.1257C42.2498 24.927 39.6568 22.334 36.4582 22.334ZM27.6665 28.1257C27.6665 23.2701 31.6027 19.334 36.4582 19.334C41.3137 19.334 45.2498 23.2701 45.2498 28.1257C45.2498 31.0539 43.8183 33.6478 41.6168 35.2456L45.1898 47.496C45.3577 48.0715 45.1668 48.6916 44.7044 49.0731C44.242 49.4546 43.5969 49.5241 43.0638 49.2499L36.4582 45.8528L29.8525 49.2499C29.3195 49.5241 28.6743 49.4546 28.2119 49.0731C27.7495 48.6916 27.5587 48.0715 27.7265 47.496L31.2996 35.2456C29.0981 33.6478 27.6665 31.0539 27.6665 28.1257ZM34.0355 36.5793L31.5835 44.9862L35.7721 42.8321C36.2027 42.6107 36.7136 42.6107 37.1442 42.8321L41.3328 44.9862L38.8808 36.5793C38.1112 36.7994 37.2985 36.9173 36.4582 36.9173C35.6179 36.9173 34.8051 36.7994 34.0355 36.5793Z" fill="url(#paint0_linear_13_3690)"/>
<defs>
<linearGradient id="paint0_linear_13_3690" x1="2.6665" y1="26.5938" x2="45.2499" y2="26.5938" gradientUnits="userSpaceOnUse">
<stop stop-color="#FAAA3D"/>
<stop offset="0.174964" stop-color="#EF4023"/>
<stop offset="0.343952" stop-color="#C81F41"/>
<stop offset="0.590537" stop-color="#6D2774"/>
<stop offset="1" stop-color="#06A4D9"/>
</linearGradient>
</defs>
</svg>
