<svg width="34" height="34" viewBox="0 0 34 34" fill="none" xmlns="http://www.w3.org/2000/svg">
<path fill-rule="evenodd" clip-rule="evenodd" d="M17.0073 3.36913C16.9031 3.51493 16.773 3.74935 16.6409 4.10339L16.6401 4.10538L14.0001 11.1404L13.9969 11.1489L13.9969 11.1489C13.6676 12.0074 13.018 12.6766 12.1523 12.9424C11.2867 13.2082 10.3723 13.0194 9.6133 12.4939L9.59752 12.4828L3.74752 8.29784L3.74556 8.29643C3.53275 8.14356 3.34507 8.02645 3.1834 7.93947C3.2223 8.12077 3.28331 8.33616 3.37225 8.58651L3.37263 8.58758L9.58185 25.9554L9.58461 25.9631C9.58562 25.9654 9.59403 25.9845 9.61923 26.0157C9.64788 26.0512 9.68925 26.0912 9.7412 26.1279C9.79315 26.1646 9.84486 26.1904 9.88836 26.2058C9.9291 26.2202 9.9503 26.2211 9.9503 26.2212L9.95022 26.2212H24.0495C24.0476 26.2212 24.07 26.2208 24.1152 26.205C24.1613 26.1889 24.2165 26.1617 24.2727 26.123C24.3289 26.0843 24.3747 26.0418 24.4073 26.0035C24.4296 25.9772 24.4407 25.9589 24.4451 25.951L30.4913 9.02449L30.492 9.02252C30.6372 8.61166 30.7118 8.29291 30.7435 8.05873C30.529 8.15421 30.2456 8.31401 29.8938 8.5666L29.8906 8.56893L24.4006 12.4839L24.3938 12.4888L24.3938 12.4887C23.6383 13.02 22.7237 13.2086 21.859 12.942C20.9958 12.6758 20.3468 12.0068 20.0177 11.1489L20.0145 11.1404L20.0145 11.1404L17.3745 4.10538L17.3738 4.10339C17.2416 3.74935 17.1115 3.51493 17.0073 3.36913ZM17.1645 3.19401L17.1619 3.19572L17.1636 3.19456C17.1642 3.19415 17.1645 3.19398 17.1645 3.19401ZM16.8527 3.19572L16.8501 3.19401C16.8501 3.19398 16.8503 3.19412 16.8508 3.19444L16.8527 3.19572ZM31.1295 7.93921L31.1275 7.93944C31.126 7.9395 31.1236 7.9395 31.1204 7.93935C31.1267 7.93889 31.1296 7.93902 31.1295 7.93921ZM30.7525 7.66375C30.7505 7.65809 30.7499 7.65491 30.75 7.65474C30.7502 7.65456 30.7511 7.65739 30.7525 7.66375ZM19.7157 3.22847C19.4715 2.57452 19.1542 1.99024 18.7427 1.54849C18.3268 1.10212 17.7385 0.728699 17.0073 0.728699C16.2761 0.728699 15.6878 1.10212 15.2719 1.54849C14.8605 1.99013 14.5433 2.57421 14.2992 3.22794L14.2988 3.22901L11.6614 10.257C11.5709 10.4905 11.4564 10.5409 11.4185 10.5525C11.3808 10.5641 11.2549 10.5875 11.0428 10.4429L5.20406 6.26597L5.20303 6.26523C4.60703 5.83724 4.0058 5.50794 3.42485 5.34927C2.85783 5.19441 2.09765 5.15287 1.45346 5.63674C0.808891 6.1209 0.636983 6.86319 0.628304 7.45264C0.619412 8.05658 0.769531 8.72858 1.01699 9.42482L1.01777 9.42701L7.22499 26.7891L7.22662 26.7938C7.43589 27.3879 7.85485 27.8561 8.29842 28.1695C8.74291 28.4836 9.32354 28.7212 9.94981 28.7212H24.0498C24.6753 28.7212 25.2518 28.4842 25.6907 28.1819C26.129 27.8801 26.549 27.4313 26.7725 26.8652C26.7775 26.8524 26.7824 26.8396 26.787 26.8267L32.847 9.86168L32.8483 9.8579C33.1146 9.10491 33.2727 8.38527 33.2623 7.74408C33.2522 7.11751 33.0694 6.35062 32.4088 5.85105C31.7465 5.35027 30.9578 5.38518 30.3515 5.54947C29.7328 5.7171 29.0861 6.06914 28.4377 6.53445L28.4358 6.53579L22.9558 10.4437L22.9531 10.4456C22.7503 10.5872 22.6308 10.5638 22.5956 10.5529C22.559 10.5417 22.444 10.4911 22.3532 10.257L19.7159 3.22901L19.7157 3.22847ZM7.49997 32.0001C7.49997 31.3098 8.05962 30.7501 8.74997 30.7501H25.25C25.9403 30.7501 26.5 31.3098 26.5 32.0001C26.5 32.6905 25.9403 33.2501 25.25 33.2501H8.74997C8.05962 33.2501 7.49997 32.6905 7.49997 32.0001ZM13.25 18.7508C12.5596 18.7508 12 19.3104 12 20.0008C12 20.6912 12.5596 21.2508 13.25 21.2508H20.75C21.4403 21.2508 22 20.6912 22 20.0008C22 19.3104 21.4403 18.7508 20.75 18.7508H13.25Z" fill="url(#paint0_linear_564_10524)"/>
<defs>
<linearGradient id="paint0_linear_564_10524" x1="0.62793" y1="16.9894" x2="33.2628" y2="16.9894" gradientUnits="userSpaceOnUse">
<stop stop-color="#FAAA3D"/>
<stop offset="0.174964" stop-color="#EF4023"/>
<stop offset="0.343952" stop-color="#C81F41"/>
<stop offset="0.590537" stop-color="#6D2774"/>
<stop offset="1" stop-color="#06A4D9"/>
</linearGradient>
</defs>
</svg>
