<svg width="31" height="33" viewBox="0 0 31 33" fill="none" xmlns="http://www.w3.org/2000/svg">
<path fill-rule="evenodd" clip-rule="evenodd" d="M3.16602 7.82952C3.16602 5.36254 3.50389 4.32348 4.02672 3.80065C4.54955 3.27782 5.58862 2.93994 8.0556 2.93994H23.4118C25.8788 2.93994 26.9179 3.27782 27.4407 3.80065C27.9636 4.32348 28.3014 5.36254 28.3014 7.82952C28.3014 8.51988 28.8611 9.07952 29.5514 9.07952C30.2418 9.07952 30.8014 8.51988 30.8014 7.82952C30.8014 5.38192 30.5268 3.3512 29.2085 2.03288C27.8902 0.714563 25.8595 0.439941 23.4118 0.439941H8.0556C5.608 0.439941 3.57727 0.714563 2.25896 2.03288C0.940637 3.3512 0.666016 5.38192 0.666016 7.82952V16.5795C0.666016 16.6649 0.66635 16.7497 0.66705 16.8341C0.666363 16.8511 0.666016 16.8682 0.666016 16.8854C0.666016 16.9117 0.666827 16.9377 0.668425 16.9636C0.697918 19.2395 1.01023 21.1274 2.25896 22.3762C3.57727 23.6945 5.608 23.9691 8.0556 23.9691H12.3328V28.0597H8.82843C8.13807 28.0597 7.57843 28.6193 7.57843 29.3097C7.57843 30 8.13807 30.5597 8.82843 30.5597H13.5332C13.5497 30.5603 13.5662 30.5607 13.5828 30.5607C14.2732 30.5607 14.8328 30.001 14.8328 29.3107V22.719C14.8328 22.0286 14.2732 21.469 13.5828 21.469L13.5656 21.4691H8.0556C5.58862 21.4691 4.54955 21.1312 4.02672 20.6084C3.63068 20.2124 3.34077 19.5201 3.22345 18.1354H13.5827C14.273 18.1354 14.8327 17.5757 14.8327 16.8854C14.8327 16.195 14.273 15.6354 13.5827 15.6354H3.16602V7.82952ZM24.5202 13.8339C22.3916 13.8339 20.666 15.5594 20.666 17.688C20.666 19.8166 22.3916 21.5422 24.5202 21.5422C26.6488 21.5422 28.3743 19.8166 28.3743 17.688C28.3743 15.5594 26.6488 13.8339 24.5202 13.8339ZM18.166 17.688C18.166 14.1787 21.0109 11.3339 24.5202 11.3339C28.0295 11.3339 30.8743 14.1787 30.8743 17.688C30.8743 19.7536 29.8888 21.5889 28.3623 22.7494L30.8243 31.1908C30.9642 31.6703 30.8051 32.1871 30.4198 32.505C30.0345 32.8229 29.4969 32.8808 29.0527 32.6524L24.5202 30.3214L19.9877 32.6524C19.5435 32.8808 19.0059 32.8229 18.6205 32.505C18.2352 32.1871 18.0761 31.6703 18.216 31.1908L20.6781 22.7494C19.1516 21.5889 18.166 19.7536 18.166 17.688ZM22.9614 23.8496L21.4302 29.0993L23.9485 27.8042C24.3073 27.6196 24.7331 27.6196 25.0919 27.8042L27.6102 29.0993L26.079 23.8496C25.5802 23.9754 25.058 24.0422 24.5202 24.0422C23.9824 24.0422 23.4601 23.9754 22.9614 23.8496Z" fill="url(#paint0_linear_564_10512)"/>
<defs>
<linearGradient id="paint0_linear_564_10512" x1="0.666015" y1="16.6154" x2="30.8744" y2="16.6154" gradientUnits="userSpaceOnUse">
<stop stop-color="#FAAA3D"/>
<stop offset="0.174964" stop-color="#EF4023"/>
<stop offset="0.343952" stop-color="#C81F41"/>
<stop offset="0.590537" stop-color="#6D2774"/>
<stop offset="1" stop-color="#06A4D9"/>
</linearGradient>
</defs>
</svg>
