<svg width="30" height="30" viewBox="0 0 30 30" fill="none" xmlns="http://www.w3.org/2000/svg">
<path d="M24.1501 12.4987H5.86258C4.01258 12.4987 2.51257 10.9862 2.51257 9.14875V5.86124C2.51257 4.01124 4.02508 2.51123 5.86258 2.51123H24.1501C26.0001 2.51123 27.5001 4.02374 27.5001 5.86124V9.14875C27.5001 10.9862 25.9876 12.4987 24.1501 12.4987Z" stroke="#06A4D9" stroke-width="1.5" stroke-linecap="round" stroke-linejoin="round"/>
<path d="M24.1501 27.4987H5.86258C4.01258 27.4987 2.51257 25.9862 2.51257 24.1487V20.8612C2.51257 19.0112 4.02508 17.5112 5.86258 17.5112H24.1501C26.0001 17.5112 27.5001 19.0237 27.5001 20.8612V24.1487C27.5001 25.9862 25.9876 27.4987 24.1501 27.4987Z" stroke="#06A4D9" stroke-width="1.5" stroke-linecap="round" stroke-linejoin="round"/>
<path d="M7.5 6.25V8.75" stroke="#06A4D9" stroke-width="1.5" stroke-linecap="round" stroke-linejoin="round"/>
<path d="M12.5 6.25V8.75" stroke="#06A4D9" stroke-width="1.5" stroke-linecap="round" stroke-linejoin="round"/>
<path d="M7.5 21.25V23.75" stroke="#06A4D9" stroke-width="1.5" stroke-linecap="round" stroke-linejoin="round"/>
<path d="M12.5 21.25V23.75" stroke="#06A4D9" stroke-width="1.5" stroke-linecap="round" stroke-linejoin="round"/>
<path d="M17.5 7.5H22.5" stroke="#06A4D9" stroke-width="1.5" stroke-linecap="round" stroke-linejoin="round"/>
<path d="M17.5 22.5H22.5" stroke="#06A4D9" stroke-width="1.5" stroke-linecap="round" stroke-linejoin="round"/>
</svg>
