<svg width="30" height="30" viewBox="0 0 30 30" fill="none" xmlns="http://www.w3.org/2000/svg">
<path d="M12 25H18C23 25 25 23 25 18V12C25 7 23 5 18 5H12C7 5 5 7 5 12V18C5 23 7 25 12 25Z" stroke="#06A4D9" stroke-width="1.5" stroke-linecap="round" stroke-linejoin="round"/>
<path d="M13.125 21.25H16.875C20 21.25 21.25 20 21.25 16.875V13.125C21.25 10 20 8.75 16.875 8.75H13.125C10 8.75 8.75 10 8.75 13.125V16.875C8.75 20 10 21.25 13.125 21.25Z" stroke="#06A4D9" stroke-width="1.5" stroke-linecap="round" stroke-linejoin="round"/>
<path d="M10.0125 5V2.5" stroke="#06A4D9" stroke-width="1.5" stroke-linecap="round" stroke-linejoin="round"/>
<path d="M15 5V2.5" stroke="#06A4D9" stroke-width="1.5" stroke-linecap="round" stroke-linejoin="round"/>
<path d="M20 5V2.5" stroke="#06A4D9" stroke-width="1.5" stroke-linecap="round" stroke-linejoin="round"/>
<path d="M25 10H27.5" stroke="#06A4D9" stroke-width="1.5" stroke-linecap="round" stroke-linejoin="round"/>
<path d="M25 15H27.5" stroke="#06A4D9" stroke-width="1.5" stroke-linecap="round" stroke-linejoin="round"/>
<path d="M25 20H27.5" stroke="#06A4D9" stroke-width="1.5" stroke-linecap="round" stroke-linejoin="round"/>
<path d="M20 25V27.5" stroke="#06A4D9" stroke-width="1.5" stroke-linecap="round" stroke-linejoin="round"/>
<path d="M15.0125 25V27.5" stroke="#06A4D9" stroke-width="1.5" stroke-linecap="round" stroke-linejoin="round"/>
<path d="M10.0125 25V27.5" stroke="#06A4D9" stroke-width="1.5" stroke-linecap="round" stroke-linejoin="round"/>
<path d="M2.5 10H5" stroke="#06A4D9" stroke-width="1.5" stroke-linecap="round" stroke-linejoin="round"/>
<path d="M2.5 15H5" stroke="#06A4D9" stroke-width="1.5" stroke-linecap="round" stroke-linejoin="round"/>
<path d="M2.5 20H5" stroke="#06A4D9" stroke-width="1.5" stroke-linecap="round" stroke-linejoin="round"/>
</svg>
