<svg width="30" height="30" viewBox="0 0 30 30" fill="none" xmlns="http://www.w3.org/2000/svg">
<path d="M9.0625 8.75H20.9375V6.25C20.9375 3.75 20 2.5 17.1875 2.5H12.8125C10 2.5 9.0625 3.75 9.0625 6.25V8.75Z" stroke="#06A4D9" stroke-width="1.5" stroke-miterlimit="10" stroke-linecap="round" stroke-linejoin="round"/>
<path d="M20 18.75V23.75C20 26.25 18.75 27.5 16.25 27.5H13.75C11.25 27.5 10 26.25 10 23.75V18.75H20Z" stroke="#06A4D9" stroke-width="1.5" stroke-miterlimit="10" stroke-linecap="round" stroke-linejoin="round"/>
<path d="M26.25 12.5V18.75C26.25 21.25 25 22.5 22.5 22.5H20V18.75H10V22.5H7.5C5 22.5 3.75 21.25 3.75 18.75V12.5C3.75 10 5 8.75 7.5 8.75H22.5C25 8.75 26.25 10 26.25 12.5Z" stroke="#06A4D9" stroke-width="1.5" stroke-miterlimit="10" stroke-linecap="round" stroke-linejoin="round"/>
<path d="M21.25 18.75H19.7375H8.75" stroke="#06A4D9" stroke-width="1.5" stroke-miterlimit="10" stroke-linecap="round" stroke-linejoin="round"/>
<path d="M8.75 13.75H12.5" stroke="#06A4D9" stroke-width="1.5" stroke-miterlimit="10" stroke-linecap="round" stroke-linejoin="round"/>
</svg>
