<svg width="42" height="42" viewBox="0 0 42 42" fill="none" xmlns="http://www.w3.org/2000/svg">
<path fill-rule="evenodd" clip-rule="evenodd" d="M3.33337 20.9997C3.33337 11.2481 11.2485 3.33301 21 3.33301C30.7516 3.33301 38.6667 11.2481 38.6667 20.9997C38.6667 30.7513 30.7516 38.6663 21 38.6663C11.2485 38.6663 3.33337 30.7513 3.33337 20.9997ZM21 0.333008C9.59162 0.333008 0.333374 9.59125 0.333374 20.9997C0.333374 32.4081 9.59162 41.6663 21 41.6663C32.4085 41.6663 41.6667 32.4081 41.6667 20.9997C41.6667 9.59125 32.4085 0.333008 21 0.333008ZM21.7906 12.3945C21.7906 11.5661 21.1191 10.8945 20.2906 10.8945C19.4622 10.8945 18.7906 11.5661 18.7906 12.3945V20.2529C18.7906 21.1795 19.1042 22.1052 19.5387 22.8671C19.9727 23.6281 20.6082 24.3675 21.4019 24.8386L21.4043 24.84L27.342 28.3834C28.0533 28.808 28.9742 28.5754 29.3987 27.864C29.8232 27.1527 29.5907 26.2318 28.8793 25.8073L22.9377 22.2615L22.9337 22.2591C22.6935 22.1168 22.3907 21.8123 22.1447 21.3809C21.8988 20.9496 21.7906 20.5337 21.7906 20.2529V12.3945Z" fill="url(#paint0_linear_2_551)"/>
<defs>
<linearGradient id="paint0_linear_2_551" x1="0.333374" y1="20.9997" x2="41.6667" y2="20.9997" gradientUnits="userSpaceOnUse">
<stop stop-color="#FAAA3D"/>
<stop offset="0.174964" stop-color="#EF4023"/>
<stop offset="0.343952" stop-color="#C81F41"/>
<stop offset="0.590537" stop-color="#6D2774"/>
<stop offset="1" stop-color="#06A4D9"/>
</linearGradient>
</defs>
</svg>
