<svg width="42" height="42" viewBox="0 0 42 42" fill="none" xmlns="http://www.w3.org/2000/svg">
<path fill-rule="evenodd" clip-rule="evenodd" d="M3.33337 20.9997C3.33337 11.2426 11.243 3.33301 21 3.33301C30.7571 3.33301 38.6667 11.2426 38.6667 20.9997C38.6667 30.7567 30.7571 38.6663 21 38.6663C11.243 38.6663 3.33337 30.7567 3.33337 20.9997ZM21 0.333008C9.58616 0.333008 0.333374 9.58579 0.333374 20.9997C0.333374 32.4136 9.58616 41.6663 21 41.6663C32.4139 41.6663 41.6667 32.4136 41.6667 20.9997C41.6667 9.58579 32.4139 0.333008 21 0.333008ZM16.75 17.167C16.75 15.665 16.9905 14.667 17.4957 14.0405C17.9447 13.4838 18.8591 12.917 21 12.917C23.1409 12.917 24.0553 13.4838 24.5043 14.0405C25.0095 14.667 25.25 15.665 25.25 17.167V17.583H16.75V17.167ZM28.25 17.167V17.7775C29.1889 17.9656 30.0276 18.3226 30.6856 18.9807C31.8814 20.1764 32.0833 21.9687 32.0833 23.8747V25.7913C32.0833 27.6973 31.8814 29.4896 30.6856 30.6853C29.4899 31.8811 27.6976 32.083 25.7916 32.083H16.2083C14.3023 32.083 12.5101 31.8811 11.3143 30.6853C10.1185 29.4896 9.91663 27.6973 9.91663 25.7913V23.8747C9.91663 21.9687 10.1185 20.1764 11.3143 18.9807C11.9724 18.3226 12.8111 17.9656 13.75 17.7775V17.167C13.75 15.4873 13.9887 13.6103 15.1605 12.1572C16.3887 10.6343 18.3492 9.91699 21 9.91699C23.6508 9.91699 25.6113 10.6343 26.8395 12.1572C28.0113 13.6103 28.25 15.4873 28.25 17.167ZM20.9998 27.9836C22.7396 27.9836 24.1498 26.5732 24.1498 24.8336C24.1498 23.094 22.7396 21.6836 20.9998 21.6836C19.26 21.6836 17.8499 23.094 17.8499 24.8336C17.8499 26.5732 19.26 27.9836 20.9998 27.9836ZM20.9998 25.9836C21.6349 25.9836 22.1498 25.4687 22.1498 24.8336C22.1498 24.1985 21.6349 23.6836 20.9998 23.6836C20.3647 23.6836 19.8499 24.1985 19.8499 24.8336C19.8499 25.4687 20.3647 25.9836 20.9998 25.9836ZM13.4356 21.102C13.1939 21.3437 12.9166 21.9473 12.9166 23.8747V25.7913C12.9166 27.7187 13.1939 28.3223 13.4356 28.564C13.6774 28.8057 14.2809 29.083 16.2083 29.083H25.7916C27.719 29.083 28.3226 28.8057 28.5643 28.564C28.806 28.3223 29.0833 27.7187 29.0833 25.7913V23.8747C29.0833 21.9473 28.806 21.3437 28.5643 21.102C28.3226 20.8603 27.719 20.583 25.7916 20.583H16.2083C14.2809 20.583 13.6774 20.8603 13.4356 21.102Z" fill="url(#paint0_linear_2_524)"/>
<defs>
<linearGradient id="paint0_linear_2_524" x1="0.333374" y1="20.9997" x2="41.6667" y2="20.9997" gradientUnits="userSpaceOnUse">
<stop stop-color="#FAAA3D"/>
<stop offset="0.174964" stop-color="#EF4023"/>
<stop offset="0.343952" stop-color="#C81F41"/>
<stop offset="0.590537" stop-color="#6D2774"/>
<stop offset="1" stop-color="#06A4D9"/>
</linearGradient>
</defs>
</svg>
