<svg width="46" height="46" viewBox="0 0 46 46" fill="none" xmlns="http://www.w3.org/2000/svg">
<path fill-rule="evenodd" clip-rule="evenodd" d="M5.3335 22.9987C5.3335 13.2417 13.2431 5.33203 23.0002 5.33203C32.7572 5.33203 40.6668 13.2417 40.6668 22.9987C40.6668 32.7557 32.7572 40.6654 23.0002 40.6654C13.2431 40.6654 5.3335 32.7557 5.3335 22.9987ZM23.0002 2.33203C11.5863 2.33203 2.3335 11.5848 2.3335 22.9987C2.3335 34.4126 11.5863 43.6654 23.0002 43.6654C34.4141 43.6654 43.6668 34.4126 43.6668 22.9987C43.6668 11.5848 34.4141 2.33203 23.0002 2.33203ZM18.7501 19.166C18.7501 17.664 18.9906 16.666 19.4959 16.0395C19.9448 15.4829 20.8592 14.916 23.0001 14.916C25.141 14.916 26.0555 15.4829 26.5044 16.0395C27.0096 16.666 27.2501 17.664 27.2501 19.166V19.582H18.7501V19.166ZM30.2501 19.166V19.7765C31.189 19.9646 32.0277 20.3217 32.6857 20.9797C33.8815 22.1755 34.0834 23.9678 34.0834 25.8737V27.7904C34.0834 29.6963 33.8815 31.4886 32.6857 32.6844C31.49 33.8801 29.6977 34.082 27.7917 34.082H18.2084C16.3025 34.082 14.5102 33.8801 13.3144 32.6844C12.1187 31.4886 11.9167 29.6963 11.9167 27.7904V25.8737C11.9167 23.9678 12.1187 22.1755 13.3144 20.9797C13.9725 20.3216 14.8112 19.9646 15.7501 19.7765V19.166C15.7501 17.4863 15.9888 15.6094 17.1606 14.1563C18.3888 12.6333 20.3493 11.916 23.0001 11.916C25.6509 11.916 27.6114 12.6333 28.8396 14.1563C30.0115 15.6094 30.2501 17.4863 30.2501 19.166ZM22.9999 29.9826C24.7398 29.9826 26.1499 28.5722 26.1499 26.8326C26.1499 25.0931 24.7398 23.6826 22.9999 23.6826C21.2601 23.6826 19.85 25.0931 19.85 26.8326C19.85 28.5722 21.2601 29.9826 22.9999 29.9826ZM22.9999 27.9826C23.6351 27.9826 24.1499 27.4678 24.1499 26.8326C24.1499 26.1975 23.6351 25.6826 22.9999 25.6826C22.3648 25.6826 21.85 26.1975 21.85 26.8326C21.85 27.4678 22.3648 27.9826 22.9999 27.9826ZM15.4357 23.101C15.194 23.3428 14.9167 23.9463 14.9167 25.8737V27.7904C14.9167 29.7177 15.194 30.3213 15.4357 30.563C15.6775 30.8048 16.281 31.082 18.2084 31.082H27.7917C29.7191 31.082 30.3227 30.8048 30.5644 30.563C30.8062 30.3213 31.0834 29.7177 31.0834 27.7904V25.8737C31.0834 23.9463 30.8062 23.3428 30.5644 23.101C30.3227 22.8593 29.7191 22.582 27.7917 22.582H18.2084C16.281 22.582 15.6775 22.8593 15.4357 23.101Z" fill="url(#paint0_linear_369_4023)"/>
<defs>
<linearGradient id="paint0_linear_369_4023" x1="2.3335" y1="22.9987" x2="43.6668" y2="22.9987" gradientUnits="userSpaceOnUse">
<stop stop-color="#FAAA3D"/>
<stop offset="0.174964" stop-color="#EF4023"/>
<stop offset="0.343952" stop-color="#C81F41"/>
<stop offset="0.590537" stop-color="#6D2774"/>
<stop offset="1" stop-color="#06A4D9"/>
</linearGradient>
</defs>
</svg>
