<svg width="46" height="46" viewBox="0 0 46 46" fill="none" xmlns="http://www.w3.org/2000/svg">
<path fill-rule="evenodd" clip-rule="evenodd" d="M5.3335 22.9987C5.3335 13.2471 13.2486 5.33203 23.0002 5.33203C32.7517 5.33203 40.6668 13.2471 40.6668 22.9987C40.6668 32.7503 32.7517 40.6654 23.0002 40.6654C13.2486 40.6654 5.3335 32.7503 5.3335 22.9987ZM23.0002 2.33203C11.5917 2.33203 2.3335 11.5903 2.3335 22.9987C2.3335 34.4071 11.5917 43.6654 23.0002 43.6654C34.4086 43.6654 43.6668 34.4071 43.6668 22.9987C43.6668 11.5903 34.4086 2.33203 23.0002 2.33203ZM23.7908 14.3936C23.7908 13.5651 23.1192 12.8936 22.2908 12.8936C21.4623 12.8936 20.7908 13.5651 20.7908 14.3936V22.2519C20.7908 23.1785 21.1043 24.1043 21.5388 24.8661C21.9728 25.6271 22.6083 26.3665 23.402 26.8376L23.4044 26.839L29.3421 30.3825C30.0535 30.807 30.9743 30.5745 31.3988 29.8631C31.8234 29.1517 31.5908 28.2309 30.8795 27.8063L24.9378 24.2605L24.9338 24.2581C24.6936 24.1158 24.3908 23.8113 24.1448 23.38C23.8989 22.9487 23.7908 22.5327 23.7908 22.2519V14.3936Z" fill="url(#paint0_linear_369_4044)"/>
<defs>
<linearGradient id="paint0_linear_369_4044" x1="2.3335" y1="22.9987" x2="43.6668" y2="22.9987" gradientUnits="userSpaceOnUse">
<stop stop-color="#FAAA3D"/>
<stop offset="0.174964" stop-color="#EF4023"/>
<stop offset="0.343952" stop-color="#C81F41"/>
<stop offset="0.590537" stop-color="#6D2774"/>
<stop offset="1" stop-color="#06A4D9"/>
</linearGradient>
</defs>
</svg>
