<svg width="46" height="46" viewBox="0 0 46 46" fill="none" xmlns="http://www.w3.org/2000/svg">
<path fill-rule="evenodd" clip-rule="evenodd" d="M5.88742 5.88595C8.46261 3.31077 12.3106 2.33203 17.2502 2.33203H28.7502C33.6898 2.33203 37.5377 3.31077 40.1129 5.88595C42.6881 8.46114 43.6668 12.3091 43.6668 17.2487V28.7487C43.6668 33.6883 42.6881 37.5363 40.1129 40.1114C37.5377 42.6866 33.6898 43.6654 28.7502 43.6654H17.2502C12.3106 43.6654 8.46261 42.6866 5.88742 40.1114C3.31223 37.5363 2.3335 33.6883 2.3335 28.7487V17.2487C2.3335 12.3091 3.31223 8.46114 5.88742 5.88595ZM8.00874 8.00728C6.27143 9.74459 5.3335 12.605 5.3335 17.2487V28.7487C5.3335 33.3924 6.27143 36.2528 8.00874 37.9901C9.74605 39.7274 12.6064 40.6654 17.2502 40.6654H28.7502C33.3939 40.6654 36.2543 39.7274 37.9916 37.9901C39.7289 36.2528 40.6668 33.3924 40.6668 28.7487V17.2487C40.6668 12.605 39.7289 9.74459 37.9916 8.00728C36.2543 6.26996 33.3939 5.33203 28.7502 5.33203H17.2502C12.6064 5.33203 9.74605 6.26996 8.00874 8.00728ZM29.8425 26.4824C30.671 26.4824 31.3425 27.154 31.3425 27.9824V35.4574C31.3425 36.2858 30.671 36.9574 29.8425 36.9574C29.0141 36.9574 28.3425 36.2858 28.3425 35.4574V27.9824C28.3425 27.154 29.0141 26.4824 29.8425 26.4824ZM31.3425 10.541C31.3425 9.71259 30.671 9.04102 29.8425 9.04102C29.0141 9.04102 28.3425 9.71259 28.3425 10.541V12.9527C25.4851 13.6295 23.3591 16.1973 23.3591 19.2617C23.3591 22.8423 26.2618 25.745 29.8425 25.745C33.4231 25.745 36.3258 22.8423 36.3258 19.2617C36.3258 16.1973 34.1999 13.6296 31.3425 12.9527V10.541ZM26.3591 19.2617C26.3591 17.3447 27.9077 15.7893 29.8221 15.7784L29.8425 15.7785L29.8629 15.7784C31.7773 15.7894 33.3258 17.3447 33.3258 19.2617C33.3258 21.1854 31.7663 22.745 29.8425 22.745C27.9187 22.745 26.3591 21.1854 26.3591 19.2617ZM14.6575 33.0452C11.8001 32.3683 9.67432 29.8005 9.67432 26.7363C9.67432 23.1556 12.577 20.2529 16.1576 20.2529C19.7383 20.2529 22.641 23.1556 22.641 26.7363C22.641 29.8006 20.515 32.3685 17.6575 33.0452V35.4572C17.6575 36.2857 16.9859 36.9572 16.1575 36.9572C15.329 36.9572 14.6575 36.2857 14.6575 35.4572V33.0452ZM16.1575 9.04102C16.9859 9.04102 17.6575 9.71259 17.6575 10.541V18.016C17.6575 18.8444 16.9859 19.516 16.1575 19.516C15.329 19.516 14.6575 18.8444 14.6575 18.016V10.541C14.6575 9.71259 15.329 9.04102 16.1575 9.04102ZM12.6743 26.7363C12.6743 24.8125 14.2339 23.2529 16.1576 23.2529C18.0814 23.2529 19.641 24.8125 19.641 26.7363C19.641 28.6601 18.0814 30.2196 16.1576 30.2196C14.2339 30.2196 12.6743 28.6601 12.6743 26.7363Z" fill="url(#paint0_linear_369_4032)"/>
<defs>
<linearGradient id="paint0_linear_369_4032" x1="2.3335" y1="22.9987" x2="43.6668" y2="22.9987" gradientUnits="userSpaceOnUse">
<stop stop-color="#FAAA3D"/>
<stop offset="0.174964" stop-color="#EF4023"/>
<stop offset="0.343952" stop-color="#C81F41"/>
<stop offset="0.590537" stop-color="#6D2774"/>
<stop offset="1" stop-color="#06A4D9"/>
</linearGradient>
</defs>
</svg>
