<svg width="46" height="46" viewBox="0 0 46 46" fill="none" xmlns="http://www.w3.org/2000/svg">
<path fill-rule="evenodd" clip-rule="evenodd" d="M22.9998 2.33203C12.8756 2.33203 4.65234 10.5552 4.65234 20.6795C4.65234 25.982 6.90883 30.7653 10.5197 34.1049C11.1279 34.6674 12.0769 34.6303 12.6394 34.0221C13.2019 33.4139 13.1648 32.4649 12.5566 31.9024C9.53584 29.1086 7.65234 25.1137 7.65234 20.6795C7.65234 12.2121 14.5324 5.33203 22.9998 5.33203C31.4684 5.33203 38.3473 12.194 38.3473 20.6795C38.3473 25.095 36.4823 29.0549 33.4941 31.8509C32.8892 32.4169 32.8577 33.3661 33.4237 33.971C33.9897 34.576 34.9389 34.6075 35.5438 34.0415C39.1106 30.7041 41.3473 25.9623 41.3473 20.6795C41.3473 10.5349 33.123 2.33203 22.9998 2.33203ZM28.5428 22.0779C29.5465 17.8489 25.8285 14.1318 21.5991 15.1376L21.5991 15.1375L21.5868 15.1406C19.5699 15.6382 17.94 17.2682 17.4423 19.2851L17.4423 19.2851L17.4393 19.2974C16.4334 23.5277 20.1521 27.2464 24.3823 26.2404L24.3823 26.2404L24.3903 26.2385C26.4231 25.7433 28.0657 24.1137 28.5428 22.0779ZM25.6235 21.3866C26.112 19.3323 24.3531 17.5708 22.2995 18.0547C21.3694 18.2867 20.5885 19.0676 20.3565 19.9978C19.8729 22.0501 21.6316 23.808 23.6842 23.3228C24.6386 23.0886 25.4087 22.3055 25.6222 21.3922L25.6235 21.3866ZM22.9996 11.6572C18.0205 11.6572 13.9771 15.7006 13.9771 20.6797C13.9771 23.0789 14.9118 25.2463 16.4265 26.8597C16.9935 27.4637 16.9635 28.413 16.3595 28.98C15.7556 29.547 14.8063 29.517 14.2393 28.913C12.2273 26.7698 10.9771 23.8772 10.9771 20.6797C10.9771 14.0438 16.3636 8.65723 22.9996 8.65723C29.6355 8.65723 35.0221 14.0438 35.0221 20.6797C35.0221 23.8813 33.7691 26.751 31.765 28.9075C31.2011 29.5143 30.252 29.5491 29.6451 28.9852C29.0383 28.4212 29.0035 27.4721 29.5674 26.8653C31.09 25.2268 32.0221 23.0748 32.0221 20.6797C32.0221 15.7006 27.9786 11.6572 22.9996 11.6572ZM30.1652 34.418L27.4124 30.996C25.1594 28.1481 20.8351 28.1602 18.5716 30.993L15.8133 34.4218L15.8091 34.427C12.8456 38.1444 15.4687 43.647 20.2404 43.647H25.7412C30.496 43.647 33.1712 38.133 30.1669 34.4201L30.1652 34.418ZM20.9144 32.8669C21.9849 31.5257 24.0176 31.5366 25.062 32.8602L25.0708 32.8713L27.8308 36.3023L27.8339 36.3061C29.2352 38.0364 28.0005 40.647 25.7412 40.647H20.2404C17.998 40.647 16.7496 38.0636 18.1531 36.2994L20.9108 32.8714L20.9144 32.8669Z" fill="url(#paint0_linear_521_10136)"/>
<defs>
<linearGradient id="paint0_linear_521_10136" x1="4.65234" y1="22.9895" x2="41.3473" y2="22.9895" gradientUnits="userSpaceOnUse">
<stop stop-color="#FAAA3D"/>
<stop offset="0.174964" stop-color="#EF4023"/>
<stop offset="0.343952" stop-color="#C81F41"/>
<stop offset="0.590537" stop-color="#6D2774"/>
<stop offset="1" stop-color="#06A4D9"/>
</linearGradient>
</defs>
</svg>
