<svg width="50" height="50" viewBox="0 0 50 50" fill="none" xmlns="http://www.w3.org/2000/svg">
<path fill-rule="evenodd" clip-rule="evenodd" d="M17.25 4.16699C17.25 3.33857 17.9216 2.66699 18.75 2.66699H31.25C32.0784 2.66699 32.75 3.33857 32.75 4.16699C32.75 4.99542 32.0784 5.66699 31.25 5.66699H18.75C17.9216 5.66699 17.25 4.99542 17.25 4.16699ZM8.27051 27.6042C8.27051 18.3701 15.7656 10.875 24.9997 10.875C34.2337 10.875 41.7288 18.3701 41.7288 27.6042C41.7288 28.4326 42.4004 29.1042 43.2288 29.1042C44.0573 29.1042 44.7288 28.4326 44.7288 27.6042C44.7288 16.7132 35.8906 7.875 24.9997 7.875C14.1087 7.875 5.27051 16.7132 5.27051 27.6042C5.27051 38.4951 14.1087 47.3333 24.9997 47.3333C25.8281 47.3333 26.4997 46.6618 26.4997 45.8333C26.4997 45.0049 25.8281 44.3333 24.9997 44.3333C15.7656 44.3333 8.27051 36.8382 8.27051 27.6042ZM26.5 16.667C26.5 15.8386 25.8284 15.167 25 15.167C24.1716 15.167 23.5 15.8386 23.5 16.667V25.5837H18.75C17.9216 25.5837 17.25 26.2552 17.25 27.0837C17.25 27.9121 17.9216 28.5837 18.75 28.5837H25C25.8284 28.5837 26.5 27.9121 26.5 27.0837V16.667ZM46.881 36.4902C47.4737 35.9114 47.485 34.9617 46.9062 34.369C46.3274 33.7763 45.3777 33.765 44.785 34.3438L37.3411 41.613L34.4221 38.5311C33.8524 37.9296 32.903 37.9038 32.3015 38.4735C31.7001 39.0432 31.6743 39.9926 32.2439 40.594L36.2103 44.7818C36.4866 45.0735 36.8684 45.2422 37.2701 45.25C37.6718 45.2579 38.0599 45.1042 38.3473 44.8235L46.881 36.4902Z" fill="url(#paint0_linear_13_3711)"/>
<defs>
<linearGradient id="paint0_linear_13_3711" x1="5.27051" y1="25.0002" x2="47.333" y2="25.0002" gradientUnits="userSpaceOnUse">
<stop stop-color="#FAAA3D"/>
<stop offset="0.174964" stop-color="#EF4023"/>
<stop offset="0.343952" stop-color="#C81F41"/>
<stop offset="0.590537" stop-color="#6D2774"/>
<stop offset="1" stop-color="#06A4D9"/>
</linearGradient>
</defs>
</svg>
