<svg width="64" height="60" viewBox="0 0 64 60" fill="none" xmlns="http://www.w3.org/2000/svg">
<path fill-rule="evenodd" clip-rule="evenodd" d="M21.2685 4.85651C22.5822 4.0749 24.3404 4.51474 25.1717 5.90139L25.4816 6.43652L25.4838 6.44046C27.0097 9.09998 29.3016 10.8762 32.0037 10.8762C34.704 10.8762 37.0028 9.10188 38.5429 6.44481L38.5434 6.44394L38.8575 5.9014C39.6888 4.51474 41.447 4.0749 42.7608 4.85651L42.79 4.87357L47.8358 7.76107L47.8369 7.76168C49.5233 8.72532 50.1035 10.9066 49.1405 12.5764C47.5999 15.2344 47.2057 18.1106 48.5547 20.4514C49.9035 22.7919 52.5885 23.8919 55.6542 23.8919C57.5898 23.8919 59.1959 25.4824 59.1959 27.4335V32.5669C59.1959 34.5025 57.6053 36.1085 55.6542 36.1085C52.5885 36.1085 49.9035 37.2085 48.5547 39.549C47.2067 41.8881 47.5994 44.7618 49.1371 47.4181C50.1079 49.1228 49.5201 51.2769 47.8369 52.2387L47.8358 52.2393L42.79 55.1268L42.7608 55.1439C41.447 55.9255 39.6887 55.4856 38.8574 54.0989L38.5477 53.5639L38.5455 53.5601C37.0197 50.9005 34.7277 49.1242 32.0256 49.1242C29.3253 49.1242 27.0264 50.8985 25.4864 53.5556L25.4858 53.5565L25.1717 54.0991C24.3404 55.4857 22.5822 55.9255 21.2685 55.1439L21.2392 55.1268L16.1934 52.2393L16.1923 52.2387C14.5053 51.2747 13.9252 49.092 14.8899 47.422C16.4295 44.7646 16.8232 41.8892 15.4746 39.549C14.1258 37.2085 11.4407 36.1085 8.37504 36.1085C6.42395 36.1085 4.83337 34.5025 4.83337 32.5669V27.4335C4.83337 25.4979 6.42395 23.8919 8.37504 23.8919C11.4407 23.8919 14.1258 22.7919 15.4746 20.4514C16.8233 18.111 16.4295 15.2354 14.8895 12.5778C13.9254 10.9079 14.5055 8.72559 16.1923 7.76168L16.1934 7.76107L21.2392 4.87357L21.2685 4.85651ZM28.6147 3.86511C26.7052 0.655588 22.5284 -0.535688 19.2391 1.40951L14.2078 4.28871L14.2072 4.28906L14.2067 4.28933C10.5863 6.35888 9.35846 11.0004 11.4266 14.5799L11.428 14.5823C12.5416 16.5035 12.3953 17.7836 12.0088 18.4542C11.6222 19.1252 10.5885 19.8919 8.37504 19.8919C4.20113 19.8919 0.833374 23.3025 0.833374 27.4335V32.5669C0.833374 36.6979 4.20113 40.1085 8.37504 40.1085C10.5885 40.1085 11.6222 40.8752 12.0088 41.5462C12.3953 42.2168 12.5416 43.4969 11.428 45.4181L11.4266 45.4205C9.35846 49 10.5863 53.6415 14.2067 55.7111L14.2073 55.7114L14.2078 55.7117L19.2391 58.5909C22.5284 60.5361 26.7052 59.3448 28.6147 56.1353L28.6267 56.1148L28.9471 55.5615C30.0611 53.6394 31.2477 53.1242 32.0256 53.1242C32.8003 53.1242 33.9782 53.6357 35.0774 55.5532L35.0817 55.5606L35.4025 56.1148L35.4146 56.1353C37.324 59.3448 41.5008 60.5361 44.7901 58.5909L49.8215 55.7117C53.445 53.6411 54.6661 49.0316 52.6074 45.4288L52.6074 45.4287L52.6012 45.4181C51.4876 43.4969 51.6339 42.2168 52.0204 41.5462C52.407 40.8752 53.4407 40.1085 55.6542 40.1085C59.8281 40.1085 63.1959 36.6979 63.1959 32.5669V27.4335C63.1959 23.2596 59.7853 19.8919 55.6542 19.8919C53.4407 19.8919 52.407 19.1252 52.0204 18.4542C51.6339 17.7836 51.4876 16.5035 52.6012 14.5823L52.6026 14.5799C54.671 11 53.4427 6.35795 49.8215 4.28871L44.7901 1.40948C41.5008 -0.535675 37.324 0.655604 35.4146 3.86511L35.4025 3.88562L35.0822 4.43892C33.9681 6.36102 32.7815 6.87624 32.0037 6.87624C31.229 6.87624 30.051 6.36468 28.9518 4.44721L28.9518 4.4472L28.9476 4.43979L28.6267 3.88563L28.6147 3.86511ZM25.25 30C25.25 26.2721 28.2721 23.25 32 23.25C35.7279 23.25 38.75 26.2721 38.75 30C38.75 33.7279 35.7279 36.75 32 36.75C28.2721 36.75 25.25 33.7279 25.25 30ZM32 19.25C26.0629 19.25 21.25 24.0629 21.25 30C21.25 35.937 26.0629 40.75 32 40.75C37.9371 40.75 42.75 35.937 42.75 30C42.75 24.0629 37.9371 19.25 32 19.25Z" fill="url(#paint0_linear_538_8444)"/>
<defs>
<linearGradient id="paint0_linear_538_8444" x1="0.833374" y1="30.0002" x2="63.1959" y2="30.0002" gradientUnits="userSpaceOnUse">
<stop stop-color="#FAAA3D"/>
<stop offset="0.174964" stop-color="#EF4023"/>
<stop offset="0.343952" stop-color="#C81F41"/>
<stop offset="0.590537" stop-color="#6D2774"/>
<stop offset="1" stop-color="#06A4D9"/>
</linearGradient>
</defs>
</svg>
