<svg width="64" height="64" viewBox="0 0 64 64" fill="none" xmlns="http://www.w3.org/2000/svg">
<path fill-rule="evenodd" clip-rule="evenodd" d="M23.25 0.833374C15.7611 0.833374 9.99858 2.31891 6.15874 6.15874C2.31891 9.99858 0.833374 15.7611 0.833374 23.25V40.75C0.833374 48.239 2.31891 54.0015 6.15874 57.8413C9.99858 61.6812 15.7611 63.1667 23.25 63.1667H40.75C48.239 63.1667 54.0015 61.6812 57.8413 57.8413C61.6812 54.0015 63.1667 48.239 63.1667 40.75V23.25C63.1667 15.7611 61.6812 9.99858 57.8413 6.15874C54.0015 2.31891 48.239 0.833374 40.75 0.833374H23.25ZM4.83337 23.25C4.83337 16.1556 6.2645 11.7098 8.98717 8.98717C11.7098 6.2645 16.1556 4.83337 23.25 4.83337H40.75C47.8444 4.83337 52.2902 6.2645 55.0129 8.98717C57.7356 11.7098 59.1667 16.1556 59.1667 23.25V40.75C59.1667 47.8444 57.7356 52.2902 55.0129 55.0129C52.2902 57.7356 47.8444 59.1667 40.75 59.1667H23.25C16.1556 59.1667 11.7098 57.7356 8.98717 55.0129C6.2645 52.2902 4.83337 47.8444 4.83337 40.75V23.25ZM25.7726 17.1107C26.5537 17.8917 26.5537 19.1581 25.7726 19.9391L19.2101 26.5016C18.835 26.8767 18.3263 27.0874 17.7959 27.0874C17.2655 27.0874 16.7568 26.8767 16.3817 26.5016L14.1942 24.3141C13.4131 23.5331 13.4131 22.2667 14.1942 21.4857C14.9752 20.7046 16.2416 20.7046 17.0226 21.4857L17.7959 22.259L22.9442 17.1107C23.7252 16.3296 24.9916 16.3296 25.7726 17.1107ZM31.0791 22.8999C31.0791 21.7953 31.9745 20.8999 33.0791 20.8999H48.3916C49.4962 20.8999 50.3916 21.7953 50.3916 22.8999C50.3916 24.0045 49.4962 24.8999 48.3916 24.8999H33.0791C31.9745 24.8999 31.0791 24.0045 31.0791 22.8999ZM31.0791 43.3167C31.0791 44.4212 31.9745 45.3167 33.0791 45.3167H48.3916C49.4962 45.3167 50.3916 44.4212 50.3916 43.3167C50.3916 42.2121 49.4962 41.3167 48.3916 41.3167H33.0791C31.9745 41.3167 31.0791 42.2121 31.0791 43.3167ZM25.7726 37.5274C26.5537 38.3085 26.5537 39.5748 25.7726 40.3559L19.2101 46.9184C18.4291 47.6994 17.1627 47.6994 16.3817 46.9184L14.1942 44.7309C13.4131 43.9498 13.4131 42.6835 14.1942 41.9024C14.9752 41.1214 16.2416 41.1214 17.0226 41.9024L17.7959 42.6757L22.9442 37.5274C23.7252 36.7464 24.9916 36.7464 25.7726 37.5274Z" fill="url(#paint0_linear_538_8457)"/>
<defs>
<linearGradient id="paint0_linear_538_8457" x1="0.833374" y1="32" x2="63.1667" y2="32" gradientUnits="userSpaceOnUse">
<stop stop-color="#FAAA3D"/>
<stop offset="0.174964" stop-color="#EF4023"/>
<stop offset="0.343952" stop-color="#C81F41"/>
<stop offset="0.590537" stop-color="#6D2774"/>
<stop offset="1" stop-color="#06A4D9"/>
</linearGradient>
</defs>
</svg>
