<svg width="58" height="64" viewBox="0 0 58 64" fill="none" xmlns="http://www.w3.org/2000/svg">
<path fill-rule="evenodd" clip-rule="evenodd" d="M4.75 17.4167C4.75 13.3483 5.76739 10.2635 7.67913 8.20469C9.49281 6.2515 12.3761 4.93825 16.7916 4.83937V25.7583C16.7916 28.8288 20.4049 30.295 22.5847 28.3195L22.5977 28.3076L29 22.4021L35.4022 28.3076L35.4152 28.3195C37.5951 30.295 41.2083 28.8288 41.2083 25.7583V4.83937C45.6239 4.93824 48.5072 6.25149 50.3209 8.20469C52.2326 10.2635 53.25 13.3483 53.25 17.4167V46.5834C53.25 50.6518 52.2326 53.7366 50.3209 55.7954C48.4341 57.8273 45.3896 59.1667 40.6667 59.1667H17.3333C12.6104 59.1667 9.56595 57.8273 7.67913 55.7954C5.76739 53.7366 4.75 50.6518 4.75 46.5834V17.4167ZM37.2083 4.83337H20.7916V24.5317L26.6445 19.133C27.9666 17.8919 30.0333 17.8919 31.3555 19.133L37.2083 24.5317V4.83337ZM39.2083 0.833374H40.6667C46.152 0.833374 50.3993 2.41068 53.252 5.48289C56.0799 8.52826 57.25 12.7351 57.25 17.4167V46.5834C57.25 51.265 56.0799 55.4718 53.252 58.5172C50.3993 61.5894 46.152 63.1667 40.6667 63.1667H17.3333C11.848 63.1667 7.60072 61.5894 4.74795 58.5172C1.92011 55.4718 0.75 51.265 0.75 46.5834V17.4167C0.75 12.7351 1.92011 8.52826 4.74795 5.48289C7.60072 2.41068 11.848 0.833374 17.3333 0.833374H18.7916H39.2083ZM30.6459 37.8333C30.6459 36.7287 31.5413 35.8333 32.6459 35.8333H45.0417C46.1463 35.8333 47.0417 36.7287 47.0417 37.8333C47.0417 38.9378 46.1463 39.8333 45.0417 39.8333H32.6459C31.5413 39.8333 30.6459 38.9378 30.6459 37.8333ZM20.25 47.5C19.1454 47.5 18.25 48.3954 18.25 49.5C18.25 50.6046 19.1454 51.5 20.25 51.5H45.0417C46.1462 51.5 47.0417 50.6046 47.0417 49.5C47.0417 48.3954 46.1462 47.5 45.0417 47.5H20.25Z" fill="url(#paint0_linear_538_8428)"/>
<defs>
<linearGradient id="paint0_linear_538_8428" x1="0.75" y1="32" x2="57.25" y2="32" gradientUnits="userSpaceOnUse">
<stop stop-color="#FAAA3D"/>
<stop offset="0.174964" stop-color="#EF4023"/>
<stop offset="0.343952" stop-color="#C81F41"/>
<stop offset="0.590537" stop-color="#6D2774"/>
<stop offset="1" stop-color="#06A4D9"/>
</linearGradient>
</defs>
</svg>
