<svg width="70" height="70" viewBox="0 0 70 70" fill="none" xmlns="http://www.w3.org/2000/svg">
<path fill-rule="evenodd" clip-rule="evenodd" d="M28.2502 15.3125C28.2502 14.2092 28.4214 13.2051 28.7247 12.3174C29.6969 9.59992 32.1373 7.83325 35.7292 7.83325H54.6876C57.0768 7.83325 58.9125 8.62094 60.1458 9.85424C61.3791 11.0875 62.1667 12.9232 62.1667 15.3124V26.6875C62.1667 30.2826 60.3969 32.724 57.6753 33.6945C56.7892 33.9962 55.7875 34.1667 54.6876 34.1667H47.1042C46.7089 34.1667 46.3223 34.2838 45.9935 34.5034L37.7293 40.0222V36.1667C37.7293 35.7525 37.6034 35.3677 37.3877 35.0484C37.2283 34.8125 37.0199 34.6124 36.777 34.4628C36.4723 34.275 36.1134 34.1667 35.7292 34.1667C34.0912 34.1667 32.5379 33.7081 31.3227 33.0053C30.9289 32.7554 30.5742 32.4707 30.2602 32.1567C29.0301 30.9265 28.2502 29.0733 28.2502 26.6876V15.3125ZM60.3335 40.5417V36.8969C64.0269 35.0169 66.1667 31.2554 66.1667 26.6875V15.3124C66.1667 12.0142 65.0586 9.11022 62.9742 7.02581C60.8898 4.9414 57.9858 3.83325 54.6876 3.83325H35.7292C31.1613 3.83325 27.3995 5.97316 25.5195 9.66667H18.9585C14.7144 9.66667 10.8721 10.7274 8.08197 13.3183C5.26497 15.9341 3.8335 19.8167 3.8335 24.7917V40.5417C3.8335 45.5167 5.26497 49.3994 8.08197 52.0151C10.8721 54.606 14.7144 55.6667 18.9585 55.6667H30.0835V62.1671H21.583C20.4784 62.1671 19.583 63.0625 19.583 64.1671C19.583 65.2716 20.4784 66.1671 21.583 66.1671H42.583C43.6875 66.1671 44.583 65.2716 44.583 64.1671C44.583 63.0625 43.6875 62.1671 42.583 62.1671H34.0835V55.6667H45.2085C49.4526 55.6667 53.2949 54.606 56.085 52.0151C58.902 49.3994 60.3335 45.5167 60.3335 40.5417ZM18.9585 51.6667H32.0548L32.0835 51.6665L32.1122 51.6667H45.2085C48.8394 51.6667 51.5596 50.7587 53.3632 49.084C55.14 47.4341 56.3335 44.7543 56.3335 40.5417V38.0715C55.7965 38.1347 55.2472 38.1667 54.6877 38.1667H47.7107L39.7859 43.4589L39.7665 43.4717C38.396 44.3642 36.7599 44.2588 35.5369 43.4902C35.0488 43.1834 34.6264 42.771 34.313 42.2742C33.9468 41.6937 33.7292 40.9979 33.7292 40.2209V38.0254C32.0821 37.7868 30.5601 37.2476 29.2365 36.4195C28.45 35.956 27.7368 35.4113 27.1243 34.7988C24.9455 32.6199 24.2501 29.8067 24.2501 26.6875V15.3124C24.2501 14.7529 24.2821 14.2037 24.3453 13.6667H18.9585C15.3276 13.6667 12.6074 14.5747 10.8038 16.2494C9.02702 17.8993 7.8335 20.5791 7.8335 24.7917V40.5417C7.8335 44.7543 9.02702 47.4341 10.8038 49.084C12.6074 50.7587 15.3276 51.6667 18.9585 51.6667ZM53.9453 19.1458C52.8407 19.1458 51.9453 20.0412 51.9453 21.1458C51.9453 22.2504 52.8407 23.1458 53.9453 23.1458H53.9715C55.0761 23.1458 55.9715 22.2504 55.9715 21.1458C55.9715 20.0412 55.0761 19.1458 53.9715 19.1458H53.9453ZM43.7795 21.1458C43.7795 20.0412 44.6749 19.1458 45.7795 19.1458H45.8057C46.9103 19.1458 47.8057 20.0412 47.8057 21.1458C47.8057 22.2504 46.9103 23.1458 45.8057 23.1458H45.7795C44.6749 23.1458 43.7795 22.2504 43.7795 21.1458ZM37.6119 19.1458C36.5073 19.1458 35.6119 20.0412 35.6119 21.1458C35.6119 22.2504 36.5073 23.1458 37.6119 23.1458H37.6381C38.7427 23.1458 39.6381 22.2504 39.6381 21.1458C39.6381 20.0412 38.7427 19.1458 37.6381 19.1458H37.6119Z" fill="url(#paint0_linear_538_8408)"/>
<defs>
<linearGradient id="paint0_linear_538_8408" x1="3.8335" y1="35.0002" x2="66.1667" y2="35.0002" gradientUnits="userSpaceOnUse">
<stop stop-color="#FAAA3D"/>
<stop offset="0.174964" stop-color="#EF4023"/>
<stop offset="0.343952" stop-color="#C81F41"/>
<stop offset="0.590537" stop-color="#6D2774"/>
<stop offset="1" stop-color="#06A4D9"/>
</linearGradient>
</defs>
</svg>
